<svg id="Group_204969" data-name="Group 204969" xmlns="http://www.w3.org/2000/svg" width="20.822" height="20.122" viewBox="0 0 20.822 20.122">
  <path id="Path_302320" data-name="Path 302320" d="M320.556,104.51a1.283,1.283,0,1,0,.907.375A1.28,1.28,0,0,0,320.556,104.51Zm0,2.1a.818.818,0,1,1,.578-.238.815.815,0,0,1-.578.238Z" transform="translate(-310.144 -101.736)" fill="#fff"/>
  <path id="Path_302320_-_Outline" data-name="Path 302320 - Outline" d="M320.587,104.36h0a1.462,1.462,0,1,1-1.032.43A1.456,1.456,0,0,1,320.588,104.36Zm0,2.56a1.1,1.1,0,1,0-.776-.321A1.092,1.092,0,0,0,320.591,106.92Zm0-2.1a1,1,0,0,1,.705.292,1,1,0,0,1-.708,1.7h0a1,1,0,0,1,0-1.993Zm0,1.63a.634.634,0,1,0-.451-.187.632.632,0,0,0,.451.187Z" transform="translate(-310.175 -101.768)" fill="#fff"/>
  <path id="Path_302321" data-name="Path 302321" d="M123.825,60.322h-.57v-.814a.233.233,0,0,0-.233-.233h-.549V57.738a.232.232,0,0,0-.233-.232h-.6V50.621h.6a.232.232,0,0,0,.233-.233V48.85h.2a.474.474,0,0,0,.274-.86l-7.737-5.477a2.395,2.395,0,0,0-2.763,0l-7.737,5.477a.474.474,0,0,0,.273.86h.2v1.538a.233.233,0,0,0,.233.233h.6v6.884h-.6a.232.232,0,0,0-.233.232v1.538h-.549a.233.233,0,0,0-.233.233v.814h-.572a.232.232,0,0,0-.232.232V61.6a.232.232,0,0,0,.232.233h19.994a.232.232,0,0,0,.232-.233V60.555a.232.232,0,0,0-.232-.232Zm-1.816-1.046H119V57.97h3.014Zm-6.208,0V57.738a.232.232,0,0,0-.232-.232h-.6V50.621h.6a.233.233,0,0,0,.233-.233V48.85h2.729v1.538a.233.233,0,0,0,.233.233h.6v6.884h-.6a.232.232,0,0,0-.233.232v1.538Zm-6.672,0V57.738a.232.232,0,0,0-.233-.232h-.6V50.621h.6a.233.233,0,0,0,.233-.233V48.85h2.728v1.538a.233.233,0,0,0,.233.233h.6v6.884h-.6a.232.232,0,0,0-.233.232v1.538Zm5.375-1.77h-1.351V50.621H114.5Zm.233-7.349h-2.415V48.85h3.014v1.306Zm-2.415,9.119V57.97h3.014v1.305Zm8.855-1.77h-1.351V50.621h1.351Zm.832-7.349H119V48.85h3.014ZM104.98,48.37l7.737-5.478a1.93,1.93,0,0,1,2.226,0l7.732,5.493Zm.67.481h3.014v1.306H105.65Zm.832,1.771h1.351v6.884h-1.351Zm-.832,7.349h3.014v1.305H105.65Zm17.943,3.4H104.064v-.579h.572a.232.232,0,0,0,.232-.233V59.74H122.79v.814a.233.233,0,0,0,.232.233h.57Z" transform="translate(-103.417 -41.893)" fill="#fff"/>
  <path id="Path_302321_-_Outline" data-name="Path 302321 - Outline" d="M123.857,62.046H103.863a.414.414,0,0,1-.414-.414V60.586a.414.414,0,0,1,.414-.414h.391V59.54a.414.414,0,0,1,.414-.414h.368V57.769a.414.414,0,0,1,.414-.414h.418V50.834h-.418a.411.411,0,0,1-.293-.121.417.417,0,0,1-.121-.293V49.063h-.019a.655.655,0,0,1-.378-1.19l7.737-5.477a2.576,2.576,0,0,1,2.972,0l7.737,5.477a.655.655,0,0,1-.378,1.19h-.019V50.42a.411.411,0,0,1-.121.293.417.417,0,0,1-.293.121h-.418v6.521h.418a.417.417,0,0,1,.293.121.411.411,0,0,1,.121.293v1.356h.367a.411.411,0,0,1,.293.121.417.417,0,0,1,.121.293v.632h.652l-.028.074a.412.412,0,0,1,.178.34v1.046a.412.412,0,0,1-.121.292A.417.417,0,0,1,123.857,62.046Zm-19.994-1.511a.051.051,0,0,0-.051.051v1.046a.051.051,0,0,0,.051.051h19.994a.051.051,0,0,0,.051-.051V60.586a.052.052,0,0,0-.015-.036.051.051,0,0,0-.036-.015h-.751v-1a.051.051,0,0,0-.015-.036.051.051,0,0,0-.036-.015h-.73V57.769a.051.051,0,0,0-.051-.051h-.781V50.471h.781a.051.051,0,0,0,.036-.015.051.051,0,0,0,.015-.036V48.7h.382a.291.291,0,0,0,.221-.1l-18.145-.016a.291.291,0,0,0,.234.118h.382v1.72a.051.051,0,0,0,.015.036.051.051,0,0,0,.036.015h.781v7.247h-.781a.051.051,0,0,0-.051.051v1.719h-.731a.051.051,0,0,0-.051.051v1Zm10-18.146a2.1,2.1,0,0,1,1.217.386L123,48.4a.292.292,0,0,0-.123-.232l-7.737-5.477a2.213,2.213,0,0,0-2.553,0l-7.737,5.477a.291.291,0,0,0-.122.211l7.918-5.606A2.1,2.1,0,0,1,113.861,42.389Zm-8.28,5.831,16.556.015-7.268-5.163a1.748,1.748,0,0,0-2.016,0Zm18.225,13.359H103.914v-.942h.754a.051.051,0,0,0,.036-.015.052.052,0,0,0,.015-.036v-1H123v1a.051.051,0,0,0,.015.036.051.051,0,0,0,.036.015h.751Zm-19.529-.363h19.166V61h-.388a.414.414,0,0,1-.414-.414v-.632H105.081v.632a.417.417,0,0,1-.121.292.412.412,0,0,1-.293.122h-.391Zm17.946-1.727h-3.377V57.82h3.377Zm-3.014-.363h2.651v-.942h-2.651Zm-3.556.363v-1.72a.051.051,0,0,0-.051-.051h-.781V50.471h.781a.051.051,0,0,0,.051-.051V48.7h3.092v1.72a.051.051,0,0,0,.015.036.051.051,0,0,0,.036.015h.78v7.247h-.78a.051.051,0,0,0-.051.051v1.719Zm-.469-2.133h.418a.417.417,0,0,1,.293.121.412.412,0,0,1,.121.293v1.357h2.366V57.769a.414.414,0,0,1,.414-.414h.417V50.834h-.417a.414.414,0,0,1-.414-.414V49.063h-2.366V50.42a.414.414,0,0,1-.414.414h-.418Zm-6.2,2.133v-1.72a.051.051,0,0,0-.015-.036.051.051,0,0,0-.036-.015h-.781V50.471h.781a.051.051,0,0,0,.036-.015.051.051,0,0,0,.015-.036V48.7h3.091v1.72a.051.051,0,0,0,.015.036.051.051,0,0,0,.036.015h.781v7.247h-.781a.051.051,0,0,0-.051.051v1.719Zm-.469-2.133h.418a.414.414,0,0,1,.414.414v1.357h2.365V57.769a.414.414,0,0,1,.414-.414h.418V50.834h-.418a.417.417,0,0,1-.293-.121.411.411,0,0,1-.121-.293V49.063h-2.365V50.42a.411.411,0,0,1-.121.293.417.417,0,0,1-.293.121h-.418Zm7.039,2.133h-3.377V57.82h3.377Zm-3.014-.363h2.651v-.942h-2.651Zm-3.659.363H105.5V57.82h3.377Zm-3.014-.363h2.651v-.942h-2.651Zm8.855-1.407H113V50.471h1.714Zm-1.351-.363h.988V50.834h-.988Zm8.023.363h-1.714V50.471h1.714Zm-1.351-.363h.988V50.834h-.988Zm-11.995.363h-1.713V50.471h1.713Zm-1.351-.363h.988V50.834h-.988Zm8.855-6.986h-3.377V48.7h3.377Zm-3.014-.363h2.651v-.943h-2.651Zm9.687.363h-3.377V48.7h3.377Zm-3.014-.363h2.651v-.943h-2.651Zm-10.331.363H105.5V48.7h3.377Zm-3.014-.363h2.651v-.943h-2.651Z" transform="translate(-103.449 -41.924)" fill="#fff"/>
</svg>
