<svg id="_4_Calendar" data-name="4 Calendar" xmlns="http://www.w3.org/2000/svg" width="16.459" height="16.459" viewBox="0 0 16.459 16.459">
  <path id="Path_53" data-name="Path 53" d="M556.341,3015.63h-.784v-.783a1.176,1.176,0,1,0-2.351,0v.783h-6.27v-.783a1.176,1.176,0,1,0-2.351,0v.783H543.8a1.96,1.96,0,0,0-1.959,1.959v10.581a1.96,1.96,0,0,0,1.959,1.959h12.54a1.96,1.96,0,0,0,1.959-1.959V3017.59A1.96,1.96,0,0,0,556.341,3015.63Zm0,12.148a.393.393,0,0,1-.392.392H544.192a.393.393,0,0,1-.392-.392v-7.838a.393.393,0,0,1,.392-.392h11.756a.393.393,0,0,1,.392.392Z" transform="translate(-541.841 -3013.671)" fill="#9295a5"/>
  <circle id="Ellipse_1" data-name="Ellipse 1" cx="0.784" cy="0.784" r="0.784" transform="translate(3.919 7.838)" fill="#9295a5"/>
  <circle id="Ellipse_2" data-name="Ellipse 2" cx="0.784" cy="0.784" r="0.784" transform="translate(3.919 10.973)" fill="#9295a5"/>
  <circle id="Ellipse_3" data-name="Ellipse 3" cx="0.784" cy="0.784" r="0.784" transform="translate(7.446 7.838)" fill="#9295a5"/>
  <circle id="Ellipse_4" data-name="Ellipse 4" cx="0.784" cy="0.784" r="0.784" transform="translate(7.446 10.973)" fill="#9295a5"/>
  <circle id="Ellipse_5" data-name="Ellipse 5" cx="0.784" cy="0.784" r="0.784" transform="translate(10.973 7.838)" fill="#9295a5"/>
  <circle id="Ellipse_6" data-name="Ellipse 6" cx="0.784" cy="0.784" r="0.784" transform="translate(10.973 10.973)" fill="#9295a5"/>
</svg>
