<svg version="1.1" xmlns="http://www.w3.org/2000/svg" xmlns:xlink="http://www.w3.org/1999/xlink" x="0px" y="0px" viewBox="0 0 1000 1000" enable-background="new 0 0 1000 1000" xml:space="preserve" width="13.376" height="13.376">
<g><path fill="#e85b49" d="M500,10C229.4,10,10,229.4,10,500c0,270.6,219.4,490,490,490c270.6,0,490-219.4,490-490C990,229.4,770.6,10,500,10z M699.8,650.3c13.7,13.7,13.7,35.8,0,49.5c-13.7,13.7-35.8,13.7-49.5,0L500,549.5L349.8,699.8c-13.7,13.7-35.8,13.7-49.5,0c-13.7-13.7-13.7-35.8,0-49.5L450.5,500L300.2,349.8c-13.7-13.7-13.7-35.8,0-49.5c13.7-13.7,35.8-13.7,49.5,0L500,450.5l150.3-150.3c13.7-13.7,35.8-13.7,49.5,0c13.7,13.7,13.7,35.8,0,49.5L549.5,500L699.8,650.3z"/></g>
</svg>
