<svg xmlns="http://www.w3.org/2000/svg" width="22.381" height="22.381" viewBox="0 0 22.381 22.381">
  <g id="Group_204518" data-name="Group 204518" transform="translate(-98 -296)">
    <path id="Path_70179" data-name="Path 70179" d="M284.243,1900.936a.932.932,0,0,1,0,1.319l-8.393,8.393a.932.932,0,0,1-1.319,0l-3.73-3.73a.932.932,0,0,1,1.319-1.319l3.071,3.071,7.734-7.734A.931.931,0,0,1,284.243,1900.936Zm-9.052-3.071a9.315,9.315,0,1,0,9.171,7.629.933.933,0,1,1,1.834-.338A11.191,11.191,0,1,1,275.19,1896a11.14,11.14,0,0,1,6.1,1.81.933.933,0,1,1-1.018,1.563A9.274,9.274,0,0,0,275.19,1897.865Z" transform="translate(-166 -1600)" fill="#9295a5" fill-rule="evenodd"/>
  </g>
</svg>
