<svg xmlns="http://www.w3.org/2000/svg" width="15.253" height="15.253" viewBox="0 0 15.253 15.253">
  <path id="Path_914" data-name="Path 914" d="M516.411,223.138l-2.467-2.467-7.366,7.366a.687.687,0,0,0-.2.486v2.182h2.182a.687.687,0,0,0,.486-.2Zm.771-4.733a.688.688,0,0,0-.973,0l-1.293,1.293,2.467,2.467,1.293-1.293a.688.688,0,0,0,0-.973Zm-1.945-.973a2.064,2.064,0,0,1,2.918,0l1.494,1.494a2.064,2.064,0,0,1,0,2.918l-9.632,9.632a2.064,2.064,0,0,1-1.459.6h-2.87a.688.688,0,0,1-.688-.688v-2.87a2.064,2.064,0,0,1,.6-1.459Z" transform="translate(-505 -216.829)" fill="#9295a5"/>
</svg>
