<svg xmlns="http://www.w3.org/2000/svg" width="26.137" height="19.603" viewBox="0 0 26.137 19.603">
  <g id="credit-card" transform="translate(0 0)">
    <path id="Rectangle_31644" data-name="Rectangle 31644" d="M2.267-1h19.6a3.271,3.271,0,0,1,3.267,3.267V15.336A3.271,3.271,0,0,1,21.87,18.6H2.267A3.271,3.271,0,0,1-1,15.336V2.267A3.271,3.271,0,0,1,2.267-1Zm19.6,17.425a1.09,1.09,0,0,0,1.089-1.089V2.267A1.09,1.09,0,0,0,21.87,1.178H2.267A1.09,1.09,0,0,0,1.178,2.267V15.336a1.09,1.09,0,0,0,1.089,1.089Z" transform="translate(1 1)" fill="#fff"/>
    <path id="Line_52864" data-name="Line 52864" d="M24.048,1.178H.089A1.089,1.089,0,1,1,.089-1H24.048a1.089,1.089,0,1,1,0,2.178Z" transform="translate(1 7.534)" fill="#fff"/>
  </g>
</svg>
