<svg xmlns="http://www.w3.org/2000/svg" width="14.192" height="14.721" viewBox="0 0 14.192 14.721">
  <path id="noun-trash-1126647" d="M129.347,52.5a15.656,15.656,0,0,0-1.635.047,1.559,1.559,0,0,0-1.59,1.591,10.875,10.875,0,0,0-.044,1.088h-1.555a.549.549,0,0,0-.093-.007.554.554,0,0,0-.079.007H122.8a.545.545,0,1,0,0,1.09h1.09V63.4a18.769,18.769,0,0,0,.056,1.95,1.764,1.764,0,0,0,1.813,1.811,18.884,18.884,0,0,0,1.948.055h3.271a18.77,18.77,0,0,0,1.95-.056,1.764,1.764,0,0,0,1.811-1.813,18.522,18.522,0,0,0,.055-1.909h0q0-.019,0-.038V56.316h1.09a.545.545,0,1,0,0-1.09h-1.552a.5.5,0,0,0-.171,0h-1.551a10.466,10.466,0,0,0-.046-1.211,1.649,1.649,0,0,0-.475-1.066,1.866,1.866,0,0,0-1.119-.407c-.431-.044-.949-.043-1.629-.043Zm0,1.09c.68,0,1.183,0,1.519.036a.985.985,0,0,1,.5.133c.037.033.088.1.124.391a10.592,10.592,0,0,1,.037,1.076H127.17c0-.4.01-.738.036-.967.037-.33.1-.442.143-.485s.156-.106.486-.144.832-.041,1.512-.041Zm-4.362,2.726h1.544a.546.546,0,0,0,.178,0h7v7.051c0,.012,0,.025,0,.037,0,.815,0,1.42-.049,1.826a.732.732,0,0,1-.85.851c-.407.046-1.011.049-1.827.049h-3.271c-.815,0-1.42,0-1.826-.049a.732.732,0,0,1-.851-.85c-.046-.407-.049-1.011-.049-1.827V56.316Z" transform="translate(-122.251 -52.499)" fill="#9295a5"/>
</svg>
