<svg xmlns="http://www.w3.org/2000/svg" width="16.135" height="13.654" viewBox="0 0 16.135 13.654">
  <g id="edit" transform="translate(0.904 -3.129)">
    <path id="Path_302548" data-name="Path 302548" d="M17.34,1.129a2.272,2.272,0,0,1,1.607,3.879l-7.518,7.518a.594.594,0,0,1-.276.156l-3.166.791a.594.594,0,0,1-.72-.72l.791-3.166a.594.594,0,0,1,.156-.276l7.518-7.518A2.257,2.257,0,0,1,17.34,1.129ZM10.706,11.57l7.4-7.4a1.085,1.085,0,1,0-1.535-1.535l-7.4,7.4-.512,2.046Z" transform="translate(-4.381 2)" fill="#9295a5"/>
    <path id="Line_52691" data-name="Line 52691" d="M13.906.652H.076A.576.576,0,1,1,.076-.5h13.83a.576.576,0,0,1,0,1.152Z" transform="translate(-0.404 16.13)" fill="#9295a5"/>
  </g>
</svg>
