<svg xmlns="http://www.w3.org/2000/svg" width="20" height="20" viewBox="0 0 14 14">
  <path id="Path_302226" data-name="Path 302226" d="M91.245,42a5.873,5.873,0,0,0-5.839,5.287h-.828a.58.58,0,1,0,0,1.16H89.05a.568.568,0,0,0,.511-.317l.483-.939,1.477,2.858a.57.57,0,0,0,1.021,0l.828-1.615H94.2a.58.58,0,1,0,0-1.16H93.026a.568.568,0,0,0-.511.317l-.483.939-1.477-2.844a.6.6,0,0,0-1.022,0L88.705,47.3h-2.14a4.715,4.715,0,1,1,.318,2.361H85.655A5.869,5.869,0,1,0,91.245,42Z" transform="translate(-83.998 -42)" fill="#fff"/>
</svg>
