<svg xmlns="http://www.w3.org/2000/svg" width="20.059" height="20.059" viewBox="0 0 20.059 20.059">
  <path id="Path_210726" data-name="Path 210726" d="M178.029,1760.358a.836.836,0,0,1,.836.836v5.015a.836.836,0,0,1-1.672,0v-5.015A.836.836,0,0,1,178.029,1760.358Zm0-3.343a.836.836,0,0,1,.836.836v.836a.836.836,0,0,1-1.672,0v-.836A.836.836,0,0,1,178.029,1757.015ZM168,1762.029a10.029,10.029,0,1,1,10.029,10.029A10.03,10.03,0,0,1,168,1762.029Zm10.029-8.358a8.358,8.358,0,1,0,8.358,8.358A8.358,8.358,0,0,0,178.029,1753.672Z" transform="translate(-168 -1752)" fill="#fff" fill-rule="evenodd"/>
</svg>
