<svg xmlns="http://www.w3.org/2000/svg" width="43.257" height="57.342" viewBox="0 0 43.257 57.342">
  <path id="Path_33408" data-name="Path 33408" d="M230.738,786.257a2.348,2.348,0,0,1,2.348-2.348h14.086a2.348,2.348,0,0,1,0,4.7H233.086A2.348,2.348,0,0,1,230.738,786.257Zm0-9.39a2.349,2.349,0,0,1,2.348-2.348h7.043a2.348,2.348,0,0,1,0,4.7h-7.043A2.348,2.348,0,0,1,230.738,776.866ZM219,751.043A7.042,7.042,0,0,1,226.043,744h16.433a2.341,2.341,0,0,1,1.66.688l16.433,16.433a2.341,2.341,0,0,1,.688,1.66V793.3a7.042,7.042,0,0,1-7.043,7.043H226.043A7.042,7.042,0,0,1,219,793.3Zm25.824.972,8.418,8.419h-6.071a2.348,2.348,0,0,1-2.348-2.348ZM226.043,748.7a2.348,2.348,0,0,0-2.348,2.348V793.3a2.348,2.348,0,0,0,2.348,2.348h28.171a2.348,2.348,0,0,0,2.348-2.348V765.129h-9.39a7.042,7.042,0,0,1-7.043-7.043V748.7Z" transform="translate(-218.5 -743.5)" fill="#9295a5" stroke="#21222b" stroke-width="1"/>
</svg>
