<svg xmlns="http://www.w3.org/2000/svg" width="15.677" height="15.677" viewBox="0 0 15.677 15.677">
  <path id="Path_90546" data-name="Path 90546" d="M7.838,15.677a7.9,7.9,0,0,0,7.838-7.838A7.9,7.9,0,0,0,7.831,0,7.89,7.89,0,0,0,0,7.838,7.9,7.9,0,0,0,7.838,15.677Zm0-1.306A6.532,6.532,0,1,1,14.37,7.838,6.5,6.5,0,0,1,7.838,14.37Zm3.942-6.54a.6.6,0,0,0-.215-.446L8.968,4.78a.551.551,0,0,0-.4-.154.542.542,0,0,0-.553.553.567.567,0,0,0,.169.407l.961.953.93.776L8.453,7.254H4.442a.576.576,0,1,0,0,1.153H8.453l1.621-.061-.93.784-.961.945a.568.568,0,0,0-.169.415.56.56,0,0,0,.953.4l2.6-2.605A.6.6,0,0,0,11.781,7.831Z" transform="translate(15.677 15.677) rotate(180)" fill="#9295A5"/>
</svg>
