<svg xmlns="http://www.w3.org/2000/svg" width="26.776" height="18.802" viewBox="0 0 26.776 18.802">
  <g id="Group_204687" data-name="Group 204687" transform="translate(-1199 -202)">
    <g id="Group_204686" data-name="Group 204686" transform="translate(1199 202)">
      <g id="Group_204664" data-name="Group 204664" transform="translate(0 0)">
        <g id="Group_204662" data-name="Group 204662" transform="translate(0 0)">
          <path id="Path_302014" data-name="Path 302014" d="M88.816,85.752H72.195a2.19,2.19,0,0,1-2.187-2.187V72.193a2.19,2.19,0,0,1,2.187-2.187H88.816A2.19,2.19,0,0,1,91,72.193V83.565A2.19,2.19,0,0,1,88.816,85.752ZM72.195,70.88a1.314,1.314,0,0,0-1.312,1.312V83.565a1.314,1.314,0,0,0,1.312,1.312H88.815a1.314,1.314,0,0,0,1.312-1.312V72.193a1.314,1.314,0,0,0-1.312-1.312Z" transform="translate(-70.008 -70.006)" fill="#9295a5"/>
          <path id="Path_302015" data-name="Path 302015" d="M94.943,94.988a3.155,3.155,0,0,1-2.336-1.044L85.123,85.76a.438.438,0,1,1,.646-.59l7.484,8.183a2.312,2.312,0,0,0,3.382,0l7.446-8.147a.438.438,0,0,1,.647.59l-7.448,8.147a3.156,3.156,0,0,1-2.337,1.045Z" transform="translate(-84.446 -84.464)" fill="#9295a5"/>
          <path id="Path_302016" data-name="Path 302016" d="M84.854,292.493a.438.438,0,0,1-.295-.761l6.851-6.256a.437.437,0,1,1,.59.646l-6.851,6.256a.439.439,0,0,1-.3.115Z" transform="translate(-83.877 -277.287)" fill="#9295a5"/>
          <path id="Path_302017" data-name="Path 302017" d="M416.772,292.479a.434.434,0,0,1-.295-.115l-6.815-6.22a.437.437,0,1,1,.59-.646l6.815,6.22a.438.438,0,0,1-.3.76Z" transform="translate(-396.791 -277.308)" fill="#9295a5"/>
        </g>
      </g>
    </g>
    <path id="Path_302030" data-name="Path 302030" d="M6.764,0A6.764,6.764,0,1,1,0,6.764,6.764,6.764,0,0,1,6.764,0Z" transform="translate(1212.248 207.273)" fill="#9295a5"/>
    <path id="Path_302030_-_Outline" data-name="Path 302030 - Outline" d="M6.764.4a6.364,6.364,0,1,0,6.364,6.364A6.371,6.371,0,0,0,6.764.4m0-.4A6.764,6.764,0,1,1,0,6.764,6.764,6.764,0,0,1,6.764,0Z" transform="translate(1212.248 207.273)" fill="#17171d"/>
    <path id="Path_302031" data-name="Path 302031" d="M5.533,0A5.533,5.533,0,1,1,0,5.533,5.533,5.533,0,0,1,5.533,0Z" transform="translate(1213.479 208.504)" fill="#17181e"/>
    <g id="noun-send-5002089" transform="translate(1215.742 210.905)">
      <path id="Path_302032" data-name="Path 302032" d="M200.287,61.027l-4.734-2.559a.571.571,0,0,0-.8.722l.954,2.291a.126.126,0,0,1,0,.1l-.955,2.293a.572.572,0,0,0,.525.791.576.576,0,0,0,.273-.07l4.736-2.561a.57.57,0,0,0,0-1Zm-.211.612-4.736,2.56a.125.125,0,0,1-.175-.158l.953-2.29h1.369a.223.223,0,0,0,0-.445h-1.369l-.952-2.288a.121.121,0,0,1,.032-.142.127.127,0,0,1,.083-.034.13.13,0,0,1,.061.017l4.734,2.559a.125.125,0,0,1,0,.221Z" transform="translate(-193.219 -58.398)" fill="#9295a5"/>
      <path id="Path_302033" data-name="Path 302033" d="M89.473,163.985h.842a.223.223,0,0,0,0-.445h-.842a.223.223,0,1,0,0,.445Z" transform="translate(-89.25 -162.055)" fill="#9295a5"/>
      <path id="Path_302034" data-name="Path 302034" d="M127.86,264.473a.222.222,0,0,0,.223.222h.842a.223.223,0,1,0,0-.445h-.842A.222.222,0,0,0,127.86,264.473Z" transform="translate(-127.315 -261.342)" fill="#9295a5"/>
      <path id="Path_302035" data-name="Path 302035" d="M90.318,364.96h-.842a.223.223,0,0,0,0,.445h.842a.223.223,0,0,0,0-.445Z" transform="translate(-89.254 -360.629)" fill="#9295a5"/>
    </g>
  </g>
</svg>
