<svg xmlns="http://www.w3.org/2000/svg" width="27.896" height="18.77" viewBox="0 0 27.896 18.77">
  <g id="Group_204688" data-name="Group 204688" transform="translate(-1199 -255)">
    <g id="Group_204665" data-name="Group 204665" transform="translate(1199 255)">
      <g id="Group_204664" data-name="Group 204664" transform="translate(0 0)">
        <g id="Group_204662" data-name="Group 204662" transform="translate(0 0)">
          <path id="Path_302014" data-name="Path 302014" d="M88.636,85.6H72.174a2.169,2.169,0,0,1-2.166-2.166V72.172a2.169,2.169,0,0,1,2.166-2.166H88.636A2.169,2.169,0,0,1,90.8,72.172V83.436A2.169,2.169,0,0,1,88.636,85.6ZM72.174,70.872a1.3,1.3,0,0,0-1.3,1.3V83.435a1.3,1.3,0,0,0,1.3,1.3H88.636a1.3,1.3,0,0,0,1.3-1.3V72.172a1.3,1.3,0,0,0-1.3-1.3Z" transform="translate(-70.008 -70.006)" fill="#9295a5"/>
          <path id="Path_302015" data-name="Path 302015" d="M94.849,94.893a3.125,3.125,0,0,1-2.313-1.034l-7.413-8.106a.434.434,0,0,1,.64-.585l7.413,8.1a2.29,2.29,0,0,0,3.35,0L103.9,85.2a.434.434,0,0,1,.641.585l-7.377,8.069a3.126,3.126,0,0,1-2.315,1.035Z" transform="translate(-84.452 -84.47)" fill="#9295a5"/>
          <path id="Path_302016" data-name="Path 302016" d="M84.85,292.425a.434.434,0,0,1-.292-.754l6.786-6.2a.433.433,0,1,1,.585.639l-6.786,6.2a.435.435,0,0,1-.293.114Z" transform="translate(-83.882 -277.364)" fill="#9295a5"/>
          <path id="Path_302017" data-name="Path 302017" d="M416.7,292.411a.43.43,0,0,1-.292-.114l-6.75-6.161a.433.433,0,1,1,.585-.639l6.75,6.161a.434.434,0,0,1-.293.753Z" transform="translate(-396.912 -277.385)" fill="#9295a5"/>
        </g>
      </g>
    </g>
    <path id="Path_302013" data-name="Path 302013" d="M6.847,0A6.848,6.848,0,1,1,0,6.848,6.848,6.848,0,0,1,6.847,0Z" transform="translate(1211.894 260.075)" fill="#00c17f"/>
    <path id="Path_302013_-_Outline" data-name="Path 302013 - Outline" d="M6.847.4a6.448,6.448,0,1,0,6.447,6.448A6.455,6.455,0,0,0,6.847.4m0-.4A6.848,6.848,0,1,1,0,6.848,6.848,6.848,0,0,1,6.847,0Z" transform="translate(1211.894 260.075)" fill="#17171d"/>
    <path id="Path_302018" data-name="Path 302018" d="M5.111,0A5.111,5.111,0,1,1,0,5.111,5.111,5.111,0,0,1,5.111,0Z" transform="translate(1213.631 261.812)" fill="#17181e"/>
    <path id="Path_302014-2" data-name="Path 302014" d="M-8874.964,7203.384l-4.359-3.591a1.288,1.288,0,0,1-.175-1.81,1.278,1.278,0,0,1,1.81-.175l2.406,1.981,4.475-5.271a1.284,1.284,0,0,1,1.812-.148,1.289,1.289,0,0,1,.147,1.812Z" transform="translate(10094.867 -6932.743)" fill="#00c17f"/>
    <path id="Path_302014_-_Outline" data-name="Path 302014 - Outline" d="M-8874.721,7204.356l-.434-.359-4.362-3.59a1.86,1.86,0,0,1-.251-2.618,1.853,1.853,0,0,1,1.436-.677,1.841,1.841,0,0,1,1.184.43l1.966,1.618,4.11-4.841a1.82,1.82,0,0,1,1.41-.656,1.882,1.882,0,0,1,1.205.439,1.867,1.867,0,0,1,.219,2.62Zm-3.611-6.1a.714.714,0,0,0-.554.263.715.715,0,0,0,.1,1l3.926,3.232,5.75-6.773a.719.719,0,0,0-.082-1.008.742.742,0,0,0-.467-.167.687.687,0,0,0-.533.246l-4.845,5.706-2.841-2.338A.685.685,0,0,0-8878.332,7198.256Z" transform="translate(10094.697 -6932.915)" fill="#17181e"/>
  </g>
</svg>