<svg xmlns="http://www.w3.org/2000/svg" width="168.324" height="160.863" viewBox="0 0 168.324 160.863">
  <g id="Group_204981" data-name="Group 204981" transform="translate(1177.662 -1090.568)">
    <path id="Path_302400" data-name="Path 302400" d="M-496.663,227.163a60.277,60.277,0,0,1,21.2,2.922,60.116,60.116,0,0,1,22.143,13.02,60.344,60.344,0,0,1,17.988,30.617,65.646,65.646,0,0,1,1.531,10.689c.226,2.926-.191,5.8-.1,8.7l-.186.164a1.929,1.929,0,0,1-.5.031c-8.382-.024-16.765,0-25.147-.008a4.3,4.3,0,0,0-1.182.093,3.273,3.273,0,0,1-.676.151,9.133,9.133,0,0,0-7.713,9.3c0,3.743-.008,7.485.006,11.228,0,.6-.129,1.318.587,1.617.667.279,1.169-.19,1.656-.571.589-.462,1.175-.928,1.732-1.429a11.879,11.879,0,0,1,6.61-3.332c6.387-.114,12.772,0,19.158-.062.6,0,1.233-.107,1.663.48-1.01.726-1.013,2-1.619,2.956-.283.445-.491.936-.734,1.406-.469.244-.747-.12-1.018-.367a5.087,5.087,0,0,0-3.868-1.331c-3.42.01-6.838-.006-10.253.013a3.874,3.874,0,0,0-3.821,4.072c-.037,1.1-.039,2.207,0,3.309a4.232,4.232,0,0,0,4.288,4.3c2.073.066,4.148,0,6.222.026.558.007,1.165-.1,1.606.4a9.688,9.688,0,0,1-1.941,2.478,68.57,68.57,0,0,1-8.72,8.083c-.548.081-.751-.39-1.047-.683a28.189,28.189,0,0,0-2.54-2.511,1.971,1.971,0,0,1-.7-2.444,9.966,9.966,0,0,0-.764-7.945,9.7,9.7,0,0,0-10.324-5.083,10.151,10.151,0,0,0-7.839,7.888,10.524,10.524,0,0,0,.351,5.344,3.173,3.173,0,0,1,.262,1.286,6.743,6.743,0,0,1-1.962,2.253,21.257,21.257,0,0,0-4.071,5.764c-.068.169-.147.333-.227.5-.046.111-.1.217-.156.323a11.728,11.728,0,0,0-.735,2.012c-.082.245-.147.494-.216.743-.209,1.158-.554,2.287-.695,3.458-.053.436-.122.877-.612,1.068-2.506.486-5.039.143-7.558.249-.81.034-1.659-.27-2.428.225l-.207-.163a3.917,3.917,0,0,1-.241-2.073q-.014-17.2-.008-34.392a12.863,12.863,0,0,0-.055-1.848c-.651-2.044-1.483-2.688-3.675-2.7-6.222-.023-12.444-.007-18.665-.009-.485,0-.971-.013-1.456-.011-1.1.005-1.6-.546-1.615-1.629-.023-1.677.012-3.354-.019-5.03-.04-2.154-.734-2.86-2.888-2.865-6.531-.015-13.061,0-19.592-.008-1.274,0-2.383.246-2.867,1.62-.237,1.977-.034,3.961-.109,5.938-.022.6.107,1.256-.474,1.709a.959.959,0,0,1-1.2-.165c-.77-3.34-1.807-6.617-2.279-10.029a63.94,63.94,0,0,1-.475-13.7,62.132,62.132,0,0,1,2.715-14.086,60.112,60.112,0,0,1,10.3-19.234,63.281,63.281,0,0,1,7.472-7.831c.446.421.311.981.356,1.5a9.32,9.32,0,0,0,12.378,8.286,9.045,9.045,0,0,0,6.267-8.077,9.335,9.335,0,0,0-5.543-9.286c-.453-.2-1.082-.187-1.236-.843,3.049-1.262,6.044-2.644,9.192-3.679a65.982,65.982,0,0,1,14.072-2.755c.476.4.4.953.4,1.471q.017,14.874,0,29.749a2.5,2.5,0,0,1-.211,1.288,2.021,2.021,0,0,1-1.718.481q-10.787.023-21.574,0c-1.771-.006-2.133-.412-2.19-2.213a8.551,8.551,0,0,0-.084-1.583c-.048-.218-.119-.44-.384-.47a.386.386,0,0,0-.446.383c-.046,1.685-.539,3.406.366,5.019a3.9,3.9,0,0,0,1.95.2q17.838.013,35.677.013a3.5,3.5,0,0,1,2.06.281,2.33,2.33,0,0,1,.335,1.644q.015,5.952,0,11.9c-.006,1.8-.227,2.016-2.1,2.019-5.908.013-11.816,0-17.724.007a7.6,7.6,0,0,0-1.71.08.888.888,0,0,0-.345.288c-.221.574.1.834.584.954a4.445,4.445,0,0,0,1.055.047q12.845,0,25.69-.016c.582,0,1.595.351,1.6-.6.009-.864-.984-.661-1.6-.7-.88-.06-1.764,0-2.647-.041a1.325,1.325,0,0,1-1.435-1.389c-.025-.441-.033-.882-.033-1.323q0-11.455,0-22.91c0-.4.013-.794.019-1.191.017-1.042.563-1.5,1.576-1.537a26.987,26.987,0,0,0,2.777-.078c.3-.04.658-.079.652-.5a.569.569,0,0,0-.525-.519,10.847,10.847,0,0,0-4.975.074c-.775.206-.863.9-.862,1.608,0,2.781.01,5.562,0,8.343-.008,1.962-.241,2.2-2.215,2.217-2.693.02-5.385.011-8.078,0a3.046,3.046,0,0,1-1.674-.286.648.648,0,0,1-.221-.442c.109-7.222.024-14.445.042-21.667.009-3.391.033-6.782-.021-10.173A.641.641,0,0,1-496.663,227.163Z" transform="translate(-600.744 884.617)" fill="#fec8a2"/>
    <path id="Path_302401" data-name="Path 302401" d="M-578.057,393.023l1.046.053c.289.032.387-.146.383-.386-.046-2.435.136-4.873-.093-7.306A2.353,2.353,0,0,1-574.2,383.5q10.519-.022,21.038,0a2.458,2.458,0,0,1,2.683,2.737c.022,1.808.068,3.619-.018,5.424-.052,1.086.259,1.423,1.381,1.414,6.792-.052,13.584-.031,20.376-.022a3.393,3.393,0,0,1,3.639,2.929,3.609,3.609,0,0,0-.1,1.439q-.009,18.591,0,37.183,0,6,0,11.993a3.55,3.55,0,0,0,.086,1.305,3.46,3.46,0,0,1-2.6,2.711.862.862,0,0,1-.467.17,2.037,2.037,0,0,1-.505-.067c-.617-.058-1.234-.036-1.852-.036q-32.543,0-65.085.01c-1.147,0-2.286-.165-3.432-.092a.784.784,0,0,1-.507-.008,3.208,3.208,0,0,1-2.637-2.938,2.353,2.353,0,0,0,.129-1.295q.009-24.544,0-49.088a2.568,2.568,0,0,0-.119-1.3,3.363,3.363,0,0,1,3.628-2.917q9.789-.018,19.578-.006C-578.673,393.05-578.365,393.032-578.057,393.023Z" transform="translate(-574.763 798.536)" fill="#905aac"/>
    <path id="Path_302402" data-name="Path 302402" d="M-406.431,450.366l.164-.315c.425.57.552-.463.879-.175a1.461,1.461,0,0,1,.423,1.563c-.056.224-.3.173-.392.414a14.3,14.3,0,0,0-.92,3.674,7.9,7.9,0,0,0,.092,2.693c-.026,2.558-.421,5.091-.447,7.652a6.289,6.289,0,0,0,3.135,5.736,17.561,17.561,0,0,0,7.107,2.379,36.118,36.118,0,0,0,14.322-.614c.257-.066.516-.121.767-.207,5.261-1.8,6.951-3.946,6.542-8.941a53.785,53.785,0,0,0-1.3-10.088,21.036,21.036,0,0,0-5.052-8.743c-1.139-1.229-1.351-.909-2.738-.117-2.466,1.408-2.962,3.8-3.753,6.119a3.052,3.052,0,0,0-.034,1.438c.52,3.893,1.031,7.788,1.563,11.68a3.1,3.1,0,0,1-.98,2.865c-.1.091-.187.188-.289.273-3.179,2.645-4.113,2.906-7.617-.412a2.891,2.891,0,0,1-.751-2.573c.329-3.16.776-6.306,1.209-9.454a24.419,24.419,0,0,1,.343-2.624c.281-1.127-.812-1.834-.837-2.859a12.252,12.252,0,0,0,.119-2.53,2.205,2.205,0,0,1,.071-.355.86.86,0,0,1-.3.195.461.461,0,0,1-.58-.317c.209-.775-.111-1.843,1.131-2.052a8.865,8.865,0,0,0,5.543.582c5.513-1.465,7.767-8.9,3.949-13.154-2.573-2.865-6.143-3.61-9.317-1.944a8.152,8.152,0,0,0-4.064,9.2,8.189,8.189,0,0,1,.641,2.408.646.646,0,0,1-.174.345c-.454.339-.438,1.409-1.215,1.1-.659-.263-.013-1.025-.131-1.526.017-.2-.25-.065-.074-.089.038,0,.032.039.046.123a1.884,1.884,0,0,1-.11.773.328.328,0,0,1-.5.232c-.273-.136-.137-.368-.1-.571a11.848,11.848,0,0,1-.658-7.492,10.165,10.165,0,0,1,12.74-7.317,10.517,10.517,0,0,1,6.771,13.025,1.826,1.826,0,0,0,.712,2.416,21.548,21.548,0,0,1,3.2,3.326c3.6,4.916,4.6,10.584,4.8,16.492.031.925.119,1.847.183,2.771a8.53,8.53,0,0,1-4.781,8.587,22.341,22.341,0,0,1-10.534,2.635c-.861-.372-1.726,0-2.581.035-1.262.052-2.512-.387-3.77-.049-4.479-.236-8.77-1.072-12.305-4.1a6.788,6.788,0,0,1-2.541-4.63c-.146-1.412.261-2.825,0-4.237-.183-1.858.329-3.685.252-5.538.457-1.576.461-3.256,1.089-4.794.478,0,.415.259.285.549.343-.392-.275-.743-.069-1.137a4.568,4.568,0,0,1,.789-2.146c.184.055.078.269.2.359C-406.337,450.728-406.29,450.522-406.431,450.366Z" transform="translate(-681.188 774.629)" fill="#915aac"/>
    <path id="Path_302403" data-name="Path 302403" d="M-296.314,476.574c-4.068-.257-7.958-1.1-11.3-3.6a7.675,7.675,0,0,1-3.28-6.611c.118-4.456.28-8.918,1.526-13.244a20.825,20.825,0,0,1,6.742-10.4c.688-.577.541-1.011.306-1.681a10.481,10.481,0,0,1,7.237-13.827,10.182,10.182,0,0,1,12.29,8.365,10.773,10.773,0,0,1-.5,5.466.985.985,0,0,0,.385,1.322,22.11,22.11,0,0,1,8.049,14.862c.379,2.848.485,5.714.632,8.58a8.2,8.2,0,0,1-4.231,7.843,21.434,21.434,0,0,1-10.719,2.938,7.084,7.084,0,0,0-2.844.047C-293.459,476.7-294.881,476.27-296.314,476.574Z" transform="translate(-735.122 774.618)" fill="#905aac"/>
    <path id="Path_302404" data-name="Path 302404" d="M-460.666,248.893c3.487,0,6.974-.021,10.46.031.932.013,1.208-.282,1.193-1.2-.049-3.133.006-6.268-.033-9.4-.015-1.237.471-1.776,1.727-1.737,1.365.043,2.735-.069,4.1-.024.721.024,1.638.032,1.583,1.136-.051,1.041-.89.9-1.589.907-.882.006-1.772.066-2.647-.015-1.052-.1-1.1.472-1.1,1.278.021,6.356.011,12.711.011,19.067,0,2.074.032,4.149-.016,6.223-.019.817.256,1.087,1.061,1.052,1.233-.054,2.471-.031,3.707-.005.657.013,1.3.209,1.319,1,.021.862-.609,1.07-1.354,1.07q-13.837,0-27.673,0c-.563,0-1.1-.075-1.331-.647a.8.8,0,0,1,.453-1.189,2.956,2.956,0,0,0,1.431.119q9.069.013,18.137.007c.484,0,.968-.022,1.452.01q-9.857-.028-19.715-.024a2.575,2.575,0,0,1-1.3-.117c.453-.415,1.01-.225,1.517-.226,6.254-.015,12.508-.037,18.762.013,1.109.009,1.53-.2,1.506-1.429-.088-4.579-.052-9.16-.063-13.74a1.172,1.172,0,0,0-.444-.227c-6.846-.085-13.692-.028-20.538-.032-6.183,0-12.367-.044-18.55.025a.74.74,0,0,1-.5-.014c-.515-.267-.559-.737-.556-1.243.009-1.323.018-2.647,0-3.97-.012-.717.218-1.287.988-1.277s.991.613.958,1.312c-.006.132,0,.265,0,.4.01,2.883.01,2.884,2.955,2.885l21.834.008c.389-.31.2-.741.2-1.11q.017-18.61,0-37.22c0-.378.155-.8-.178-1.133q-5.759,0-11.518,0c-.785,0-1.814.155-1.848-.953-.038-1.227,1.086-1.075,1.881-1.08,4.545-.027,9.09-.013,13.636-.013q6.686,0,13.371,0a2.6,2.6,0,0,1,1.3.132c-.256.251-.581.165-.88.165q-13.3.007-26.609.006c-.165,0-.32-.034-.48-.027q13.907.049,27.814.029c.3,0,.623.085.885-.155.72.056.861.545.754,1.118a.976.976,0,0,1-1.081.77c-.878.013-1.757.006-2.635.007l-12.388.008a.96.96,0,0,0-.271.256c.139,12.857.045,25.707.1,38.557C-460.834,248.493-460.928,248.751-460.666,248.893Z" transform="translate(-636.719 895.478)" fill="#915aad"/>
    <path id="Path_302405" data-name="Path 302405" d="M-354.61,391.525c-3.264.464-5.41,2.785-7.8,4.695a6.051,6.051,0,0,1-.948.713c-.952.487-1.9.033-1.905-1.014-.029-4.634-.193-9.281.1-13.9.25-4,3.915-7.442,7.866-8.007,2.012,0,4.024-.01,6.036-.005,7.257.019,14.515-.042,21.772.033l0-.11c3.382,1.18,4.805,3.168,4.806,6.712,0,1.541.017,3.082,0,4.623a6.2,6.2,0,0,1-6.152,6.278c-.88.03-1.76.032-2.641.047l-1.561-.094a1.618,1.618,0,0,0-1.024-.129q-9.031-.009-18.062.009C-354.274,391.379-354.558,391.147-354.61,391.525Z" transform="translate(-705.152 803.799)" fill="#915aac"/>
    <path id="Path_302406" data-name="Path 302406" d="M-370.713,180.026a12.615,12.615,0,0,1,12.748,12.649,12.743,12.743,0,0,1-12.985,12.735,12.774,12.774,0,0,1-12.431-12.774A12.669,12.669,0,0,1-370.713,180.026Z" transform="translate(-695.221 910.542)" fill="#905aac"/>
    <path id="Path_302407" data-name="Path 302407" d="M-330.28,430.8q-3.827-.028-7.654-.056a4.5,4.5,0,0,1-4.863-4.861c-.008-1.144-.03-2.289.01-3.432a4.242,4.242,0,0,1,3.97-4.156,11.6,11.6,0,0,0,3.394.135,63.634,63.634,0,0,0,7.488-.134c1.854-.071,3.2.963,4.5,2.082a6.734,6.734,0,0,1,1.551,3.248c-.227,2.495-.032,4.995-.1,7.492a13.062,13.062,0,0,1,.01,1.319c0-2.157-.007-4.605.007-7.053,0-.427-.132-.879.14-1.281.429,1.644.125,3.317.187,4.976.053,1.4.026,2.814,0,4.22a1.365,1.365,0,0,1-.8,1.395,1.394,1.394,0,0,1-1.458-.357c-.948-.784-1.89-1.579-2.862-2.333A4.921,4.921,0,0,0-330.28,430.8Z" transform="translate(-717.554 779.382)" fill="#915aac"/>
    <path id="Path_302408" data-name="Path 302408" d="M-489.671,197.907a9.671,9.671,0,0,1-9.647,9.7,9.725,9.725,0,0,1-9.72-9.647,9.634,9.634,0,0,1,9.732-9.73A9.579,9.579,0,0,1-489.671,197.907Z" transform="translate(-626.048 906.024)" fill="#915aad"/>
    <path id="Path_302409" data-name="Path 302409" d="M-496.825,241.258c4.755,1.806,7.169,5.025,7.145,9.53a9.62,9.62,0,0,1-8.164,9.463c-5.271.57-9.751-2.428-10.93-7.287a13.751,13.751,0,0,1-.272-3.281c1.176-5.2,3.83-7.871,8.543-8.649A13.028,13.028,0,0,1-496.825,241.258Z" transform="translate(-626.043 876.999)" fill="#915aac"/>
    <path id="Path_302410" data-name="Path 302410" d="M-582.784,273.991a.933.933,0,0,1-.726-1.416,61.643,61.643,0,0,1,4.2-7.63.941.941,0,0,1,1.376-.351.975.975,0,0,1,.353,1.478q-2.218,3.6-4.1,7.393A1.029,1.029,0,0,1-582.784,273.991Z" transform="translate(-584.982 864.081)" fill="#915aad"/>
    <path id="Path_302411" data-name="Path 302411" d="M-601.612,344.063c.178-2.008.365-4.287.589-6.563.072-.735.3-1.467,1.259-1.34.888.118.891.813.82,1.52-.252,2.493-.568,4.982-.572,7.494,0,.764-.131,1.531-1.032,1.549-1,.02-1.141-.766-1.067-1.6C-601.593,344.865-601.612,344.6-601.612,344.063Z" transform="translate(-575.075 824.6)" fill="#915aad"/>
    <path id="Path_302412" data-name="Path 302412" d="M-596.572,307.763c.558-1.9,1.18-4.058,1.825-6.206a19.979,19.979,0,0,1,.71-1.991.957.957,0,0,1,1.268-.639.96.96,0,0,1,.641,1.364q-1.352,3.936-2.39,7.968a.993.993,0,0,1-1.262.847C-596.35,309-596.547,308.576-596.572,307.763Z" transform="translate(-577.861 845.126)" fill="#915aad"/>
    <path id="Path_302413" data-name="Path 302413" d="M-555.583,235.4a1.308,1.308,0,0,1-.5,1.028c-1.788,1.879-3.511,3.818-5.127,5.848-.465.584-1.022.93-1.682.4s-.409-1.136.058-1.719c1.651-2.06,3.4-4.03,5.224-5.938.368-.385.769-.766,1.375-.516A.937.937,0,0,1-555.583,235.4Z" transform="translate(-596.178 880.601)" fill="#915aad"/>
    <path id="Path_302414" data-name="Path 302414" d="M-242.618,372.915c-.321,2.491-.637,4.983-.966,7.473-.1.721-.378,1.331-1.256,1.18s-.875-.8-.783-1.531q.456-3.607.838-7.224c.081-.774.071-1.634,1.126-1.586S-242.634,372.125-242.618,372.915Z" transform="translate(-771.032 805.29)" fill="#915aac"/>
    <path id="Path_302415" data-name="Path 302415" d="M-249.815,306.151c0,.723-.286,1.1-.815,1.222a.869.869,0,0,1-1.086-.547q-1.357-4.211-2.623-8.452a.824.824,0,0,1,.657-1.008.894.894,0,0,1,1.159.385A56.758,56.758,0,0,1-249.815,306.151Z" transform="translate(-766.239 845.982)" fill="#915aad"/>
    <path id="Path_302416" data-name="Path 302416" d="M-269.985,263.725c.517,0,.771.357,1.011.741q2.071,3.309,3.845,6.786c.341.671.438,1.322-.321,1.7s-1.226-.1-1.557-.769c-1.14-2.291-2.414-4.507-3.772-6.674a1.192,1.192,0,0,1-.116-1.362A.915.915,0,0,1-269.985,263.725Z" transform="translate(-757.051 864.47)" fill="#915aac"/>
    <path id="Path_302417" data-name="Path 302417" d="M-293.367,234.288c.451-.02.714.288,1,.57a75.386,75.386,0,0,1,5.084,5.742c.444.545.835,1.159.156,1.73s-1.281.222-1.787-.415a69.309,69.309,0,0,0-4.984-5.652c-.4-.4-.681-.829-.415-1.408A.89.89,0,0,1-293.367,234.288Z" transform="translate(-744.191 880.675)" fill="#9059ab"/>
    <path id="Path_302418" data-name="Path 302418" d="M-242.213,341.14c0,.674,0,1.247,0,1.821a.987.987,0,0,1-.907,1.108.93.93,0,0,1-1.073-.925q-.413-4.21-.779-8.425a.936.936,0,0,1,.9-1.1c.771-.06,1.087.521,1.166,1.178C-242.653,336.939-242.436,339.087-242.213,341.14Z" transform="translate(-771.41 825.995)" fill="#915aad"/>
    <path id="Path_302419" data-name="Path 302419" d="M-525.045,532.505l.307.074c-.046.413-.361.451-.676.477-.44.035-.882.019-1.323.019q-33.026,0-66.051-.006a3.448,3.448,0,0,1-1.941-.222c-.529-.121-1.124.136-1.6-.278l.3-.072a4.07,4.07,0,0,1,1.315-.076q34.177-.005,68.354,0A3.649,3.649,0,0,1-525.045,532.505Z" transform="translate(-577.993 716.562)" fill="#c9a9d5"/>
    <path id="Path_302420" data-name="Path 302420" d="M-592.768,533.043c.617-.012,1.235-.034,1.852-.034q33.241,0,66.481-.01c.554,0,1.153.188,1.659-.224a.407.407,0,0,1,.255.012c.159.341.291.673-.273.751a3.109,3.109,0,0,0-1.559-.13q-33.426-.012-66.852-.013a3.311,3.311,0,0,1-1.562-.122Z" transform="translate(-579.955 716.366)" fill="#fefefa"/>
    <path id="Path_302421" data-name="Path 302421" d="M-592.768,533.85q34.168,0,68.336.011c.547,0,1.155-.223,1.638.255q-34.168,0-68.335-.011C-591.676,534.1-592.284,534.327-592.768,533.85Z" transform="translate(-579.955 715.789)" fill="#f7fcfe"/>
    <path id="Path_302422" data-name="Path 302422" d="M-602.3,411.26c.418.4.245.914.245,1.378q.013,24.466,0,48.931c0,.463.176.981-.256,1.372-.031-.438-.088-.876-.088-1.313q-.007-24.462,0-48.923C-602.4,412.223-602.334,411.741-602.3,411.26Z" transform="translate(-574.651 783.25)" fill="#8850a7"/>
    <path id="Path_302423" data-name="Path 302423" d="M-603.625,413.152v50.184h-.131V413.1Z" transform="translate(-573.906 782.236)" fill="#f7fdf7"/>
    <path id="Path_302424" data-name="Path 302424" d="M-249.327,409.615c-.376,1.16-.808,2.586-1.307,3.988a.928.928,0,0,1-1.214.521.854.854,0,0,1-.687-1.1c.38-1.4.819-2.776,1.273-4.149a.918.918,0,0,1,1.166-.61C-249.523,408.382-249.331,408.792-249.327,409.615Z" transform="translate(-767.229 784.917)" fill="#915bad"/>
    <path id="Path_302425" data-name="Path 302425" d="M-535.515,220.427a1.017,1.017,0,0,1-.939-.639.873.873,0,0,1,.2-1.088c1.112-.926,2.244-1.833,3.416-2.68a.949.949,0,0,1,1.319.173.907.907,0,0,1-.005,1.317c-1.173.988-2.41,1.9-3.629,2.832A.917.917,0,0,1-535.515,220.427Z" transform="translate(-610.897 890.834)" fill="#925aae"/>
    <path id="Path_302426" data-name="Path 302426" d="M-601.038,376.05c-.086-.79-.083-1.647.92-1.719s1.122.764,1.181,1.561c.075,1.007.192,2.011.294,3.016.072.7.048,1.413-.836,1.513-.936.107-1.165-.614-1.253-1.356C-600.851,378.063-600.937,377.055-601.038,376.05Z" transform="translate(-575.384 803.582)" fill="#915cad"/>
    <path id="Path_302427" data-name="Path 302427" d="M-310.25,219.3a.987.987,0,0,1-1.588.905c-1.147-.8-2.227-1.7-3.311-2.593a.877.877,0,0,1-.253-1.177.9.9,0,0,1,1.215-.5,15.519,15.519,0,0,1,3.811,2.97C-310.269,219.017-310.271,219.231-310.25,219.3Z" transform="translate(-732.572 890.825)" fill="#905aab"/>
    <path id="Path_302428" data-name="Path 302428" d="M-430.162,211.97c.512.351.305.885.306,1.339q.017,18.4,0,36.8c0,.449.222.991-.328,1.32.024-.925.07-1.85.07-2.775q-.01-14.9-.033-29.794Q-430.155,215.418-430.162,211.97Z" transform="translate(-669.455 892.958)" fill="#9b65a9"/>
    <path id="Path_302429" data-name="Path 302429" d="M-426.072,211.966l.294.016q0,.523,0,1.046a18.383,18.383,0,0,1,0,4.218q0,.788.01,1.575c0,.1-.006.2-.009.307a1.969,1.969,0,0,1,.1.913q0,15.165,0,30.33a2.183,2.183,0,0,1-.073.787,1.1,1.1,0,0,0,.007.255l-.334-.232a2.213,2.213,0,0,1-.117-1.166q0-18.443,0-36.885A2,2,0,0,1-426.072,211.966Z" transform="translate(-671.636 892.96)" fill="#b27bad"/>
    <path id="Path_302430" data-name="Path 302430" d="M-426.96,207.744c-.289.39-.714.283-1.1.283q-13.709.007-27.418,0c-.211,0-.423-.032-.779-.06a2.779,2.779,0,0,1,1.545-.185q12.715-.014,25.431-.009c.529,0,1.058-.031,1.587-.048Z" transform="translate(-655.104 895.294)" fill="#864fa9"/>
    <path id="Path_302431" data-name="Path 302431" d="M-431.016,510.468c-.37-.416-.209-.922-.211-1.388-.013-3.949-.007-7.9-.006-11.848.076-.116.155-.125.238-.008l.1-.018q-.016,5.847-.036,11.693C-430.93,509.422-430.985,509.945-431.016,510.468Z" transform="translate(-668.863 735.974)" fill="#8853a7"/>
    <path id="Path_302432" data-name="Path 302432" d="M-278.454,537.012a22.189,22.189,0,0,1,7.134.015A27.947,27.947,0,0,1-278.454,537.012Z" transform="translate(-752.982 714.18)" fill="#884fa8"/>
    <path id="Path_302433" data-name="Path 302433" d="M-296.5,430.629v9.036c-.12-3.172-.579-6.348-.056-9.513Z" transform="translate(-742.881 772.851)" fill="#8b4fa4"/>
    <path id="Path_302434" data-name="Path 302434" d="M-375.759,537.02a16.2,16.2,0,0,1,6.351.014A23.643,23.643,0,0,1-375.759,537.02Z" transform="translate(-699.416 714.19)" fill="#874fa6"/>
    <path id="Path_302435" data-name="Path 302435" d="M-409.068,508.55a7.225,7.225,0,0,1,0,4.237A10.533,10.533,0,0,1-409.068,508.55Z" transform="translate(-680.952 729.693)" fill="#894fa6"/>
    <path id="Path_302436" data-name="Path 302436" d="M-487.725,324.925a12.619,12.619,0,0,1-12.789,12.734,12.6,12.6,0,0,1-12.68-12.7,12.707,12.707,0,0,1,12.642-12.774A12.727,12.727,0,0,1-487.725,324.925Z" transform="translate(-623.76 837.79)" fill="#905aac"/>
    <path id="Path_302437" data-name="Path 302437" d="M-365.509,336.949a9.563,9.563,0,0,1-9.674-9.619,9.78,9.78,0,0,1,9.648-9.746,9.694,9.694,0,0,1,9.712,9.787A9.487,9.487,0,0,1-365.509,336.949Z" transform="translate(-699.733 834.818)" fill="#905aac"/>
    <path id="Path_302438" data-name="Path 302438" d="M-356.206,263.1a9.5,9.5,0,0,1-10.1,9.317,9.494,9.494,0,0,1-9.2-10c.312-6.017,4.875-9.754,10.879-9.287A9.528,9.528,0,0,1-356.206,263.1Z" transform="translate(-699.552 870.321)" fill="#915aac"/>
    <path id="Path_302439" data-name="Path 302439" d="M-397.533,459.371c.209-.076.079.93.47.164.2-.392-.151-.965.372-1.332.342.683-.2,1.4.107,2.32.4-.673.514-1.347,1.207-1.442a13.651,13.651,0,0,1,3.122,3.014c-.56.458-.227,1.309-.779,1.77-1.128.166-1.723-.7-2.428-1.3-1.073-.914-1.394-.9-2.369.126a22.9,22.9,0,0,0-5.762,11.769c-.058.3-.058.619-.36.807-.726-1.83.013-3.6.38-5.339a8.347,8.347,0,0,1,.882-1.4c.43-.674-.289-1.142-1.038-1.254A19.972,19.972,0,0,1-397.533,459.371Z" transform="translate(-683.726 757.409)" fill="#905aaa"/>
    <path id="Path_302440" data-name="Path 302440" d="M-448.381,303.747c0,.089,0,.179,0,.268q-19.323,0-38.647-.005c-.466,0-.98.163-1.384-.242l.292-.052a2.511,2.511,0,0,1,1.044-.089q18.762,0,37.525,0A2.193,2.193,0,0,1-448.381,303.747Z" transform="translate(-637.404 842.512)" fill="#d39ba5"/>
    <path id="Path_302441" data-name="Path 302441" d="M-431,449.962c-.08,0-.159.008-.238.008q0-18.649.006-37.3c0-.466-.168-.978.224-1.388.022.484.064.968.065,1.452q.005,17.886,0,35.771C-430.941,448.993-430.978,449.477-431,449.962Z" transform="translate(-668.861 783.237)" fill="#8c53ae"/>
    <path id="Path_302442" data-name="Path 302442" d="M-484.272,305.341c.39-.433.908-.258,1.371-.258q16.652-.014,33.306,0c.463,0,.98-.175,1.371.258a2.087,2.087,0,0,1-1.164.124q-16.859.009-33.719,0A2.1,2.1,0,0,1-484.272,305.341Z" transform="translate(-639.681 841.719)" fill="#fac5a7"/>
    <path id="Path_302443" data-name="Path 302443" d="M-484.272,305.7h36.048c-.391.432-.908.257-1.371.258q-16.653.015-33.305,0C-483.364,305.956-483.881,306.131-484.272,305.7Z" transform="translate(-639.681 841.361)" fill="#fcc79b"/>
    <path id="Path_302444" data-name="Path 302444" d="M-431.19,259.8V228.234h.133v31.59Z" transform="translate(-668.902 884.005)" fill="#fec99b"/>
    <path id="Path_302445" data-name="Path 302445" d="M-425.248,259.926c-.018-4.985-.049-9.97-.052-14.955,0-5.691.018-11.383.028-17.075.371.364.227.831.228,1.255q.011,14.754,0,29.508C-425.045,259.086-424.9,259.55-425.248,259.926Z" transform="translate(-672.144 884.19)" fill="#fdce9e"/>
    <path id="Path_302446" data-name="Path 302446" d="M-319.658,373.963c-.365.372-.833.224-1.257.224q-12.653.013-25.306,0c-.423,0-.895.146-1.245-.253l.462-.032a2.2,2.2,0,0,1,1.043-.1q12.52-.005,25.041,0a1.884,1.884,0,0,1,1.037.118A.341.341,0,0,1-319.658,373.963Z" transform="translate(-714.991 803.878)" fill="#8b56a8"/>
    <path id="Path_302447" data-name="Path 302447" d="M-319.318,373.772l-27.12-.018a2.18,2.18,0,0,1,1.406-.221q12.159-.011,24.318,0A1.977,1.977,0,0,1-319.318,373.772Z" transform="translate(-715.557 804.027)" fill="#915aac"/>
    <path id="Path_302448" data-name="Path 302448" d="M-342.49,412.7l-.834-.071c.123-.3.353-.213.515-.213q9.388-.008,18.775,0c.383,0,.806-.111,1.108.258Z" transform="translate(-717.271 782.621)" fill="#8b54ad"/>
    <path id="Path_302449" data-name="Path 302449" d="M-323.045,418.3c-.211.291-.524.278-.832.278h-9.217c-.308,0-.621.012-.832-.278Z" transform="translate(-722.444 779.378)" fill="#8b50b2"/>
    <path id="Path_302450" data-name="Path 302450" d="M-545.873,387.7c.507,1.407.128,2.862.218,4.292.061.964.027,1.936,0,2.9-.007.27.151.84-.508.5.423-1.546.09-3.122.184-4.681C-545.918,389.708-545.906,388.7-545.873,387.7Z" transform="translate(-605.611 796.221)" fill="#8852af"/>
    <path id="Path_302451" data-name="Path 302451" d="M-403.511,479.077a2.277,2.277,0,0,1,.407,1.614c-.592-.565-.35-1.046-.461-1.431A.243.243,0,0,1-403.511,479.077Z" transform="translate(-684.108 745.918)" fill="#905aaa"/>
    <path id="Path_302452" data-name="Path 302452" d="M-405.588,484.259a1.443,1.443,0,0,1,.221,1.179l-.437-.592A.651.651,0,0,1-405.588,484.259Z" transform="translate(-682.875 743.065)" fill="#905aaa"/>
    <path id="Path_302453" data-name="Path 302453" d="M-524.68,417.04c-3,5.945-6.039,11.869-8.979,17.843-2.616,5.314-6.866,7.834-12.725,7.85-.9,0-1.115-.249-1.009-1.137a14.485,14.485,0,0,0-12.651-16.237,14.63,14.63,0,0,0-16.241,12.259,13.3,13.3,0,0,0-.031,3.963c.153,1.031-.277,1.194-1.156,1.136a13.024,13.024,0,0,1-11.59-7.737q-4.081-8.316-8.284-16.573a5.865,5.865,0,0,1-.722-3.022c.055-1.234.009-2.472.014-3.708.007-1.93.425-2.357,2.306-2.357q17.285,0,34.571.006,17.021,0,34.042-.006a2.69,2.69,0,0,1,2.2.628.933.933,0,0,1,.374.675A44.316,44.316,0,0,1-524.68,417.04Z" transform="translate(-577.034 784.318)" fill="#fefefe"/>
    <path id="Path_302454" data-name="Path 302454" d="M-525.958,478.285l-69.257-.017c-2.5,0-2.822-.323-2.821-2.8V437.453c.488-.094.472.325.588.556q3.286,6.568,6.551,13.147c2.879,5.8,7.5,8.867,14.022,8.846a1.753,1.753,0,0,1,1.83,1.239c2.4,4.867,6.23,7.763,11.719,8.287a21.8,21.8,0,0,1,3.169-.011,13.7,13.7,0,0,0,11.376-7.934A2.382,2.382,0,0,1-546.219,460c6.785.135,11.563-2.986,14.5-9.088,2.063-4.287,4.24-8.519,6.372-12.772.174-.346.267-.762.685-.933a7.706,7.706,0,0,1,.291,2.33q0,17.935,0,35.87c0,.516.124,1.07-.274,1.521a3.261,3.261,0,0,1-1.068,1.292Q-525.766,478.513-525.958,478.285Z" transform="translate(-577.055 768.968)" fill="#fefefe"/>
    <path id="Path_302455" data-name="Path 302455" d="M-532.9,449.441a12.374,12.374,0,0,1,12.544,12.613,12.544,12.544,0,0,1-12.587,12.361,12.672,12.672,0,0,1-12.587-12.673A12.516,12.516,0,0,1-532.9,449.441Z" transform="translate(-605.957 762.232)" fill="#fe9753"/>
    <path id="Path_302456" data-name="Path 302456" d="M-519.268,388.07l.256.245a34.082,34.082,0,0,1,.034,6.885c-.861.508-1.8.174-2.7.233-.5.033-.521-.37-.525-.737,0-.572.016-1.145-.009-1.717a2.3,2.3,0,0,0-2.437-2.5q-5.679-.064-11.359,0a2.2,2.2,0,0,0-2.294,2.366,5.986,5.986,0,0,0,.007,1.187c.2,1.193-.3,1.509-1.455,1.449-1.746-.092-1.8-.021-1.736-1.8.071-1.874-.311-3.77.245-5.622a.766.766,0,0,1,.475-.135c6.85.009,13.7.083,20.55-.04A1.485,1.485,0,0,1-519.268,388.07Z" transform="translate(-608.152 796.123)" fill="#98f5fd"/>
    <path id="Path_302457" data-name="Path 302457" d="M-523.837,400.916c-1.588,0-3.179-.069-4.762.023-1.12.065-1.209-.493-1.171-1.358.034-.77-.1-1.442,1.105-1.414q4.892.117,9.789,0c1.211-.029,1.063.657,1.1,1.419.039.859-.038,1.422-1.166,1.355C-520.57,400.845-522.205,400.917-523.837,400.916Z" transform="translate(-614.631 790.459)" fill="#fcc7a3"/>
    <path id="Path_302458" data-name="Path 302458" d="M-524.342,408.637h-70.591v-.129h70.648Z" transform="translate(-578.763 784.765)" fill="#8b4da7"/>
    <path id="Path_302459" data-name="Path 302459" d="M-524.672,532.32c-.75.014-1.5.039-2.249.039q-33.639,0-67.279,0c-.485,0-.97-.031-1.454-.048.419-.374.929-.208,1.4-.208q34.1-.013,68.194,0C-525.6,532.1-525.085,531.933-524.672,532.32Z" transform="translate(-578.366 716.748)" fill="#864fa8"/>
    <path id="Path_302460" data-name="Path 302460" d="M-522.937,528.511a.462.462,0,0,1,.241-.066c-.018.282-.093.538-.426.565-.351.029-.7.03-1.058.03q-33.52,0-67.04,0c-.386,0-.773-.034-1.328-.059a2.913,2.913,0,0,1,1.594-.2q33.189-.011,66.378-.017C-524.029,528.766-523.42,528.989-522.937,528.511Z" transform="translate(-580.076 718.741)" fill="#9258a4"/>
    <path id="Path_302461" data-name="Path 302461" d="M-434.792,476.927q-.007-19.86-.013-39.721c.428.26.252.688.294,1.056a2.1,2.1,0,0,1,.124,1.164q.008,18.184,0,36.369a2.1,2.1,0,0,1-.124,1.164c.011.143.222.366.006.409C-434.776,477.423-434.742,477.111-434.792,476.927Z" transform="translate(-666.912 768.968)" fill="#8951ac"/>
    <path id="Path_302462" data-name="Path 302462" d="M-434.151,478.252q0-19.349,0-38.7c.432.391.257.908.258,1.371q.014,17.977,0,35.954C-433.894,477.344-433.719,477.862-434.151,478.252Z" transform="translate(-667.272 767.674)" fill="#9658aa"/>
    <path id="Path_302463" data-name="Path 302463" d="M-540.592,387.8l-.276-.024c0-.082-.005-.164,0-.246a1,1,0,0,1,.753-.152q10.026,0,20.051,0a1.334,1.334,0,0,1,.643.1c.217.037.433.075.528.316h-.788a2.2,2.2,0,0,1-1.043.1q-9.409.006-18.819,0A2.336,2.336,0,0,1-540.592,387.8Z" transform="translate(-608.523 796.402)" fill="#8da9d1"/>
    <path id="Path_302464" data-name="Path 302464" d="M-519.424,387.3l-21.447.051c.28-.4.707-.286,1.086-.286q9.688-.009,19.378,0C-520.065,387.062-519.694,386.98-519.424,387.3Z" transform="translate(-608.524 796.579)" fill="#934ea3"/>
    <path id="Path_302465" data-name="Path 302465" d="M-529.614,394.317h11.552v.1h-11.552Z" transform="translate(-614.721 792.577)" fill="#934fa9"/>
    <path id="Path_302466" data-name="Path 302466" d="M-517.415,405.032h-11.018v-.13h11.06Z" transform="translate(-615.371 786.75)" fill="#8a52ae"/>
    <path id="Path_302467" data-name="Path 302467" d="M-435.108,417.735c-.175-2.36.26-4.743-.254-7.091.612-.239.528.276.53.553.02,2.152.009,4.3.005,6.455,0,.034-.035.1-.058.1A1.258,1.258,0,0,1-435.108,417.735Z" transform="translate(-666.605 783.624)" fill="#8951ab"/>
    <path id="Path_302468" data-name="Path 302468" d="M-491.381,395.736q-.017-3.442-.034-6.884c.526.454.309,1.071.276,1.6C-491.251,392.211-490.788,394-491.381,395.736Z" transform="translate(-635.749 795.586)" fill="#8d52a2"/>
    <path id="Path_302469" data-name="Path 302469" d="M-517.652,508.731a6.867,6.867,0,0,1-3.169.011A4.358,4.358,0,0,1-517.652,508.731Z" transform="translate(-619.561 729.755)" fill="#8550a7"/>
    <path id="Path_302470" data-name="Path 302470" d="M-404.2,478.817a21.563,21.563,0,0,1,6.257-13.143c.784-.781,1.39-1.171,2.243-.028a5.364,5.364,0,0,0,2.42,1.771l.514.275c.521.691.121,1.511.316,2.248a.364.364,0,0,1-.041.394c.011.131-.03.317.042.385,1.6,1.52.83,3.343.624,5.067-.386,3.239-.822,6.472-1.276,9.7a2.8,2.8,0,0,0,1.146,2.764c3.023,2.491,4.633,2.379,7.247-.577a2.346,2.346,0,0,0,.619-1.95c-.556-4.106-1.1-8.214-1.677-12.318a2.207,2.207,0,0,1,.448-2.076,2.753,2.753,0,0,0,.534-2.255,1.422,1.422,0,0,1,.921-1.665,6.545,6.545,0,0,0,2.662-2.135c.675-.934,1.164-.7,1.852-.062a20.545,20.545,0,0,1,6.479,11.989c.5,2.922.549,5.88.8,8.822.309,3.6-1.435,5.858-4.486,7.349a22.72,22.72,0,0,1-8.307,2.011,34.7,34.7,0,0,1-13.357-1.2,12.593,12.593,0,0,1-3.876-1.962A5.949,5.949,0,0,1-404.7,487C-404.561,484.271-404.366,481.544-404.2,478.817Z" transform="translate(-683.482 753.858)" fill="#fefefe"/>
    <path id="Path_302471" data-name="Path 302471" d="M-382.788,447.37a11.221,11.221,0,0,1-3.123-3.014,8.973,8.973,0,0,1-.469-7.789,7.768,7.768,0,0,1,7.247-5.11A7.616,7.616,0,0,1-371.6,436.3a8.3,8.3,0,0,1-1.244,9.172A7.847,7.847,0,0,1-382.788,447.37Z" transform="translate(-693.192 772.134)" fill="#fefefe"/>
    <path id="Path_302472" data-name="Path 302472" d="M-369.386,495.456c-.228,1.045-1.41,1.371-2.206,2.041-.581.489-.915-.229-1.341-.463A2.5,2.5,0,0,1-374.24,494c.611-3.593.982-7.226,1.461-10.842.076-.57.147-1.144,1-1.076.8.064.7.635.768,1.14q.755,5.617,1.511,11.233C-369.465,494.719-369.44,494.982-369.386,495.456Z" transform="translate(-700.21 744.266)" fill="#98f6fe"/>
    <path id="Path_302473" data-name="Path 302473" d="M-370,473.028c.483.066.494.419.485.789-.013.512-.111,1.046-.657,1.178a4.214,4.214,0,0,1-2.839-.085c-.561-.266-.431-.9-.413-1.432.012-.352.267-.409.535-.456A16.533,16.533,0,0,1-370,473.028Z" transform="translate(-700.686 749.284)" fill="#98edf8"/>
    <path id="Path_302474" data-name="Path 302474" d="M-369.316,472.757a6.182,6.182,0,0,1-2.889-.005A3.8,3.8,0,0,1-369.316,472.757Z" transform="translate(-701.373 749.555)" fill="#924ea0"/>
    <path id="Path_302475" data-name="Path 302475" d="M-377.725,474.056a.158.158,0,0,1-.035-.19,5.374,5.374,0,0,1,.037-2.448A3.031,3.031,0,0,1-377.725,474.056Z" transform="translate(-698.247 750.134)" fill="#864fa6"/>
    <path id="Path_302476" data-name="Path 302476" d="M-377.865,471.245q-.019,1.223-.037,2.448c-.374-.788-.032-1.646-.239-2.451C-378.047,471.05-377.955,471.066-377.865,471.245Z" transform="translate(-698.105 750.307)" fill="#905aaa"/>
    <path id="Path_302477" data-name="Path 302477" d="M-301.459,467.888l.218-.277a13.8,13.8,0,0,0,2.151-1.717,1.2,1.2,0,0,1,1.59-.357c4.4,4.152,9.682,3.693,13.161,1.113a6.176,6.176,0,0,0,1.551-1.422c.658-1.006,1.15-.693,1.839-.061a21.07,21.07,0,0,1,6.767,13.956c.244,2.457.358,4.926.531,7.389a6.343,6.343,0,0,1-3.131,6.02,17.079,17.079,0,0,1-7.318,2.517c-5.567.769-11.085.706-16.462-1.182a10.413,10.413,0,0,1-3.837-2.285,5.1,5.1,0,0,1-1.827-3.566c-.056-5.083.137-10.149,1.84-15.02a9.064,9.064,0,0,1,1.341-2.706C-302.034,469.809-301.982,468.693-301.459,467.888Z" transform="translate(-737.689 753.898)" fill="#fefefe"/>
    <path id="Path_302478" data-name="Path 302478" d="M-272.417,439.888a8.325,8.325,0,0,1-8.1,8.418,8.249,8.249,0,0,1-8.131-8.489,8.3,8.3,0,0,1,8.073-8.435A8.347,8.347,0,0,1-272.417,439.888Z" transform="translate(-747.369 772.174)" fill="#fefefe"/>
    <path id="Path_302479" data-name="Path 302479" d="M-291.384,465.785c-1.323-.022-1.886,1.192-2.818,1.8-.334.217-.494.537-.922.276a13.323,13.323,0,0,1,2.078-2.337C-292.336,464.777-291.81,464.886-291.384,465.785Z" transform="translate(-743.805 753.651)" fill="#f9f8f8"/>
    <path id="Path_302480" data-name="Path 302480" d="M-297.553,471.939c.307.432-.059.7-.226,1.041-.258.523-.686,1.014-.324,1.725l-1.038-.364A7.669,7.669,0,0,1-297.553,471.939Z" transform="translate(-741.594 749.847)" fill="#f9f8f8"/>
    <path id="Path_302481" data-name="Path 302481" d="M-426.26,211.44q-.005,19.607-.011,39.213c-.449-.441-.248-1-.249-1.509q-.019-14.428-.009-28.855c0-2.728,0-5.456,0-8.184a1.818,1.818,0,0,1,.141-1.008c.182-.237.177.075.161.216A.73.73,0,0,1-426.26,211.44Z" transform="translate(-671.449 893.486)" fill="#8c55ad"/>
    <path id="Path_302482" data-name="Path 302482" d="M-448.025,303.564l-39.735-.031c.413-.391.926-.219,1.392-.22q18.483-.015,36.965,0C-448.938,303.313-448.42,303.139-448.025,303.564Z" transform="translate(-637.761 842.695)" fill="#8952ae"/>
    <ellipse id="Ellipse_4363" data-name="Ellipse 4363" cx="19.551" cy="0.166" rx="19.551" ry="0.166" transform="translate(-1112.426 1163.098)" fill="#8b56a8"/>
    <path id="Path_302483" data-name="Path 302483" d="M-447.686,338.734h21.523c-.3.358-.572.254-.812.254q-9.8.009-19.6,0c-.383,0-.806.116-1.113-.25Z" transform="translate(-659.817 823.175)" fill="#8b54ae"/>
    <path id="Path_302484" data-name="Path 302484" d="M-397.509,317.871V302.94h.133V317.93Z" transform="translate(-687.443 842.88)" fill="#8e5ba4"/>
    <path id="Path_302485" data-name="Path 302485" d="M-398.685,318.852V304.717h.131V318.9Z" transform="translate(-686.796 841.902)" fill="#8a51af"/>
    <path id="Path_302486" data-name="Path 302486" d="M-398.614,286.238V276.25h.131v10Z" transform="translate(-686.835 857.572)" fill="#8b51af"/>
    <path id="Path_302487" data-name="Path 302487" d="M-352.044,391.88a8.921,8.921,0,0,0-5.507,1.9c-1.094.8-2.127,1.692-3.176,2.533-.117-.089-.24-.139-.24-.19a92.454,92.454,0,0,1,.121-11.339,7.4,7.4,0,0,1,5.474-6.447,3.348,3.348,0,0,0,.458-.232c.057-.106.127-.121.213-.032l.79-.022a1.506,1.506,0,0,1,.736-.089c8.162.067,16.324-.093,24.486.088a.857.857,0,0,1,.5-.006,4.2,4.2,0,0,1,3.733,3.463,1.865,1.865,0,0,1,.208,1.323,47.086,47.086,0,0,0-.152,5.106q-.013.111-.027.221c-.371,2.156-1.853,3.165-3.807,3.686a2.421,2.421,0,0,1-1.416.142c-6.644.011-13.288.021-19.932-.01C-350.4,391.971-351.245,392.366-352.044,391.88Z" transform="translate(-707.494 801.582)" fill="#fe9753"/>
    <path id="Path_302488" data-name="Path 302488" d="M-340.972,408.883l23.806-.037h1.3l0,.285h-1.269q-10.255,0-20.509.005a5.849,5.849,0,0,0-2.222.191A.814.814,0,0,1-340.972,408.883Z" transform="translate(-718.566 784.579)" fill="#8858b1"/>
    <path id="Path_302489" data-name="Path 302489" d="M-319.407,377.7l-.286.073a1.322,1.322,0,0,1-.516.092h-23.842a1.359,1.359,0,0,1-.517-.089l-.556-.068.537-.239a1.5,1.5,0,0,1,.9-.124q11.024,0,22.048,0a1.542,1.542,0,0,1,.9.12C-320.294,377.538-319.8,377.322-319.407,377.7Z" transform="translate(-716.281 801.926)" fill="#b36d91"/>
    <path id="Path_302490" data-name="Path 302490" d="M-320.082,377.284l-23.848,0c.346-.4.816-.257,1.237-.257q10.686-.012,21.372,0C-320.9,377.031-320.43,376.884-320.082,377.284Z" transform="translate(-716.938 802.108)" fill="#8955b3"/>
    <path id="Path_302491" data-name="Path 302491" d="M-279.472,385.9c.6,1.428.191,2.921.251,4.382.031.737.458,1.566-.24,2.241-.553-1.625-.21-3.3-.2-4.943A4.031,4.031,0,0,1-279.472,385.9Z" transform="translate(-752.254 797.21)" fill="#8553b2"/>
    <path id="Path_302492" data-name="Path 302492" d="M-279.593,385.875q.005,3.311.011,6.623c-.07,0-.14,0-.21.005l-.1-.017a31.1,31.1,0,0,1,.024-5.272l.05-1.361A1.684,1.684,0,0,0-279.593,385.875Z" transform="translate(-752.133 797.237)" fill="#c67884"/>
    <path id="Path_302493" data-name="Path 302493" d="M-347.818,377.592a.443.443,0,0,1-.213.032l-.552-.055C-348.3,377.483-348.019,376.508-347.818,377.592Z" transform="translate(-714.376 802.064)" fill="#8955b3"/>
    <path id="Path_302494" data-name="Path 302494" d="M-357.505,195.113a10.637,10.637,0,0,1-10.573,10.646,10.657,10.657,0,0,1-10.71-10.657A10.7,10.7,0,0,1-368,184.369,10.674,10.674,0,0,1-357.505,195.113Z" transform="translate(-697.749 908.152)" fill="#98f6fe"/>
    <path id="Path_302495" data-name="Path 302495" d="M-338.792,425.177c.606-2.275,1.17-2.694,3.634-2.694,2.822,0,5.643-.012,8.465,0a4.883,4.883,0,0,1,5.1,5.061c.028,2.108.005,4.216.005,6.33-.158,0-.276.036-.317-.005a10.558,10.558,0,0,0-8.719-2.915c-1.579.113-3.173.02-4.76.019-2.261,0-2.734-.346-3.409-2.476A7.282,7.282,0,0,1-338.792,425.177Z" transform="translate(-719.661 777.075)" fill="#98f6fe"/>
    <path id="Path_302496" data-name="Path 302496" d="M-338.791,427.8q0,1.661,0,3.323-.038.258-.077.516l-.116,0v-4.4C-338.729,427.362-338.869,427.621-338.791,427.8Z" transform="translate(-719.662 774.45)" fill="#8f4fa1"/>
    <path id="Path_302497" data-name="Path 302497" d="M-496.855,207.949a7.571,7.571,0,0,1-7.6-7.683,7.732,7.732,0,0,1,7.678-7.661,7.791,7.791,0,0,1,7.626,7.605A7.636,7.636,0,0,1-496.855,207.949Z" transform="translate(-628.57 903.618)" fill="#fdfdfd"/>
    <path id="Path_302498" data-name="Path 302498" d="M-504.456,253.163a7.612,7.612,0,0,1,7.66-7.641,7.708,7.708,0,0,1,7.662,7.679,7.79,7.79,0,0,1-7.707,7.676A7.67,7.67,0,0,1-504.456,253.163Z" transform="translate(-628.57 874.488)" fill="#fdfdfd"/>
    <path id="Path_302499" data-name="Path 302499" d="M-487.37,327.417A10.457,10.457,0,0,1-497.912,338.2a10.56,10.56,0,0,1-10.873-10.658,10.593,10.593,0,0,1,10.743-10.75A10.506,10.506,0,0,1-487.37,327.417Z" transform="translate(-626.187 835.251)" fill="#fe9753"/>
    <path id="Path_302500" data-name="Path 302500" d="M-370.607,329.857a7.634,7.634,0,0,1,7.647-7.66,7.706,7.706,0,0,1,7.668,7.673,7.766,7.766,0,0,1-7.685,7.675A7.653,7.653,0,0,1-370.607,329.857Z" transform="translate(-702.252 832.279)" fill="#fdfdfd"/>
    <path id="Path_302501" data-name="Path 302501" d="M-363.351,272.777a7.725,7.725,0,0,1-7.687-7.658,7.746,7.746,0,0,1,7.664-7.694,7.753,7.753,0,0,1,7.683,7.674A7.71,7.71,0,0,1-363.351,272.777Z" transform="translate(-702.015 867.935)" fill="#fdfdfd"/>
    <path id="Path_302502" data-name="Path 302502" d="M-525.179,468.573a6,6,0,0,1,0-.661c.137-1.225-.022-2.043-1.5-2.536a3.921,3.921,0,0,1-2.753-3.966,4.285,4.285,0,0,1,2.892-3.912c.666-.3,1.3-.473,1.664-1.27a.88.88,0,0,1,1.641.143c.2.8.739.873,1.288,1.091a4.568,4.568,0,0,1,2.957,3.3c.183.758.1,1.5-.785,1.678-.841.168-1.158-.447-1.206-1.2a1.778,1.778,0,0,0-.421-.952c-.357-.481-.886-.986-1.394-.864-.623.15-.208.9-.3,1.378-.042.212.021.444-.012.659-.248,1.629.083,2.683,1.941,3.294a3.926,3.926,0,0,1,2.631,4.3c-.145,2.19-1.533,3.366-3.407,4.117a2.106,2.106,0,0,0-1.386,1.017.818.818,0,0,1-1.554,0,1.853,1.853,0,0,0-1.383-1.03,4.846,4.846,0,0,1-3.4-3.564c-.163-.669-.3-1.5.656-1.75s1.213.444,1.357,1.2a2.542,2.542,0,0,0,.177.631c.384.8,1.034,1.6,1.856,1.471.918-.142.274-1.172.431-1.789A3.316,3.316,0,0,0-525.179,468.573Z" transform="translate(-614.628 758.771)" fill="#9159ac"/>
    <path id="Path_302503" data-name="Path 302503" d="M-540.249,388.313l20.907-.006c-.315.352-.737.236-1.12.236q-9.332.009-18.664,0C-539.51,388.543-539.931,388.659-540.249,388.313Z" transform="translate(-608.866 795.886)" fill="#9cfdfe"/>
    <path id="Path_302504" data-name="Path 302504" d="M-305.007,389.795a3.26,3.26,0,0,1,3.212-3.321,3.31,3.31,0,0,1,3.337,3.232A3.444,3.444,0,0,1-301.786,393,3.318,3.318,0,0,1-305.007,389.795Z" transform="translate(-738.364 796.895)" fill="#905aac"/>
    <path id="Path_302505" data-name="Path 302505" d="M-320.08,389.723A3.309,3.309,0,0,1-323.49,393a3.45,3.45,0,0,1-3.115-3.077,3.255,3.255,0,0,1,3.231-3.446A3.264,3.264,0,0,1-320.08,389.723Z" transform="translate(-726.474 796.894)" fill="#9159ad"/>
    <path id="Path_302506" data-name="Path 302506" d="M-341.663,389.756a3.131,3.131,0,0,1-3.156,3.208,3.221,3.221,0,0,1-3.266-3.271,3.25,3.25,0,0,1,3.336-3.216A3.126,3.126,0,0,1-341.663,389.756Z" transform="translate(-714.65 796.893)" fill="#915aac"/>
    <path id="Path_302507" data-name="Path 302507" d="M-343.888,378.313l24.875,0c-.322.339-.742.223-1.125.224q-11.312.008-22.624,0C-343.145,378.533-343.565,378.649-343.888,378.313Z" transform="translate(-716.961 801.389)" fill="#fe994a"/>
    <path id="Path_302508" data-name="Path 302508" d="M-280.073,388.88q-.011,2.636-.024,5.272A12.684,12.684,0,0,1-280.073,388.88Z" transform="translate(-751.932 795.57)" fill="#fe9946"/>
    <path id="Path_302509" data-name="Path 302509" d="M-363.811,206.569a2.17,2.17,0,0,1-1.607-.357c-1.082-.836-2.147-1.695-3.21-2.556a.923.923,0,0,1-.261-1.386.975.975,0,0,1,1.511-.171c.813.607,1.618,1.23,2.371,1.909.654.589,1.061.478,1.585-.2,1.755-2.269,3.57-4.492,5.361-6.732.11-.138.213-.282.325-.419.462-.565.991-.959,1.674-.365.624.543.334,1.1-.085,1.622q-3.1,3.88-6.193,7.763A2.367,2.367,0,0,1-363.811,206.569Z" transform="translate(-703.081 901.751)" fill="#8f5aac"/>
    <path id="Path_302510" data-name="Path 302510" d="M-490.117,208.783c-.443-.014-.749-.552-1.157-.936-.766-.721-1.477-1.952-2.3-2.034-.875-.087-1.51,1.3-2.295,1.988-.231.2-.434.44-.663.646a.974.974,0,0,1-1.514,0,.921.921,0,0,1,.112-1.4c.768-.792,1.53-1.59,2.337-2.34.466-.432.473-.746.011-1.18-.8-.754-1.564-1.554-2.341-2.335a.92.92,0,0,1-.124-1.4.965.965,0,0,1,1.513-.019,26,26,0,0,1,2.148,2.152c.626.743,1.054.654,1.634-.043s1.291-1.325,1.945-1.98c.5-.5,1.055-.706,1.617-.157.594.579.288,1.106-.2,1.589-.691.681-1.333,1.418-2.069,2.046-.653.556-.556.943.023,1.468.783.71,1.512,1.481,2.237,2.25a.915.915,0,0,1,.183,1.2A1.085,1.085,0,0,1-490.117,208.783Z" transform="translate(-631.943 899.873)" fill="#9059ad"/>
    <path id="Path_302511" data-name="Path 302511" d="M-488.871,253.234c-.057.594-.543.885-.886,1.274-.721.819-2.11,1.438-2.1,2.4s1.382,1.582,2.109,2.4c.175.2.378.371.549.571a.98.98,0,0,1,.018,1.427.923.923,0,0,1-1.412.007c-.625-.555-1.2-1.169-1.792-1.759-1.212-1.2-1.212-1.2-2.465.042q-.8.792-1.591,1.588c-.458.461-.978.669-1.507.173-.569-.534-.421-1.106.082-1.616.711-.722,1.4-1.465,2.157-2.143.542-.488.615-.851.028-1.367-.727-.639-1.381-1.36-2.07-2.043-.52-.515-.859-1.089-.217-1.7.575-.549,1.13-.261,1.614.223.654.654,1.365,1.263,1.951,1.973.629.761,1.074.622,1.658-.042.668-.76,1.411-1.455,2.151-2.148a.934.934,0,0,1,1.215-.132A1.092,1.092,0,0,1-488.871,253.234Z" transform="translate(-631.949 870.82)" fill="#905aab"/>
    <path id="Path_302512" data-name="Path 302512" d="M-496.8,324.4c.4-1.82,2.99-2.566,5.281-1.682,1.93.744,3.759,1.72,5.948,1.414.724-.1.94.539.944,1.166.013,2.072.011,4.143.006,6.215a1.3,1.3,0,0,1-1.035,1.348,7.089,7.089,0,0,1-5.026-.33,22.917,22.917,0,0,0-2.56-1.05c-1.158-.343-1.649.062-1.66,1.233q-.021,2.314,0,4.628a1.221,1.221,0,0,1-.586,1.234c-.555.3-.906-.089-1.276-.4a1.055,1.055,0,0,1-.116-.466c-.027-4.278-.011-8.557-.009-12.836A1.3,1.3,0,0,1-496.8,324.4Z" transform="translate(-632.731 832.197)" fill="#915aac"/>
    <path id="Path_302513" data-name="Path 302513" d="M-497.2,326.914l.049.294c.165,4.4.133,8.8.014,13.2l-.027.282-.291-.253a7.08,7.08,0,0,1-.114-2.472c-.028-3.16-.016-6.321-.006-9.481a2.563,2.563,0,0,1,.118-1.293Z" transform="translate(-632.33 829.682)" fill="#d17f76"/>
    <path id="Path_302514" data-name="Path 302514" d="M-497.932,327.527q0,6.623,0,13.247c-.2-.14-.6-.155-.548-.474.662-3.787.093-7.6.291-11.4C-498.162,328.436-498.359,327.92-497.932,327.527Z" transform="translate(-631.858 829.345)" fill="#fe9b4b"/>
    <path id="Path_302515" data-name="Path 302515" d="M-355.534,329.1c.694.453.643,1,.142,1.539a15.222,15.222,0,0,1-1.87,1.864c-1.083.821-.917,1.448.045,2.217a16.64,16.64,0,0,1,1.865,1.869.924.924,0,0,1-.009,1.411.93.93,0,0,1-1.413-.011,29.985,29.985,0,0,1-2.15-2.147c-.586-.674-1.017-.792-1.643-.035s-1.36,1.379-2.045,2.065c-.463.464-.978.638-1.511.156-.606-.547-.388-1.106.095-1.6.706-.727,1.4-1.466,2.156-2.142.543-.488.609-.845.026-1.362-.757-.671-1.433-1.432-2.156-2.142-.512-.5-.71-1.048-.145-1.6s1.119-.3,1.607.189c.717.716,1.461,1.407,2.143,2.155.457.5.771.529,1.273.025a17.287,17.287,0,0,1,2.564-2.453A8.053,8.053,0,0,0-355.534,329.1Z" transform="translate(-705.619 828.612)" fill="#915aac"/>
    <path id="Path_302516" data-name="Path 302516" d="M-345.821,329.13a.685.685,0,0,1-1.026-.009A.72.72,0,0,1-345.821,329.13Z" transform="translate(-715.332 828.583)" fill="#7f509b"/>
    <path id="Path_302517" data-name="Path 302517" d="M-356.691,273.561c-.4-.037-.691-.587-1.115-.953-.79-.682-1.395-2.036-2.291-1.987-.767.043-1.47,1.261-2.2,1.961-.159.152-.317.307-.467.468-.51.545-1.117.853-1.706.228s-.227-1.2.3-1.71c.731-.7,1.408-1.462,2.157-2.144.442-.4.4-.666-.01-1.048-.772-.722-1.5-1.488-2.253-2.235-.494-.493-.729-1.083-.19-1.624s1.129-.321,1.625.173c.656.653,1.355,1.27,1.951,1.974.571.675.991.8,1.611.039a28.7,28.7,0,0,1,2.043-2.069,1.029,1.029,0,0,1,1.53-.155c.559.519.386,1.112-.118,1.618-.746.75-1.465,1.53-2.25,2.238-.481.435-.471.715,0,1.145.811.744,1.564,1.552,2.346,2.329a1,1,0,0,1,.246,1.206C-355.66,273.4-356,273.606-356.691,273.561Z" transform="translate(-705.465 864.204)" fill="#915aad"/>
    <path id="Path_302518" data-name="Path 302518" d="M-514.994,481.593a8.479,8.479,0,0,1,.008-1.053c.057-.452-.283-1.109.226-1.314.561-.226,1.052.283,1.478.659a2.133,2.133,0,0,1,.859,2.208,2.962,2.962,0,0,1-1.815,1.96c-.477.212-.761.086-.757-.483C-514.99,482.91-514.994,482.252-514.994,481.593Z" transform="translate(-622.741 745.867)" fill="#fb9753"/>
    <path id="Path_302519" data-name="Path 302519" d="M-522.245,466.1a5.118,5.118,0,0,1,0,.788c-.061.4.256,1-.217,1.175-.447.165-.888-.231-1.243-.576a2.073,2.073,0,0,1,.507-3.493c.663-.374.975-.272.958.528C-522.256,465.046-522.247,465.573-522.245,466.1Z" transform="translate(-617.561 754.337)" fill="#fa9653"/>
    <path id="Path_302520" data-name="Path 302520" d="M-299.191,393.515c-.716-.091-1.178-.453-1.2-1.175a1.1,1.1,0,0,1,1.2-1.256,1.085,1.085,0,0,1,1.2,1.122C-297.968,392.991-298.484,393.369-299.191,393.515Z" transform="translate(-740.902 794.357)" fill="#faf8fa"/>
    <path id="Path_302521" data-name="Path 302521" d="M-319.621,392.194c-.036.782-.416,1.292-1.2,1.289a1.144,1.144,0,0,1-1.206-1.155,1.1,1.1,0,0,1,1.213-1.246A1.079,1.079,0,0,1-319.621,392.194Z" transform="translate(-728.992 794.359)" fill="#f8f5f9"/>
    <path id="Path_302522" data-name="Path 302522" d="M-341.119,392.176a1.257,1.257,0,0,1-1.234,1.3,1.12,1.12,0,0,1-1.216-1.136,1.082,1.082,0,0,1,1.059-1.26A1.206,1.206,0,0,1-341.119,392.176Z" transform="translate(-717.134 794.365)" fill="#f9f6f9"/>
    <path id="Path_302523" data-name="Path 302523" d="M-484.268,331.224c0,.088,0,.176,0,.264,0,2.258-.639,2.674-2.841,1.842-1.585-.6-3.021-1.685-4.87-1.4-.521.08-.5-.374-.5-.726-.005-.969.047-1.941-.015-2.906s.368-1.355,1.3-1.377a4.436,4.436,0,0,1,1.914.4,10.774,10.774,0,0,0,3.6,1.246c1.17.066,1.62.59,1.428,1.733A5.7,5.7,0,0,0-484.268,331.224Z" transform="translate(-635.151 829.68)" fill="#98f6fe"/>
    <path id="Path_302524" data-name="Path 302524" d="M-496.562,340.765q-.007-6.6-.015-13.2c.271.234.229.553.229.857q0,5.739,0,11.48C-496.349,340.206-496.3,340.525-496.562,340.765Z" transform="translate(-632.907 829.323)" fill="#8756b4"/>
  </g>
</svg>
