<svg id="Group_115864" data-name="Group 115864" xmlns="http://www.w3.org/2000/svg" xmlns:xlink="http://www.w3.org/1999/xlink" width="13.415" height="13.376" viewBox="0 0 13.415 13.376">
  <defs>
    <clipPath id="clip-path">
      <rect id="Rectangle_26813" data-name="Rectangle 26813" width="13.415" height="13.376" fill="none"/>
    </clipPath>
  </defs>
  <g id="Group_115863" data-name="Group 115863" clip-path="url(#clip-path)">
    <path id="Path_198806" data-name="Path 198806" d="M20.145,12.717a6.358,6.358,0,1,0-6.358-6.358c0,.028,0,.056,0,.084l6.435.019c-.116,3.451-.174,6.242-.174,6.242" transform="translate(-13.089)" fill="#d59351"/>
    <path id="Path_198807" data-name="Path 198807" d="M100.344,48.079c-.822-.329-1.17-.551-1.17-.948,0-.329.242-.677.919-.677a2.875,2.875,0,0,1,1.315.329l.261-.89a3.093,3.093,0,0,0-1.334-.319v-.9h-.793v.948a1.685,1.685,0,0,0-1.557,1.644c0,.833.564,1.292,1.454,1.648l.737,0q-.005.154-.01.306a.854.854,0,0,1,.546.752.737.737,0,0,1-.593.7c-.021.693-.04,1.336-.055,1.906h.213v-1a1.763,1.763,0,0,0,1.634-1.721c0-.861-.484-1.383-1.567-1.789" transform="translate(-93.025 -42.464)"/>
    <path id="Path_198808" data-name="Path 198808" d="M6.436,140.572c-.116,3.451-.174,6.242-.174,6.242A6.261,6.261,0,0,1,0,140.553" transform="translate(0 -133.439)" fill="#d59351"/>
    <path id="Path_198809" data-name="Path 198809" d="M107.334,105.592c0,.006,0,.012,0,.017" transform="translate(-101.901 -100.247)"/>
    <path id="Path_198810" data-name="Path 198810" d="M113.286,141.126q.005-.152.01-.306l-.737,0" transform="translate(-106.862 -133.69)"/>
    <path id="Path_198811" data-name="Path 198811" d="M84.646,171.444c.015-.559.033-1.189.054-1.867a1.517,1.517,0,0,1-.431.059,3.05,3.05,0,0,1-1.509-.425l-.261.909a3.234,3.234,0,0,0,1.566.425v.938h.58" transform="translate(-78.323 -160.645)"/>
  </g>
</svg>
