<svg xmlns="http://www.w3.org/2000/svg" width="32.844" height="32.629" viewBox="0 0 32.844 32.629">
  <g id="Group_204970" data-name="Group 204970" transform="translate(-349.499 -349.853)">
    <g id="Group_204968" data-name="Group 204968" transform="translate(4196.605 -87.011)">
      <path id="Path_302353" data-name="Path 302353" d="M158.831,303.632a2.182,2.182,0,0,0-2.571-.641l-6.117,2.524A1.93,1.93,0,0,0,148.3,304.2h-5.409a10.27,10.27,0,0,1-2.908-.518l-.031-.012-.009,0a12.373,12.373,0,0,0-3.951-.565h-2.369v-.643a1.23,1.23,0,0,0-1.229-1.229h-1.281v-.564a.369.369,0,0,0-.369-.369h-3.8a.369.369,0,0,0-.369.369v13.985a.369.369,0,0,0,.369.369h3.8a.369.369,0,0,0,.369-.369v-.74h1.281a1.23,1.23,0,0,0,1.229-1.229v-.82l10.081,2.339a3.294,3.294,0,0,0,.693.069,4.48,4.48,0,0,0,2.268-.6l11.6-7.613a1.856,1.856,0,0,0,.824-1.188,1.6,1.6,0,0,0-.255-1.238Zm-28.455,10.654h-3.064V301.038h3.064Zm2.019-1.109h-1.281V301.971h1.281a.492.492,0,0,1,.492.492v10.224a.493.493,0,0,1-.492.491Zm25.968-8.451a1.119,1.119,0,0,1-.5.712l-11.6,7.613a3.715,3.715,0,0,1-2.4.434l-10.242-2.377v-7.268h2.369a11.633,11.633,0,0,1,3.692.517l.031.012.009,0a10.98,10.98,0,0,0,3.167.564H148.3a1.182,1.182,0,0,1,1.2,1.111c0,.016,0,.033,0,.05a1.154,1.154,0,0,1-.022.222,1.193,1.193,0,0,1-1.177.938h-5.4a4.306,4.306,0,0,0-2.811,1,.368.368,0,1,0,.482.558,3.611,3.611,0,0,1,2.3-.826h5.43a1.931,1.931,0,0,0,1.9-1.532,1.846,1.846,0,0,0,.027-.189l6.316-2.606.008,0a1.434,1.434,0,0,1,1.674.387.868.868,0,0,1,.136.673Z" transform="translate(-3973.531 154.318)" fill="#fff"/>
      <path id="Path_302353_-_Outline" data-name="Path 302353 - Outline" d="M126.943,300.152h3.8a.519.519,0,0,1,.519.519v.414h1.131a1.38,1.38,0,0,1,1.379,1.379v.493h2.219a12.53,12.53,0,0,1,4,.573l.013,0,.03.012a10.1,10.1,0,0,0,2.854.507H148.3a2.079,2.079,0,0,1,1.928,1.265l5.974-2.465a2.316,2.316,0,0,1,.919-.187h0a2.238,2.238,0,0,1,1.831.88l.015.022a1.748,1.748,0,0,1,.264,1.331,2.007,2.007,0,0,1-.89,1.285l-11.6,7.612a4.643,4.643,0,0,1-2.35.628,3.432,3.432,0,0,1-.725-.072l-9.9-2.3v.631a1.38,1.38,0,0,1-1.379,1.379h-1.131v.59a.519.519,0,0,1-.519.519h-3.8a.519.519,0,0,1-.519-.519V300.671A.519.519,0,0,1,126.943,300.152Zm12.948,3.659a12.224,12.224,0,0,0-3.9-.555h-2.519v-.793a1.08,1.08,0,0,0-1.079-1.079h-1.431v-.714a.219.219,0,0,0-.219-.219h-3.8a.219.219,0,0,0-.219.219v13.985a.219.219,0,0,0,.219.219h3.8a.219.219,0,0,0,.219-.219v-.89h1.431a1.08,1.08,0,0,0,1.079-1.079v-1.008l10.265,2.382a3.131,3.131,0,0,0,.659.065,4.323,4.323,0,0,0,2.187-.58l11.6-7.612a1.706,1.706,0,0,0,.759-1.092,1.45,1.45,0,0,0-.23-1.123l-.012-.017a1.941,1.941,0,0,0-1.574-.736h0a2.018,2.018,0,0,0-.8.163l-6.269,2.587-.05-.153a1.776,1.776,0,0,0-1.7-1.209h-5.409a10.463,10.463,0,0,1-2.96-.527l-.031-.012Zm-12.729-2.923h3.364v13.548h-3.364Zm3.064.3h-2.764v12.948h2.764Zm.737.633h1.431a.643.643,0,0,1,.642.642v10.224a.642.642,0,0,1-.642.641h-1.431Zm1.445,11.207a.342.342,0,0,0,.327-.341V302.462a.342.342,0,0,0-.342-.342h-1.131v10.907Zm24.723-9.628a1.483,1.483,0,0,1,1.218.568,1.015,1.015,0,0,1,.162.778l0,.01a1.271,1.271,0,0,1-.569.809l-11.6,7.612a3.916,3.916,0,0,1-1.949.51,2.653,2.653,0,0,1-.562-.055l-10.36-2.4v-7.537h2.519a11.789,11.789,0,0,1,3.744.526l.045.017a10.8,10.8,0,0,0,3.111.553H148.3a1.333,1.333,0,0,1,1.348,1.254c0,.017,0,.037,0,.057a1.3,1.3,0,0,1-.025.25,1.343,1.343,0,0,1-1.325,1.06h-5.487a4.161,4.161,0,0,0-2.627.97.218.218,0,1,0,.285.331,3.791,3.791,0,0,1,2.351-.863H148.3a1.782,1.782,0,0,0,1.753-1.412,1.685,1.685,0,0,0,.025-.172l.008-.091,6.4-2.64.011,0A1.6,1.6,0,0,1,157.132,303.4Zm1.083,1.3V304.7a.719.719,0,0,0-.112-.558,1.2,1.2,0,0,0-.972-.44,1.3,1.3,0,0,0-.519.1l-.011,0-6.234,2.572c-.005.036-.011.073-.019.112a2.083,2.083,0,0,1-2.047,1.654h-5.477a3.475,3.475,0,0,0-2.155.79.518.518,0,0,1-.678-.785,4.458,4.458,0,0,1,2.912-1.042h5.4a1.042,1.042,0,0,0,1.03-.818,1,1,0,0,0,.019-.192c0-.013,0-.026,0-.04a1.034,1.034,0,0,0-1.048-.971h-5.409a11.158,11.158,0,0,1-3.218-.573l-.043-.017a11.487,11.487,0,0,0-3.638-.507h-2.219v7l10.126,2.35a2.353,2.353,0,0,0,.5.047,3.593,3.593,0,0,0,1.786-.461l11.6-7.612A.972.972,0,0,0,158.215,304.7Z" transform="translate(-3973.531 154.318)" fill="#fff"/>
      <path id="Path_302354" data-name="Path 302354" d="M350.777,58.676a.369.369,0,0,0,.369-.369V52.865a.369.369,0,0,0-.737,0v5.443A.369.369,0,0,0,350.777,58.676Z" transform="translate(-4181.462 384.518)" fill="#fff"/>
      <path id="Path_302354_-_Outline" data-name="Path 302354 - Outline" d="M350.777,58.826a.519.519,0,0,1-.519-.519V52.865a.519.519,0,0,1,1.037,0v5.443A.519.519,0,0,1,350.777,58.826Zm0-6.18a.219.219,0,0,0-.219.219v5.443a.219.219,0,0,0,.437,0V52.865A.219.219,0,0,0,350.777,52.646Z" transform="translate(-4181.462 384.518)" fill="#fff"/>
      <path id="Path_302355" data-name="Path 302355" d="M321.391,83.958a.369.369,0,0,0,.369-.369V79.461a.369.369,0,0,0-.737,0V83.59a.369.369,0,0,0,.369.368Z" transform="translate(-4154.164 359.811)" fill="#fff"/>
      <path id="Path_302355_-_Outline" data-name="Path 302355 - Outline" d="M321.391,84.108a.519.519,0,0,1-.519-.518V79.461a.519.519,0,0,1,1.037,0v4.129A.519.519,0,0,1,321.391,84.108Zm0-4.866a.219.219,0,0,0-.219.219V83.59a.219.219,0,0,0,.437,0V79.461A.219.219,0,0,0,321.391,79.242Z" transform="translate(-4154.164 359.811)" fill="#fff"/>
      <path id="Path_302356" data-name="Path 302356" d="M291.987,105.7a.369.369,0,0,0,.369-.369v-3.725a.369.369,0,0,0-.737,0v3.725A.369.369,0,0,0,291.987,105.7Z" transform="translate(-4126.849 339.238)" fill="#fff"/>
      <path id="Path_302356_-_Outline" data-name="Path 302356 - Outline" d="M291.987,105.851a.519.519,0,0,1-.519-.519v-3.725a.519.519,0,0,1,1.037,0v3.725A.519.519,0,0,1,291.987,105.851Zm0-4.462a.219.219,0,0,0-.219.219v3.725a.219.219,0,1,0,.437,0v-3.725A.219.219,0,0,0,291.987,101.389Z" transform="translate(-4126.849 339.238)" fill="#fff"/>
      <path id="Path_302357" data-name="Path 302357" d="M409.557,105.7a.369.369,0,0,0,.368-.369v-3.725a.369.369,0,0,0-.737,0v3.725A.37.37,0,0,0,409.557,105.7Z" transform="translate(-4236.066 339.238)" fill="#fff"/>
      <path id="Path_302357_-_Outline" data-name="Path 302357 - Outline" d="M409.557,105.851a.52.52,0,0,1-.519-.518v-3.725a.519.519,0,0,1,1.037,0v3.725A.519.519,0,0,1,409.557,105.851Zm0-4.462a.219.219,0,0,0-.219.219v3.725a.219.219,0,1,0,.437,0v-3.725A.219.219,0,0,0,409.557,101.389Z" transform="translate(-4236.066 339.238)" fill="#fff"/>
      <path id="Path_302358" data-name="Path 302358" d="M380.174,83.958a.369.369,0,0,0,.369-.369V79.461a.369.369,0,0,0-.737,0V83.59a.369.369,0,0,0,.369.368Z" transform="translate(-4208.77 359.811)" fill="#fff"/>
      <path id="Path_302358_-_Outline" data-name="Path 302358 - Outline" d="M380.174,84.108a.52.52,0,0,1-.519-.518v-4.13a.519.519,0,0,1,1.037,0v4.129A.519.519,0,0,1,380.174,84.108Zm0-4.866a.219.219,0,0,0-.219.219V83.59a.219.219,0,0,0,.438,0V79.461A.219.219,0,0,0,380.174,79.242Z" transform="translate(-4208.77 359.811)" fill="#fff"/>
      <path id="Path_302360" data-name="Path 302360" d="M279.633,167.363a5.81,5.81,0,1,0-5.81-5.81A5.816,5.816,0,0,0,279.633,167.363Zm0-10.883a5.073,5.073,0,1,1-5.073,5.073A5.079,5.079,0,0,1,279.633,156.48Z" transform="translate(-4110.318 288.606)" fill="#fff"/>
      <path id="Path_302360_-_Outline" data-name="Path 302360 - Outline" d="M279.633,167.513a5.96,5.96,0,1,1,5.96-5.96A5.967,5.967,0,0,1,279.633,167.513Zm0-11.62a5.66,5.66,0,1,0,5.66,5.66A5.667,5.667,0,0,0,279.633,155.893Zm0,10.883a5.223,5.223,0,1,1,5.223-5.223A5.229,5.229,0,0,1,279.633,166.776Zm0-10.146a4.923,4.923,0,1,0,4.923,4.923A4.89,4.89,0,0,0,279.633,156.63Z" transform="translate(-4110.318 288.606)" fill="#fff"/>
      <path id="Path_302399" data-name="Path 302399" d="M8.037-58.872H5.28v.431h.631c.563,0,.875.156.975.519H5.28v.388H6.924c-.031.575-.369.782-.944.782h-.7v.456h.775l1.025,1.607h.707L6.624-56.4a1.147,1.147,0,0,0,.932-1.132h.481v-.388H7.518a.831.831,0,0,0-.456-.563h.975Z" transform="translate(-3837.229 507.12)" fill="#fff"/>
      <path id="Path_302399_-_Outline" data-name="Path 302399 - Outline" d="M5.13-59.022H8.187v.688h-.7a1.024,1.024,0,0,1,.145.263h.56v.688H7.694a1.24,1.24,0,0,1-.837,1.058L8.07-54.539H7L5.973-56.146H5.13V-56.9h.85c.472,0,.707-.142.775-.482H5.13v-.688H6.648c-.1-.124-.308-.219-.736-.219H5.13Zm2.757.3H5.43v.131h.481c.406,0,.964.065,1.12.629l.052.19H5.43v.088H7.083l-.009.158c-.034.621-.392.923-1.094.923H5.43v.156h.708l1.025,1.607H7.5L6.386-56.486l.195-.059a1,1,0,0,0,.826-.994l.006-.144h.475v-.088H7.4l-.03-.111A.677.677,0,0,0,7-58.349l.064-.286h.825Z" transform="translate(-3837.229 507.12)" fill="#fff"/>
    </g>
  </g>
</svg>
