<svg id="svg" version="1.1" xmlns="http://www.w3.org/2000/svg" xmlns:xlink="http://www.w3.org/1999/xlink" width="400" height="220.40816326530611" viewBox="0, 0, 400,220.40816326530611"><g id="svgg"><path id="path0" d="M243.881 49.047 L 243.881 50.038 241.954 50.102 C 240.221 50.159,240.020 50.210,239.961 50.606 C 239.757 51.967,239.720 52.012,238.753 52.082 C 237.883 52.145,237.815 52.197,237.785 52.811 C 237.768 53.175,237.743 53.628,237.730 53.816 C 237.713 54.063,237.505 54.146,236.991 54.110 C 236.031 54.044,235.722 54.352,235.722 55.374 C 235.722 56.191,235.690 56.229,235.006 56.233 C 234.293 56.236,233.683 56.481,233.719 56.750 C 233.881 57.961,233.743 58.188,232.803 58.256 C 231.905 58.321,231.863 58.357,231.732 59.174 C 231.573 60.158,231.239 60.442,230.333 60.364 C 229.725 60.312,229.681 60.363,229.633 61.155 C 229.569 62.208,229.483 62.293,228.482 62.293 C 227.795 62.293,227.670 62.369,227.648 62.796 C 227.634 63.073,227.550 63.371,227.462 63.458 C 227.373 63.545,227.322 63.467,227.348 63.286 C 227.374 63.104,227.383 62.847,227.369 62.716 C 227.338 62.434,226.681 62.389,226.681 62.669 C 226.681 62.774,226.496 62.761,226.269 62.640 C 225.857 62.419,225.579 62.522,225.579 62.896 C 225.579 63.005,225.777 63.032,226.020 62.955 C 226.470 62.812,226.556 62.976,226.468 63.806 C 226.444 64.034,226.524 64.155,226.648 64.078 C 226.771 64.002,226.827 63.693,226.772 63.392 C 226.717 63.091,226.768 62.845,226.885 62.845 C 227.002 62.845,227.059 63.043,227.012 63.286 C 226.959 63.562,227.046 63.727,227.245 63.727 C 227.420 63.727,227.562 63.900,227.560 64.112 C 227.557 64.442,227.526 64.450,227.343 64.168 C 227.225 63.986,227.128 63.945,227.126 64.077 C 227.124 64.210,226.850 64.316,226.516 64.313 C 223.543 64.286,221.318 64.420,221.610 64.609 C 221.830 64.751,221.849 64.823,221.665 64.826 C 221.497 64.828,221.389 65.132,221.389 65.601 L 221.389 66.373 215.711 66.398 C 212.588 66.412,209.859 66.406,209.647 66.384 C 209.284 66.347,209.261 67.093,209.265 79.314 C 209.268 91.095,209.337 92.912,209.782 92.852 C 209.859 92.842,213.000 92.834,216.762 92.834 L 223.601 92.834 223.594 128.170 C 223.591 147.605,223.589 163.680,223.591 163.892 C 223.594 164.202,223.790 164.278,224.587 164.278 L 225.579 164.278 225.579 166.387 C 225.579 168.263,225.621 168.491,225.965 168.456 C 227.039 168.347,227.804 168.477,227.644 168.743 C 227.518 168.953,227.555 168.960,227.797 168.774 C 228.582 168.169,229.768 168.426,229.768 169.202 C 229.768 169.598,229.668 170.023,229.545 170.146 C 229.395 170.297,229.662 170.387,230.366 170.423 C 231.619 170.488,231.541 170.422,231.691 171.540 L 231.812 172.444 241.926 172.432 L 252.040 172.420 252.040 132.627 L 252.040 92.834 259.092 92.834 L 266.144 92.834 266.263 92.337 C 266.579 91.018,266.265 66.483,265.932 66.453 C 265.750 66.437,262.550 66.412,258.820 66.398 L 252.040 66.373 252.040 57.239 L 252.040 48.105 247.960 48.081 L 243.881 48.056 243.881 49.047 M225.828 63.488 C 225.661 63.591,225.562 63.783,225.607 63.915 C 225.657 64.059,225.809 64.079,225.992 63.966 C 226.158 63.862,226.257 63.670,226.212 63.539 C 226.163 63.394,226.010 63.374,225.828 63.488 M315.357 65.319 C 315.326 65.830,315.277 66.274,315.248 66.303 C 315.218 66.333,313.403 66.369,311.215 66.382 L 307.237 66.407 307.202 67.309 C 307.159 68.418,307.148 68.429,306.064 68.441 L 305.182 68.452 305.182 69.524 C 305.182 70.594,305.180 70.597,304.541 70.457 C 304.170 70.375,303.839 70.415,303.754 70.553 C 303.674 70.683,303.516 70.733,303.403 70.663 C 303.189 70.531,303.153 70.671,303.112 71.775 C 303.089 72.376,303.006 72.447,302.205 72.547 C 301.720 72.607,301.313 72.781,301.301 72.933 C 301.289 73.084,301.264 73.556,301.246 73.980 C 301.228 74.405,301.113 74.752,300.991 74.752 C 300.858 74.752,300.792 74.114,300.826 73.153 L 300.882 71.555 299.916 71.512 C 298.087 71.431,297.611 70.729,297.589 68.077 L 297.574 66.364 285.116 66.423 L 272.657 66.483 272.602 119.469 L 272.546 172.456 283.627 172.391 C 294.531 172.327,294.708 172.319,294.730 171.885 C 294.807 170.384,294.756 170.452,295.796 170.452 C 296.738 170.452,297.129 170.121,297.005 169.427 C 296.875 168.706,297.058 168.467,297.740 168.464 C 298.134 168.462,298.556 168.388,298.677 168.299 C 298.915 168.124,298.916 168.113,298.971 165.834 L 299.008 164.303 299.945 164.235 L 300.882 164.168 300.882 159.544 L 300.882 154.920 299.892 154.837 C 297.973 154.677,298.126 155.536,298.126 144.900 C 298.126 134.237,298.014 134.884,299.890 134.654 C 300.436 134.587,300.907 134.527,300.937 134.521 C 300.967 134.514,300.992 132.391,300.992 129.802 L 300.992 125.095 300.165 125.158 C 297.121 125.388,297.243 125.944,297.245 111.867 C 297.246 97.191,297.197 97.464,299.829 97.464 L 300.992 97.464 300.992 96.126 C 300.992 94.909,301.030 94.800,301.415 94.922 C 302.417 95.241,302.977 94.839,302.977 93.802 L 302.977 92.834 303.859 92.834 L 304.741 92.834 304.744 91.896 C 304.749 90.508,304.935 90.324,306.032 90.620 C 306.762 90.816,307.176 90.798,308.083 90.528 C 309.569 90.087,309.877 90.314,309.776 91.773 L 309.702 92.834 311.521 92.834 L 313.339 92.834 313.395 127.593 L 313.451 162.353 314.639 162.392 C 317.859 162.498,317.432 166.042,314.199 166.042 L 313.322 166.042 313.353 169.241 L 313.383 172.441 324.442 172.384 L 335.502 172.326 335.569 171.389 C 335.634 170.498,335.672 170.452,336.341 170.445 C 337.302 170.435,337.707 170.045,337.707 169.129 C 337.707 168.419,337.765 168.352,338.423 168.288 C 339.344 168.199,339.417 168.879,338.559 169.554 C 338.239 169.805,338.091 170.011,338.228 170.011 C 338.671 170.011,339.361 169.146,339.361 168.591 C 339.361 168.295,339.460 167.991,339.581 167.916 C 339.702 167.841,339.802 167.488,339.802 167.131 C 339.802 166.464,339.793 166.469,341.235 166.395 C 341.674 166.373,341.676 166.198,341.734 131.769 C 341.765 112.737,341.818 97.138,341.850 97.106 C 341.883 97.073,342.328 97.022,342.840 96.992 L 343.771 96.937 343.771 94.885 C 343.771 92.844,343.773 92.834,344.322 92.834 C 344.835 92.834,344.873 92.759,344.873 91.747 C 344.873 89.896,345.922 89.420,347.591 90.513 C 347.874 90.699,348.156 90.800,348.218 90.738 C 348.474 90.482,350.126 90.386,350.270 90.619 C 350.577 91.117,350.622 92.467,350.338 92.648 C 350.181 92.747,350.962 92.828,352.095 92.830 L 354.135 92.834 354.135 93.802 C 354.135 94.839,354.694 95.241,355.697 94.922 C 356.112 94.791,356.119 95.463,356.119 133.611 L 356.119 172.434 367.248 172.425 C 375.124 172.418,378.422 172.343,378.528 172.171 C 378.619 172.024,378.578 171.990,378.424 172.085 C 378.284 172.171,378.170 172.137,378.170 172.009 C 378.170 171.880,378.276 171.775,378.406 171.775 C 378.536 171.775,378.610 171.502,378.571 171.169 C 378.504 170.593,378.551 170.559,379.512 170.497 L 380.524 170.431 380.559 169.523 C 380.603 168.405,380.601 168.407,381.691 168.407 L 382.580 168.407 382.580 166.343 L 382.580 164.278 383.572 164.278 C 384.370 164.278,384.565 164.202,384.566 163.892 C 384.568 163.510,384.567 85.776,384.565 85.090 C 384.565 84.851,384.366 84.732,383.958 84.728 C 382.469 84.714,382.580 84.957,382.580 81.698 C 382.580 78.759,382.574 78.721,382.084 78.718 C 380.907 78.711,380.595 78.487,380.593 77.648 C 380.592 77.207,380.529 76.326,380.452 75.689 L 380.313 74.531 379.462 74.531 C 378.566 74.531,378.529 74.472,378.543 73.043 C 378.548 72.599,378.440 72.547,377.527 72.547 L 376.506 72.547 376.506 71.678 C 376.506 70.596,376.372 70.462,375.290 70.462 L 374.421 70.462 374.421 69.455 L 374.421 68.448 372.497 68.389 C 370.267 68.321,370.394 68.385,370.365 67.314 L 370.342 66.483 366.483 66.423 C 361.925 66.351,362.163 66.407,362.210 65.425 C 362.258 64.405,362.074 64.364,357.645 64.399 L 354.135 64.428 354.135 65.400 L 354.135 66.373 351.213 66.399 C 349.606 66.413,348.217 66.413,348.126 66.399 C 348.035 66.384,347.960 66.819,347.960 67.365 L 347.960 68.357 346.141 68.383 C 345.141 68.398,344.248 68.398,344.157 68.383 C 344.066 68.369,343.991 68.865,343.991 69.485 C 343.991 70.531,343.957 70.605,343.517 70.490 C 342.427 70.205,341.870 70.535,341.853 71.475 C 341.833 72.546,341.868 72.511,340.732 72.578 C 340.221 72.608,339.814 72.738,339.828 72.866 C 339.988 74.300,339.838 74.531,338.754 74.531 L 337.707 74.531 337.707 73.594 L 337.707 72.657 336.659 72.590 L 335.612 72.523 335.612 71.566 C 335.612 70.542,335.047 70.141,334.050 70.458 C 333.677 70.576,333.627 70.477,333.627 69.622 L 333.627 68.651 332.405 68.430 C 331.733 68.308,331.132 68.292,331.069 68.393 C 330.886 68.690,329.441 68.611,329.414 68.302 C 329.312 67.116,329.271 66.684,329.246 66.562 C 329.230 66.484,327.955 66.404,326.412 66.386 C 323.461 66.350,323.231 66.270,323.401 65.335 C 323.530 64.621,323.308 64.297,322.913 64.625 C 322.689 64.811,322.602 64.814,322.602 64.636 C 322.602 64.463,321.518 64.388,319.007 64.388 L 315.411 64.388 315.357 65.319 M56.156 72.914 C 55.577 73.493,56.633 74.798,57.328 74.364 C 57.646 74.166,57.771 74.168,57.869 74.374 C 57.939 74.521,57.938 74.345,57.867 73.981 C 57.660 72.927,56.726 72.344,56.156 72.914 M57.193 73.397 C 57.529 73.769,57.531 73.833,57.216 74.095 C 56.770 74.465,56.138 73.923,56.355 73.358 C 56.538 72.882,56.735 72.891,57.193 73.397 M56.582 73.393 C 56.512 73.507,56.594 73.715,56.763 73.856 C 56.946 74.007,57.124 74.028,57.200 73.906 C 57.270 73.792,57.188 73.584,57.018 73.443 C 56.836 73.292,56.658 73.271,56.582 73.393 M60.261 79.703 C 60.250 80.523,60.313 80.670,60.664 80.643 C 61.164 80.605,61.179 80.518,60.761 80.056 C 60.195 79.431,60.733 78.940,61.331 79.536 C 61.737 79.941,61.769 80.076,61.531 80.363 C 61.294 80.649,61.306 80.706,61.605 80.706 C 62.504 80.706,61.837 79.093,60.843 78.863 C 60.299 78.737,60.274 78.774,60.261 79.703 M60.778 79.557 C 60.618 79.816,61.247 80.392,61.459 80.181 C 61.539 80.100,61.450 79.878,61.259 79.687 C 61.053 79.481,60.858 79.428,60.778 79.557 M77.588 86.365 C 77.403 86.588,77.424 86.659,77.675 86.659 C 77.857 86.659,78.115 86.527,78.250 86.365 C 78.434 86.143,78.413 86.071,78.163 86.071 C 77.981 86.071,77.722 86.204,77.588 86.365 M75.193 105.843 C 74.424 106.612,74.609 107.166,75.634 107.166 L 76.516 107.166 76.516 106.284 C 76.516 105.259,75.962 105.075,75.193 105.843 M66.979 119.753 C 66.767 119.877,66.593 120.087,66.593 120.222 C 66.593 120.364,66.753 120.326,66.979 120.130 C 67.450 119.720,68.063 119.703,68.063 120.099 C 68.063 120.316,67.989 120.328,67.769 120.146 C 67.545 119.960,67.475 119.987,67.475 120.260 C 67.475 120.570,67.086 120.730,66.538 120.644 C 66.447 120.629,66.373 120.803,66.373 121.031 C 66.373 121.329,66.532 121.444,66.947 121.444 C 67.331 121.444,67.426 121.385,67.234 121.266 C 67.075 121.168,66.850 121.146,66.735 121.217 C 66.617 121.290,66.598 121.229,66.692 121.077 C 66.783 120.929,66.994 120.860,67.160 120.924 C 67.325 120.987,67.520 120.944,67.591 120.828 C 67.663 120.712,67.827 120.617,67.956 120.617 C 68.113 120.617,68.107 120.719,67.938 120.922 C 67.745 121.154,67.752 121.253,67.967 121.336 C 68.168 121.413,68.259 121.166,68.280 120.480 C 68.312 119.447,67.899 119.217,66.979 119.753 M198.897 161.080 C 198.897 162.048,199.522 162.139,200.205 161.271 C 200.847 160.454,200.783 160.309,199.779 160.309 C 198.918 160.309,198.897 160.327,198.897 161.080 M228.329 169.339 C 228.455 169.544,228.377 169.578,228.032 169.469 C 227.506 169.301,227.353 169.850,227.839 170.162 C 228.338 170.482,229.216 170.416,228.773 170.091 C 228.568 169.942,228.462 169.721,228.537 169.600 C 228.612 169.479,228.557 169.308,228.415 169.220 C 228.246 169.116,228.216 169.157,228.329 169.339 " stroke="none" fill="#04bbf3" fill-rule="evenodd"></path><path id="path1" d="M13.958 66.512 C 14.023 66.577,13.890 66.815,13.664 67.042 C 13.437 67.269,13.291 67.657,13.339 67.906 C 13.430 68.380,13.408 68.383,8.545 68.436 C 8.211 68.440,7.938 68.534,7.938 68.644 C 7.938 68.755,7.808 68.796,7.649 68.735 C 7.444 68.656,7.345 68.888,7.307 69.531 C 7.241 70.647,7.258 70.630,6.185 70.630 C 5.703 70.630,5.356 70.707,5.414 70.801 C 5.472 70.896,5.432 71.027,5.325 71.093 C 5.218 71.159,5.176 71.452,5.232 71.744 C 5.354 72.381,5.126 72.550,4.089 72.589 C 3.658 72.605,3.355 72.668,3.415 72.728 C 3.475 72.788,3.401 72.989,3.251 73.175 C 3.024 73.456,3.034 73.482,3.308 73.329 C 3.577 73.178,3.587 73.199,3.363 73.441 C 3.211 73.604,3.087 73.912,3.087 74.125 C 3.087 74.487,1.800 74.945,1.231 74.784 C 1.119 74.753,1.169 74.901,1.341 75.113 C 1.541 75.359,1.554 75.438,1.378 75.333 C 0.954 75.078,1.030 76.426,1.468 76.938 C 2.658 78.328,2.212 79.824,0.609 79.824 L 0.000 79.824 0.000 126.130 L 0.000 172.437 9.041 172.437 C 16.125 172.437,18.082 172.377,18.085 172.161 C 18.087 171.990,18.150 171.969,18.250 172.106 C 18.532 172.490,18.959 172.460,18.808 172.067 C 18.720 171.839,18.756 171.757,18.903 171.848 C 19.032 171.928,19.204 171.822,19.284 171.613 C 19.364 171.403,19.331 171.199,19.209 171.159 C 18.709 170.992,19.272 170.452,19.945 170.452 C 20.379 170.452,20.816 170.279,21.058 170.011 C 21.278 169.768,21.401 169.570,21.332 169.570 C 20.792 169.570,21.618 168.353,22.177 168.326 C 22.532 168.308,22.908 168.284,23.014 168.271 C 23.119 168.258,23.153 168.048,23.089 167.806 C 23.022 167.546,23.064 167.420,23.192 167.499 C 23.312 167.573,23.390 167.449,23.366 167.224 C 23.097 164.673,23.416 153.891,23.760 153.926 C 24.576 154.009,25.065 153.903,25.094 153.638 C 25.110 153.487,25.175 153.035,25.238 152.635 C 25.318 152.124,25.277 151.953,25.101 152.063 C 24.930 152.168,24.911 152.119,25.040 151.909 C 25.602 151.000,25.008 150.107,24.030 150.387 C 23.413 150.564,23.165 150.041,23.683 149.652 C 23.855 149.523,23.845 149.438,23.649 149.358 C 23.359 149.241,23.255 148.804,23.539 148.896 C 23.630 148.925,23.950 148.776,24.250 148.565 C 24.552 148.352,24.659 148.181,24.489 148.181 C 24.320 148.181,24.233 148.130,24.296 148.067 C 24.359 148.005,30.036 147.953,36.912 147.953 C 46.289 147.952,49.375 147.889,49.258 147.698 C 49.152 147.528,49.225 147.492,49.479 147.590 C 49.688 147.670,49.802 147.644,49.732 147.532 C 49.663 147.420,49.708 147.267,49.832 147.190 C 49.956 147.114,49.996 146.809,49.922 146.513 C 49.788 145.981,49.802 145.976,51.369 145.976 C 53.334 145.976,53.762 145.760,53.934 144.686 C 54.051 143.955,54.147 143.846,54.708 143.812 C 55.804 143.747,56.009 143.702,56.009 143.532 C 56.009 143.441,55.885 143.316,55.733 143.255 C 55.513 143.166,55.513 143.140,55.733 143.127 C 55.889 143.117,56.009 142.821,56.009 142.448 C 56.009 141.814,56.050 141.786,56.964 141.786 C 57.563 141.786,57.933 141.683,57.954 141.510 C 57.973 141.359,58.015 140.943,58.046 140.587 C 58.094 140.049,58.234 139.907,58.875 139.746 C 59.989 139.468,60.198 139.065,60.198 137.198 C 60.198 135.629,60.218 135.566,60.674 135.685 C 60.968 135.762,61.359 135.645,61.696 135.380 C 62.018 135.127,62.117 134.949,61.937 134.947 C 61.707 134.944,61.698 134.901,61.902 134.772 C 62.092 134.651,62.189 133.536,62.232 130.972 L 62.293 127.343 62.893 127.355 C 63.223 127.362,63.447 127.321,63.391 127.265 C 63.241 127.114,63.750 126.559,63.934 126.674 C 64.021 126.727,64.072 126.553,64.048 126.285 C 64.022 126.003,63.879 125.829,63.706 125.871 C 63.494 125.922,63.513 125.827,63.772 125.540 C 64.102 125.175,64.137 123.656,64.157 108.907 C 64.177 93.624,64.123 91.530,63.727 92.172 C 63.615 92.352,63.526 92.321,63.429 92.069 C 63.348 91.858,63.381 91.764,63.509 91.843 C 63.628 91.917,63.727 91.867,63.727 91.731 C 63.727 91.595,63.841 91.555,63.981 91.642 C 64.131 91.735,64.176 91.703,64.090 91.564 C 64.011 91.435,63.702 91.356,63.405 91.388 C 63.103 91.421,62.885 91.340,62.910 91.203 C 62.935 91.069,62.781 90.973,62.569 90.990 C 62.226 91.017,61.971 85.532,62.124 81.422 C 62.137 81.074,61.907 81.070,61.566 81.411 C 61.420 81.557,61.301 81.613,61.301 81.537 C 61.301 81.460,61.027 81.477,60.691 81.573 C 60.270 81.694,59.994 81.655,59.800 81.447 C 59.646 81.282,59.598 81.145,59.694 81.143 C 59.789 81.141,59.736 81.056,59.574 80.954 C 59.255 80.752,59.640 78.942,60.002 78.942 C 60.098 78.942,60.157 78.505,60.132 77.971 C 60.108 77.437,60.022 77.041,59.942 77.090 C 59.861 77.140,59.757 77.066,59.711 76.927 C 59.664 76.787,59.333 76.648,58.975 76.616 C 58.617 76.585,58.238 76.550,58.133 76.538 C 58.028 76.526,57.994 76.316,58.058 76.072 C 58.136 75.773,58.028 75.550,57.726 75.389 C 57.403 75.215,57.320 75.216,57.428 75.390 C 57.528 75.552,57.284 75.620,56.692 75.597 C 56.205 75.578,55.854 75.485,55.912 75.391 C 55.970 75.297,55.842 75.121,55.628 75.001 C 55.339 74.838,55.237 74.506,55.237 73.722 C 55.237 72.719,55.202 72.657,54.576 72.543 C 54.084 72.453,53.932 72.318,53.986 72.014 C 54.077 71.493,53.846 70.557,53.634 70.590 C 52.507 70.763,52.127 70.546,51.869 69.583 C 51.688 68.907,51.487 68.599,51.217 68.587 C 50.581 68.559,47.145 68.355,46.251 68.293 C 45.698 68.254,45.424 68.328,45.424 68.517 C 45.424 68.672,45.319 68.798,45.191 68.798 C 45.063 68.798,45.017 68.703,45.089 68.586 C 45.161 68.469,44.879 68.515,44.462 68.690 C 43.869 68.938,43.657 68.948,43.486 68.737 C 43.244 68.438,43.191 67.255,43.420 67.255 C 43.500 67.255,43.566 67.054,43.566 66.809 C 43.566 66.365,43.480 66.363,28.703 66.379 C 20.529 66.387,13.893 66.448,13.958 66.512 M76.824 66.684 C 76.502 67.521,76.629 83.352,76.957 83.375 C 77.139 83.389,77.635 83.415,78.060 83.434 C 79.782 83.510,80.255 84.744,79.149 86.271 C 78.778 86.783,78.574 87.235,78.696 87.276 C 78.817 87.316,78.860 87.497,78.791 87.678 C 78.613 88.142,79.378 88.758,80.099 88.732 C 80.726 88.709,80.774 88.804,80.749 90.017 C 80.743 90.347,80.804 90.604,80.887 90.586 C 81.294 90.499,82.694 90.930,82.719 91.149 C 82.735 91.287,82.763 91.695,82.782 92.056 C 82.824 92.861,81.649 92.787,94.873 92.813 L 105.182 92.834 105.182 97.019 L 105.182 101.204 95.204 101.273 C 85.718 101.339,84.653 101.381,84.329 101.706 C 84.253 101.782,84.064 101.795,83.910 101.736 C 83.755 101.677,83.572 101.776,83.503 101.957 C 83.382 102.272,83.936 102.305,84.410 102.012 C 84.887 101.717,85.186 102.274,84.910 102.942 C 84.622 103.636,84.044 103.690,84.095 103.019 C 84.112 102.792,83.935 102.619,83.641 102.577 C 83.308 102.530,83.132 102.324,83.073 101.916 C 83.002 101.412,82.962 101.464,82.811 102.260 L 82.634 103.197 81.008 103.197 C 80.107 103.197,79.383 103.292,79.383 103.411 C 79.383 103.528,79.250 103.574,79.089 103.512 C 78.927 103.450,78.784 103.527,78.772 103.684 C 78.656 105.135,78.573 105.283,77.884 105.262 C 77.209 105.242,77.207 105.247,77.301 106.259 C 77.420 107.536,77.219 107.851,76.223 107.947 C 75.787 107.989,75.230 108.131,74.986 108.262 C 74.621 108.457,74.564 108.439,74.670 108.165 C 74.740 107.981,74.902 107.895,75.030 107.974 C 75.169 108.060,75.195 108.010,75.095 107.847 C 75.003 107.699,74.872 107.635,74.803 107.704 C 74.734 107.773,74.512 107.679,74.310 107.497 C 73.993 107.210,73.943 107.208,73.943 107.487 C 73.943 107.664,74.041 107.748,74.161 107.674 C 74.291 107.594,74.308 107.654,74.203 107.824 C 74.071 108.038,73.923 107.979,73.604 107.582 L 73.181 107.056 73.321 107.558 C 73.413 107.886,73.373 108.039,73.204 107.999 C 72.888 107.924,72.392 108.629,72.608 108.845 C 72.694 108.931,72.964 108.821,73.207 108.601 C 73.457 108.374,73.649 108.311,73.649 108.455 C 73.649 108.595,73.648 108.784,73.647 108.875 C 73.646 108.966,73.493 109.042,73.307 109.043 C 72.824 109.045,72.554 109.576,72.550 110.529 C 72.547 111.280,72.491 111.358,71.940 111.372 C 70.765 111.402,70.465 111.736,70.534 112.943 C 70.562 113.442,70.491 113.522,70.085 113.444 C 69.820 113.393,69.496 113.440,69.366 113.548 C 69.236 113.656,69.030 113.735,68.908 113.724 C 68.787 113.712,68.658 113.894,68.621 114.128 C 68.569 114.460,68.600 114.485,68.765 114.244 C 68.924 114.012,68.968 114.074,68.942 114.492 C 68.924 114.798,68.809 115.011,68.688 114.964 C 68.148 114.759,68.311 119.262,68.871 120.019 C 69.600 121.005,69.716 121.440,69.401 122.004 C 68.999 122.725,68.797 122.815,67.585 122.819 L 66.483 122.823 66.483 137.134 C 66.483 145.006,66.546 151.344,66.624 151.219 C 66.701 151.093,66.879 151.062,67.019 151.148 C 67.159 151.235,67.399 151.202,67.552 151.075 C 67.864 150.816,69.168 151.487,69.369 152.011 C 69.432 152.176,69.226 152.774,68.910 153.339 C 67.781 155.362,68.249 160.147,69.583 160.217 C 69.940 160.236,70.311 160.264,70.409 160.280 C 70.506 160.296,70.569 160.979,70.548 161.797 C 70.493 164.017,70.612 164.228,71.940 164.262 C 72.512 164.277,72.647 164.459,72.564 165.102 C 72.499 165.608,73.010 166.301,73.352 166.170 C 73.931 165.948,74.531 166.447,74.531 167.152 C 74.531 167.512,74.637 167.806,74.765 167.806 C 74.893 167.806,74.944 167.894,74.878 168.001 C 74.722 168.253,75.512 168.460,76.168 168.341 C 76.598 168.263,76.666 168.334,76.615 168.799 C 76.582 169.102,76.636 169.350,76.735 169.350 C 76.835 169.350,76.868 169.531,76.810 169.754 C 76.749 169.988,76.827 170.172,76.996 170.191 C 77.156 170.209,78.032 170.287,78.942 170.362 C 80.845 170.521,80.761 170.482,80.761 171.215 C 80.761 171.523,80.853 171.775,80.967 171.775 C 81.080 171.775,81.118 171.864,81.051 171.972 C 80.984 172.081,81.085 172.230,81.276 172.303 C 81.882 172.536,120.617 172.457,120.617 172.223 C 120.617 172.106,120.745 172.058,120.901 172.118 C 121.166 172.220,121.265 171.934,121.345 170.838 C 121.373 170.455,121.830 170.348,123.013 170.447 C 123.339 170.474,123.478 170.401,123.386 170.251 C 123.304 170.119,123.343 170.011,123.471 170.011 C 123.599 170.011,123.705 170.109,123.705 170.230 C 123.705 170.608,125.131 170.325,125.209 169.931 C 125.299 169.476,125.062 169.470,124.571 169.915 C 124.318 170.144,124.140 170.181,124.044 170.025 C 123.964 169.896,124.004 169.791,124.133 169.791 C 124.261 169.791,124.363 169.617,124.359 169.405 C 124.353 169.059,124.315 169.065,124.003 169.460 C 123.760 169.767,123.622 169.817,123.550 169.624 C 123.493 169.471,123.331 169.416,123.190 169.501 C 123.042 169.589,123.058 169.500,123.227 169.291 C 123.389 169.091,123.458 168.824,123.380 168.698 C 123.227 168.451,123.244 168.445,124.274 168.365 C 124.724 168.331,124.954 168.414,124.954 168.611 C 124.954 168.979,124.757 168.991,124.410 168.644 C 124.265 168.498,124.146 168.456,124.146 168.549 C 124.146 168.832,124.672 169.237,125.083 169.270 C 125.325 169.289,125.469 169.145,125.469 168.884 C 125.469 168.655,125.543 168.460,125.634 168.451 C 125.725 168.441,125.998 168.384,126.240 168.322 C 126.483 168.261,126.855 168.197,127.067 168.181 C 127.641 168.138,127.599 166.502,127.007 165.867 C 125.709 164.473,126.568 162.947,128.572 163.087 C 129.585 163.158,129.673 163.128,129.551 162.743 C 129.393 162.245,130.066 161.780,130.530 162.066 C 130.845 162.261,131.450 161.864,131.276 161.577 C 131.221 161.486,131.293 161.411,131.436 161.411 C 131.630 161.411,131.627 161.327,131.422 161.080 C 131.271 160.899,131.234 160.750,131.340 160.750 C 131.446 160.750,131.541 160.307,131.551 159.767 C 131.564 159.116,131.489 158.832,131.331 158.927 C 131.199 159.006,131.216 158.916,131.368 158.728 C 131.913 158.055,131.725 74.759,131.179 75.097 C 131.073 75.162,131.050 75.051,131.127 74.849 C 131.245 74.542,131.163 74.504,130.628 74.616 C 129.861 74.778,129.567 74.594,129.493 73.909 C 129.404 73.092,128.797 72.629,127.729 72.564 C 127.575 72.554,127.453 72.261,127.453 71.898 C 127.453 71.542,127.352 71.188,127.229 71.111 C 127.106 71.035,127.062 70.880,127.132 70.768 C 127.202 70.654,126.860 70.562,126.364 70.562 C 125.563 70.562,125.466 70.504,125.441 70.011 C 125.393 69.045,125.344 68.907,125.073 68.964 C 124.927 68.994,124.806 68.845,124.804 68.633 C 124.801 68.303,124.769 68.295,124.587 68.578 C 124.469 68.760,124.371 68.797,124.369 68.662 C 124.368 68.526,124.192 68.415,123.980 68.416 C 122.551 68.422,120.593 68.281,121.003 68.202 C 121.276 68.149,121.499 68.008,121.499 67.888 C 121.499 67.768,121.399 67.732,121.276 67.808 C 121.139 67.893,121.075 67.664,121.111 67.214 L 121.169 66.483 99.054 66.433 C 80.554 66.391,76.920 66.432,76.824 66.684 M138.658 66.588 C 138.332 66.687,138.011 66.714,137.945 66.647 C 137.766 66.469,137.836 120.192,138.015 120.838 C 138.170 121.397,138.608 121.564,139.056 121.235 C 139.565 120.859,139.768 121.690,139.830 124.398 C 139.883 126.729,139.946 127.163,140.214 127.060 C 140.421 126.981,140.479 127.029,140.376 127.195 C 140.222 127.444,140.344 127.483,141.443 127.541 C 141.743 127.557,141.881 127.736,141.903 128.138 C 141.953 129.045,142.196 129.497,142.560 129.357 C 142.741 129.288,142.889 129.333,142.889 129.458 C 142.889 129.582,142.979 129.628,143.089 129.560 C 143.510 129.300,143.991 129.718,143.991 130.343 C 143.991 130.694,144.101 130.981,144.235 130.981 C 144.370 130.981,144.427 131.118,144.363 131.285 C 144.299 131.451,144.363 131.585,144.505 131.581 C 145.793 131.544,145.976 131.638,145.976 132.335 C 145.976 133.137,146.479 133.610,147.344 133.620 C 147.900 133.627,148.424 134.712,148.225 135.447 C 148.201 135.537,148.404 135.622,148.677 135.635 C 148.950 135.648,149.322 135.681,149.504 135.708 C 149.686 135.735,150.356 135.774,150.992 135.795 C 152.112 135.831,152.150 135.853,152.150 136.467 C 152.150 137.588,152.630 137.746,156.292 137.829 C 157.418 137.855,158.402 137.813,158.478 137.736 C 158.555 137.659,158.856 137.596,159.146 137.596 C 159.436 137.596,159.625 137.518,159.565 137.422 C 159.359 137.089,160.281 137.187,160.564 137.528 C 160.906 137.940,160.979 139.142,160.686 139.526 C 160.518 139.745,162.125 139.802,168.551 139.802 L 176.626 139.802 176.626 142.889 L 176.626 145.976 169.184 146.003 C 160.137 146.035,160.533 146.024,160.673 146.250 C 160.735 146.352,160.960 146.380,161.172 146.312 C 161.680 146.151,162.169 147.113,161.780 147.505 C 161.582 147.705,161.608 147.733,161.891 147.625 C 162.190 147.511,162.236 147.582,162.128 147.992 C 162.055 148.272,161.954 148.376,161.904 148.225 C 161.843 148.044,161.556 148.174,161.063 148.607 C 160.268 149.305,159.612 149.246,158.584 148.381 C 158.325 148.164,157.606 148.070,156.191 148.068 C 155.078 148.067,154.282 148.136,154.421 148.221 C 154.559 148.307,154.605 148.446,154.521 148.529 C 154.437 148.613,154.121 148.519,153.817 148.320 C 153.351 148.015,153.285 148.010,153.393 148.290 C 153.463 148.473,153.658 148.622,153.827 148.622 C 153.996 148.622,154.135 148.762,154.135 148.934 C 154.135 149.106,154.250 149.285,154.390 149.332 C 154.572 149.393,154.581 149.534,154.420 149.821 C 154.185 150.241,152.811 150.502,152.811 150.127 C 152.811 150.012,152.726 149.972,152.622 150.036 C 152.283 150.246,152.574 148.605,152.922 148.350 C 153.043 148.260,152.930 148.186,152.671 148.184 C 152.411 148.182,152.204 148.305,152.209 148.456 C 152.260 149.828,151.509 150.995,150.942 150.427 C 150.618 150.103,150.199 150.260,150.107 150.739 C 150.052 151.030,150.095 151.268,150.204 151.268 C 150.312 151.268,150.299 151.460,150.173 151.694 C 150.048 151.929,149.945 152.574,149.945 153.128 C 149.945 153.681,149.846 154.147,149.724 154.162 C 149.603 154.177,149.429 154.210,149.338 154.235 C 148.015 154.600,147.955 154.635,148.186 154.912 C 148.355 155.116,148.354 155.240,148.182 155.347 C 147.869 155.540,147.903 171.996,148.216 171.996 C 148.332 171.996,148.366 172.095,148.291 172.216 C 148.216 172.337,148.252 172.437,148.370 172.437 C 148.488 172.437,148.635 172.313,148.696 172.161 C 148.784 171.943,148.811 171.943,148.825 172.159 C 148.847 172.509,186.447 172.560,186.663 172.211 C 186.739 172.087,186.956 172.072,187.169 172.175 C 187.627 172.397,188.095 172.386,188.085 172.153 C 188.080 172.058,188.220 171.836,188.396 171.661 C 188.571 171.485,188.663 171.142,188.599 170.897 C 188.477 170.434,188.998 170.319,190.849 170.400 C 191.406 170.425,191.441 170.399,191.069 170.236 C 190.673 170.062,190.669 170.040,191.029 170.027 C 191.249 170.018,191.632 170.119,191.879 170.252 C 192.528 170.599,192.927 170.167,192.536 169.541 C 192.379 169.289,192.339 169.138,192.449 169.206 C 192.558 169.274,192.629 169.110,192.606 168.843 C 192.543 168.126,192.645 168.055,193.471 168.242 C 194.439 168.460,194.762 168.243,194.798 167.354 C 194.814 166.959,194.974 166.567,195.153 166.483 C 195.333 166.400,195.707 166.213,195.985 166.069 C 196.263 165.924,196.610 165.878,196.756 165.967 C 196.921 166.065,196.907 165.983,196.721 165.753 C 196.523 165.510,196.504 165.380,196.665 165.380 C 196.802 165.380,196.913 165.132,196.913 164.829 C 196.913 164.349,197.717 164.006,198.076 164.333 C 198.617 164.826,199.153 161.917,198.640 161.268 C 197.932 160.373,198.602 159.475,199.950 159.512 C 200.959 159.540,201.095 159.226,201.100 156.849 C 201.101 156.219,201.201 155.643,201.321 155.569 C 201.449 155.490,201.480 155.587,201.396 155.807 C 201.296 156.067,201.346 156.147,201.564 156.071 C 201.734 156.012,201.849 155.816,201.818 155.637 C 201.756 155.279,202.452 155.175,202.670 155.509 C 202.745 155.622,202.794 155.409,202.781 155.035 C 202.765 154.593,202.641 154.353,202.426 154.348 C 202.215 154.342,202.275 154.239,202.593 154.063 C 202.983 153.846,203.033 153.728,202.825 153.519 C 202.616 153.311,202.617 153.252,202.830 153.252 C 203.031 153.252,203.043 153.141,202.874 152.825 C 202.719 152.536,202.718 152.352,202.869 152.259 C 203.222 152.040,203.158 67.022,202.805 67.091 C 202.657 67.121,202.565 66.973,202.600 66.762 C 202.674 66.319,177.863 66.167,177.044 66.606 C 176.660 66.811,176.642 67.760,176.630 88.361 C 176.618 109.906,176.598 110.534,175.914 110.112 C 175.815 110.051,175.626 110.305,175.496 110.678 C 175.293 111.263,175.149 111.358,174.455 111.373 C 172.742 111.409,172.448 111.616,172.574 112.697 L 172.648 113.341 170.486 113.341 C 168.465 113.341,168.290 113.377,167.806 113.892 C 166.647 115.125,164.832 114.203,165.051 112.493 C 165.111 112.022,165.348 111.547,165.627 111.336 C 165.959 111.086,166.023 110.930,165.841 110.817 C 165.697 110.728,165.609 110.451,165.645 110.202 C 165.688 109.907,165.576 109.728,165.324 109.689 C 165.111 109.657,164.993 109.721,165.062 109.832 C 165.130 109.943,165.081 110.033,164.952 110.033 C 164.824 110.033,164.719 109.878,164.719 109.689 C 164.719 109.500,164.620 109.407,164.498 109.482 C 164.309 109.599,164.144 67.440,164.333 67.178 C 164.868 66.437,140.959 65.887,138.658 66.588 M33.763 93.330 C 33.777 93.603,33.812 93.925,33.840 94.046 C 33.868 94.168,33.906 94.366,33.925 94.487 C 33.944 94.609,34.324 94.734,34.770 94.766 C 35.767 94.837,35.789 94.858,35.812 95.788 C 35.823 96.202,35.906 96.495,35.997 96.438 C 36.088 96.382,36.163 96.435,36.163 96.555 C 36.163 96.676,36.337 96.774,36.549 96.773 C 37.922 96.765,37.811 95.890,37.874 107.243 C 37.914 114.432,37.861 117.530,37.696 117.530 C 37.566 117.530,37.532 117.646,37.620 117.788 C 37.726 117.960,37.660 118.001,37.423 117.910 C 37.174 117.814,37.104 117.868,37.190 118.093 C 37.267 118.293,37.176 118.412,36.946 118.412 C 36.743 118.412,36.639 118.313,36.714 118.192 C 36.958 117.797,36.683 117.959,36.252 118.464 C 35.939 118.831,35.927 118.883,36.206 118.668 C 36.531 118.416,36.575 118.439,36.544 118.842 C 36.522 119.141,36.400 119.263,36.202 119.187 C 35.995 119.108,35.936 119.179,36.021 119.402 C 36.092 119.585,36.063 119.735,35.958 119.735 C 35.852 119.735,35.776 120.080,35.787 120.500 C 35.817 121.548,35.959 121.506,32.226 121.561 C 30.185 121.591,28.887 121.695,28.884 121.830 C 28.882 121.951,28.797 121.920,28.695 121.759 C 28.439 121.356,26.066 121.512,25.789 121.950 C 25.677 122.127,25.584 122.594,25.582 122.988 C 25.580 123.382,25.488 123.705,25.378 123.705 C 25.267 123.705,25.205 123.531,25.239 123.319 C 25.274 123.106,25.203 122.809,25.082 122.657 C 24.929 122.464,24.954 122.379,25.166 122.374 C 25.332 122.369,25.226 122.231,24.928 122.067 C 24.631 121.902,24.243 121.823,24.065 121.891 C 23.838 121.979,23.797 121.928,23.925 121.720 C 24.058 121.504,24.009 121.462,23.741 121.565 C 23.401 121.696,23.374 120.644,23.374 107.270 L 23.374 92.834 28.556 92.834 L 33.738 92.834 33.763 93.330 M298.933 107.643 C 298.783 114.474,298.793 122.052,298.949 120.539 C 299.028 119.782,299.094 119.700,299.559 119.789 C 299.847 119.844,300.212 119.808,300.372 119.708 C 300.582 119.577,300.698 119.722,300.794 120.237 C 300.867 120.628,300.937 116.458,300.949 110.970 L 300.971 100.992 300.025 100.992 L 299.079 100.992 298.933 107.643 M165.016 110.581 C 165.095 110.522,165.111 110.539,165.052 110.619 C 164.992 110.699,165.046 110.889,165.172 111.041 C 165.510 111.448,165.049 111.651,164.479 111.346 C 164.136 111.162,164.076 111.029,164.254 110.851 C 164.576 110.529,164.569 110.184,164.244 110.385 C 164.076 110.489,164.050 110.445,164.167 110.254 C 164.308 110.026,164.400 110.041,164.609 110.327 C 164.754 110.525,164.937 110.640,165.016 110.581 M298.872 122.602 L 298.897 123.594 299.945 123.661 L 300.992 123.729 300.957 122.890 C 300.923 122.075,300.919 122.072,300.833 122.768 C 300.760 123.358,300.678 123.450,300.372 123.292 C 300.167 123.186,299.783 123.135,299.517 123.178 C 299.105 123.245,299.020 123.136,298.940 122.433 C 298.860 121.733,298.850 121.759,298.872 122.602 M105.209 135.943 C 105.225 141.703,105.253 146.491,105.272 146.582 C 105.292 146.673,105.417 146.946,105.550 147.189 C 106.040 148.083,105.396 148.785,103.940 148.945 C 103.645 148.977,103.345 149.062,103.273 149.134 C 103.201 149.206,102.762 149.070,102.297 148.833 C 101.760 148.559,101.007 148.401,100.235 148.401 C 99.105 148.401,98.995 148.354,98.675 147.736 C 98.249 146.913,98.474 146.777,100.077 146.891 C 100.854 146.946,101.129 146.893,101.055 146.702 C 100.996 146.549,100.377 146.399,99.594 146.348 C 98.733 146.293,98.902 146.275,100.055 146.299 C 101.056 146.320,101.874 146.265,101.874 146.177 C 101.874 146.089,100.320 146.003,98.421 145.987 C 94.506 145.954,94.644 145.985,94.751 145.159 C 94.851 144.383,94.474 143.731,94.184 144.180 C 94.050 144.389,93.946 144.405,93.840 144.235 C 93.757 144.101,93.497 143.991,93.262 143.991 C 92.845 143.991,92.834 143.760,92.834 135.708 C 92.834 127.952,92.858 127.428,93.219 127.465 C 94.236 127.568,94.818 127.076,94.818 126.114 L 94.818 125.469 100.000 125.469 L 105.182 125.469 105.209 135.943 M172.878 146.352 C 167.056 146.508,162.072 146.513,162.073 146.362 C 162.073 146.271,165.025 146.217,168.633 146.243 C 172.241 146.269,174.151 146.318,172.878 146.352 M174.493 147.003 C 174.719 147.229,174.193 147.740,173.733 147.740 C 173.505 147.740,173.319 147.839,173.319 147.960 C 173.319 148.082,172.922 148.181,172.437 148.181 C 171.951 148.181,171.555 148.102,171.555 148.005 C 171.555 147.477,168.436 147.035,168.137 147.519 C 168.062 147.641,167.808 147.740,167.572 147.740 C 167.337 147.740,167.144 147.839,167.144 147.960 C 167.144 148.082,166.748 148.181,166.262 148.181 C 165.777 148.181,165.380 148.102,165.380 148.005 C 165.380 147.729,164.000 147.299,163.118 147.299 C 162.679 147.299,162.258 147.200,162.183 147.078 C 162.030 146.831,174.246 146.756,174.493 147.003 M24.111 148.962 C 24.040 149.149,24.043 149.364,24.118 149.440 C 24.194 149.515,24.256 149.412,24.256 149.210 C 24.256 149.008,24.361 148.842,24.489 148.842 C 24.618 148.842,24.652 148.957,24.565 149.097 C 24.468 149.255,24.505 149.292,24.663 149.194 C 25.027 148.969,24.977 148.622,24.580 148.622 C 24.394 148.622,24.183 148.775,24.111 148.962 M152.938 148.988 C 152.871 149.163,152.906 149.251,153.016 149.183 C 153.125 149.115,153.248 149.150,153.289 149.260 C 153.329 149.370,153.481 149.331,153.626 149.174 C 153.834 148.948,153.802 148.864,153.475 148.779 C 153.236 148.716,153.009 148.805,152.938 148.988 M192.358 169.862 C 192.437 169.782,192.503 169.833,192.503 169.974 C 192.503 170.269,192.449 170.282,191.970 170.098 C 191.778 170.024,191.621 169.863,191.621 169.740 C 191.621 169.599,191.731 169.607,191.917 169.762 C 192.079 169.897,192.278 169.942,192.358 169.862 " stroke="none" fill="#1c2c93" fill-rule="evenodd"></path><path id="path2" d="M43.550 66.593 C 43.475 66.714,43.475 66.913,43.550 67.034 C 43.625 67.155,43.594 67.255,43.480 67.255 C 43.206 67.255,43.210 68.396,43.486 68.737 C 43.657 68.948,43.869 68.938,44.462 68.690 C 44.879 68.515,45.161 68.469,45.089 68.586 C 45.017 68.703,45.063 68.798,45.191 68.798 C 45.319 68.798,45.424 68.644,45.424 68.454 C 45.424 68.265,45.524 68.172,45.645 68.247 C 45.961 68.442,45.918 67.840,45.590 67.487 C 45.369 67.249,45.369 67.221,45.590 67.346 C 45.973 67.562,45.944 66.933,45.556 66.611 C 45.319 66.414,45.220 66.420,45.133 66.639 C 45.045 66.857,45.014 66.859,45.001 66.648 C 44.991 66.497,44.878 66.373,44.750 66.373 C 44.622 66.373,44.586 66.497,44.672 66.648 C 44.797 66.869,44.768 66.869,44.531 66.648 C 44.173 66.316,43.736 66.292,43.550 66.593 M137.937 66.609 C 138.029 66.758,139.140 66.614,139.140 66.454 C 139.140 66.405,138.849 66.388,138.494 66.415 C 138.138 66.442,137.888 66.529,137.937 66.609 M329.548 66.703 C 329.632 66.946,329.719 67.244,329.741 67.365 C 329.763 67.486,329.868 67.725,329.974 67.895 C 330.106 68.107,330.087 68.155,329.913 68.048 C 329.773 67.961,329.658 67.995,329.658 68.124 C 329.658 68.252,329.863 68.357,330.112 68.357 C 330.362 68.357,330.517 68.278,330.457 68.181 C 330.397 68.084,330.565 67.869,330.830 67.704 C 331.272 67.429,331.286 67.435,331.005 67.776 C 330.676 68.174,330.798 68.496,331.187 68.256 C 331.521 68.050,331.479 67.629,331.075 67.131 C 330.884 66.896,330.778 66.806,330.838 66.932 C 330.899 67.057,330.763 67.160,330.536 67.160 C 330.201 67.160,330.173 67.100,330.387 66.835 C 330.606 66.565,330.580 66.537,330.227 66.670 C 329.970 66.766,329.724 66.718,329.600 66.546 C 329.462 66.354,329.446 66.406,329.548 66.703 M76.615 75.524 C 76.615 79.526,76.644 81.194,76.681 79.231 C 76.717 77.268,76.717 73.994,76.681 71.954 C 76.645 69.915,76.615 71.521,76.615 75.524 M55.237 73.665 C 55.237 74.505,55.334 74.837,55.628 75.001 C 55.842 75.122,55.970 75.297,55.912 75.391 C 55.854 75.485,56.205 75.578,56.692 75.597 C 57.224 75.618,57.524 75.545,57.443 75.415 C 57.367 75.291,57.456 75.254,57.650 75.329 C 57.837 75.401,57.940 75.542,57.878 75.642 C 57.816 75.742,57.852 75.877,57.958 75.943 C 58.064 76.008,58.138 75.742,58.123 75.352 C 58.096 74.666,58.059 74.639,57.052 74.574 C 55.954 74.504,55.533 73.551,56.273 72.811 C 56.479 72.606,56.393 72.547,55.888 72.547 C 55.253 72.547,55.237 72.574,55.237 73.665 M128.997 72.885 C 128.997 73.063,129.146 73.208,129.327 73.208 C 129.509 73.208,129.658 73.120,129.658 73.011 C 129.658 72.903,129.509 72.757,129.327 72.688 C 129.126 72.610,128.997 72.687,128.997 72.885 M0.000 78.170 L 0.000 79.824 0.609 79.824 C 1.659 79.824,2.467 78.871,2.120 78.044 C 1.178 75.805,0.000 75.875,0.000 78.170 M59.554 79.855 C 59.330 80.601,59.334 80.801,59.574 80.954 C 59.736 81.056,59.789 81.141,59.694 81.143 C 59.598 81.145,59.646 81.282,59.800 81.447 C 59.995 81.656,60.270 81.694,60.695 81.572 C 61.033 81.475,61.356 81.386,61.413 81.375 C 62.532 81.157,62.298 80.580,61.129 80.675 L 60.148 80.754 60.234 79.848 C 60.348 78.651,59.913 78.655,59.554 79.855 M76.648 83.514 C 76.059 84.102,76.553 84.675,77.649 84.675 L 78.782 84.675 78.634 85.930 L 78.487 87.186 79.155 86.263 C 79.951 85.164,80.001 84.484,79.327 83.907 C 78.849 83.497,76.945 83.217,76.648 83.514 M78.636 88.520 C 78.703 88.694,78.907 88.779,79.089 88.710 C 79.358 88.606,79.365 88.548,79.125 88.396 C 78.686 88.117,78.500 88.164,78.636 88.520 M62.918 91.195 C 62.918 91.480,63.783 91.451,63.879 91.162 C 63.917 91.051,63.716 90.959,63.433 90.959 C 63.150 90.959,62.918 91.065,62.918 91.195 M305.182 91.434 C 305.182 92.008,305.191 92.012,305.628 91.616 C 305.969 91.308,306.008 91.170,305.794 91.034 C 305.320 90.734,305.182 90.824,305.182 91.434 M306.382 91.226 C 306.462 91.436,306.458 91.537,306.372 91.451 C 306.133 91.212,305.623 91.730,305.623 92.212 C 305.623 92.447,305.531 92.582,305.418 92.512 C 305.305 92.442,305.163 92.465,305.103 92.563 C 305.043 92.660,305.240 92.760,305.542 92.785 C 305.955 92.820,306.075 92.736,306.026 92.446 C 305.990 92.235,306.058 92.062,306.176 92.062 C 306.295 92.062,306.363 92.186,306.328 92.337 C 306.294 92.489,306.375 92.613,306.508 92.613 C 306.642 92.613,306.690 92.514,306.615 92.393 C 306.540 92.271,306.559 92.172,306.657 92.172 C 306.984 92.172,306.903 91.100,306.566 90.971 C 306.323 90.878,306.274 90.945,306.382 91.226 M307.240 91.514 C 307.240 91.966,307.349 92.173,307.589 92.175 C 307.864 92.178,307.876 92.218,307.644 92.365 C 307.406 92.516,307.416 92.577,307.692 92.683 C 308.185 92.872,308.333 92.488,307.925 92.080 C 307.733 91.888,307.645 91.731,307.729 91.731 C 307.813 91.731,307.758 91.582,307.607 91.400 C 307.395 91.144,307.393 91.069,307.601 91.069 C 307.749 91.069,307.919 91.259,307.979 91.490 C 308.040 91.721,308.295 91.964,308.546 92.030 C 308.931 92.131,308.958 92.203,308.719 92.492 C 308.560 92.684,308.534 92.834,308.659 92.834 C 308.783 92.834,308.940 92.685,309.010 92.503 C 309.161 92.111,308.954 91.470,308.724 91.612 C 308.635 91.667,308.563 91.563,308.563 91.381 C 308.563 91.190,308.692 91.100,308.868 91.168 C 309.036 91.232,309.123 91.203,309.062 91.103 C 308.706 90.528,307.240 90.858,307.240 91.514 M63.461 92.151 C 63.547 92.375,63.615 92.396,63.676 92.215 C 63.724 92.068,63.855 92.005,63.966 92.073 C 64.077 92.142,64.168 92.099,64.168 91.978 C 64.168 91.857,63.980 91.773,63.751 91.790 C 63.477 91.810,63.378 91.935,63.461 92.151 M348.764 92.285 C 348.859 92.532,348.791 92.579,348.500 92.468 C 348.253 92.373,348.161 92.403,348.251 92.548 C 348.329 92.675,348.632 92.778,348.923 92.778 C 349.419 92.778,349.430 92.753,349.098 92.365 C 348.670 91.864,348.595 91.847,348.764 92.285 M299.854 99.389 C 298.078 99.531,298.126 99.180,298.126 112.182 C 298.126 124.955,298.001 124.146,299.962 124.146 C 301.312 124.146,301.297 123.748,299.945 123.661 L 298.897 123.594 298.825 121.169 C 298.785 119.835,298.822 114.749,298.906 109.868 L 299.059 100.992 300.026 100.992 L 300.992 100.992 300.992 100.110 C 300.992 99.625,300.967 99.246,300.937 99.268 C 300.907 99.290,300.420 99.345,299.854 99.389 M83.088 101.752 C 83.155 102.326,83.292 102.528,83.650 102.579 C 83.936 102.619,84.112 102.794,84.095 103.019 C 84.044 103.690,84.622 103.636,84.910 102.942 C 85.186 102.274,84.887 101.717,84.410 102.012 C 83.936 102.305,83.382 102.272,83.503 101.957 C 83.572 101.776,83.755 101.677,83.910 101.736 C 84.064 101.795,84.253 101.782,84.329 101.706 C 84.650 101.385,85.699 101.338,95.259 101.219 L 105.292 101.094 94.917 101.043 C 87.084 101.005,84.478 101.057,84.278 101.257 C 84.072 101.463,84.013 101.457,84.013 101.230 C 84.013 100.996,83.948 100.992,83.682 101.213 C 83.454 101.402,83.352 101.411,83.352 101.240 C 83.352 101.104,83.272 100.992,83.175 100.992 C 83.079 100.992,83.039 101.334,83.088 101.752 M76.528 105.568 C 76.687 107.140,76.590 107.282,75.414 107.200 C 74.695 107.151,74.311 107.211,74.311 107.373 C 74.311 107.558,74.191 107.559,73.853 107.378 C 73.433 107.153,73.416 107.171,73.644 107.597 C 73.794 107.878,73.997 107.996,74.157 107.896 C 74.577 107.633,74.959 107.627,75.116 107.882 C 75.196 108.012,75.158 108.053,75.030 107.974 C 74.902 107.895,74.740 107.981,74.670 108.165 C 74.564 108.439,74.621 108.457,74.986 108.262 C 75.230 108.131,75.787 107.989,76.223 107.947 C 77.362 107.837,77.450 107.601,77.196 105.347 C 77.186 105.256,77.022 105.182,76.833 105.182 C 76.637 105.182,76.505 105.348,76.528 105.568 M72.602 107.731 C 72.602 108.031,72.691 108.332,72.800 108.400 C 72.910 108.467,72.972 108.391,72.938 108.230 C 72.905 108.070,73.002 107.963,73.153 107.993 C 73.460 108.055,73.507 107.834,73.260 107.497 C 72.946 107.069,72.602 107.191,72.602 107.731 M73.042 108.710 C 72.770 108.931,72.550 109.244,72.554 109.407 C 72.558 109.603,72.634 109.575,72.780 109.326 C 72.901 109.118,73.136 109.001,73.302 109.065 C 73.666 109.205,73.900 108.896,73.689 108.554 C 73.585 108.386,73.382 108.435,73.042 108.710 M164.722 109.657 C 164.720 109.886,164.853 110.025,165.037 109.988 C 165.212 109.952,165.518 110.121,165.715 110.364 C 165.913 110.606,166.012 110.681,165.935 110.529 C 165.858 110.378,165.900 110.254,166.029 110.254 C 166.157 110.254,166.262 110.148,166.262 110.020 C 166.262 109.892,166.159 109.851,166.032 109.929 C 165.906 110.007,165.658 109.951,165.481 109.805 C 165.304 109.658,165.158 109.625,165.156 109.730 C 165.155 109.836,165.057 109.774,164.939 109.592 C 164.758 109.311,164.725 109.321,164.722 109.657 M174.854 109.712 C 174.640 109.970,174.634 110.113,174.829 110.309 C 175.145 110.624,175.884 109.996,175.647 109.613 C 175.441 109.279,175.187 109.311,174.854 109.712 M175.524 109.800 C 175.524 110.060,175.094 110.338,174.936 110.180 C 174.778 110.022,175.056 109.592,175.316 109.592 C 175.430 109.592,175.524 109.685,175.524 109.800 M164.167 110.254 C 164.050 110.445,164.076 110.489,164.244 110.385 C 164.569 110.184,164.576 110.529,164.254 110.851 C 164.076 111.029,164.136 111.162,164.479 111.346 C 165.049 111.651,165.510 111.448,165.172 111.041 C 165.046 110.889,164.992 110.699,165.052 110.619 C 165.111 110.539,165.095 110.522,165.016 110.581 C 164.937 110.640,164.754 110.525,164.609 110.327 C 164.400 110.041,164.308 110.026,164.167 110.254 M174.789 110.842 C 174.545 111.086,174.622 111.283,174.963 111.283 C 175.139 111.283,175.238 111.208,175.182 111.118 C 175.126 111.027,175.205 110.903,175.357 110.841 C 175.539 110.768,175.515 110.723,175.285 110.712 C 175.093 110.702,174.870 110.761,174.789 110.842 M165.612 111.395 C 165.363 111.487,165.149 111.690,165.135 111.845 C 165.121 112.001,165.078 112.395,165.039 112.722 C 164.861 114.207,166.741 115.026,167.781 113.918 C 168.168 113.506,168.260 113.184,168.206 112.430 L 168.137 111.466 167.100 111.347 C 166.530 111.282,165.860 111.303,165.612 111.395 M36.569 117.816 C 36.827 118.129,36.804 118.163,36.384 118.082 C 35.993 118.006,35.951 118.047,36.160 118.298 C 36.301 118.468,36.562 118.550,36.741 118.482 C 37.144 118.327,37.052 117.716,36.604 117.568 C 36.324 117.475,36.318 117.513,36.569 117.816 M35.726 119.121 C 35.728 119.494,35.779 119.546,35.921 119.321 C 36.027 119.154,36.224 119.086,36.359 119.169 C 36.494 119.252,36.604 119.268,36.604 119.205 C 36.604 119.141,36.406 118.983,36.163 118.853 C 35.782 118.649,35.723 118.685,35.726 119.121 M68.390 120.516 L 68.467 121.610 67.475 121.625 C 66.568 121.640,66.477 121.692,66.413 122.232 C 66.345 122.807,66.373 122.822,67.516 122.819 C 69.666 122.813,70.297 121.071,68.645 119.700 C 68.354 119.458,68.322 119.561,68.390 120.516 M29.938 121.659 C 30.334 121.708,30.929 121.707,31.261 121.657 C 31.592 121.607,31.268 121.567,30.540 121.568 C 29.813 121.569,29.541 121.610,29.938 121.659 M66.476 136.825 C 66.476 144.223,66.504 147.217,66.538 143.479 C 66.572 139.741,66.572 133.688,66.538 130.028 C 66.504 126.368,66.476 129.427,66.476 136.825 M62.542 127.499 C 62.693 127.743,63.286 127.718,63.286 127.467 C 63.286 127.353,63.094 127.274,62.860 127.292 C 62.626 127.310,62.483 127.403,62.542 127.499 M159.565 137.422 C 159.652 137.562,158.903 137.691,158.315 137.638 C 158.249 137.632,158.181 137.821,158.163 138.058 C 158.142 138.336,158.223 138.433,158.393 138.331 C 158.546 138.239,158.529 138.329,158.352 138.546 C 158.123 138.829,158.116 138.920,158.324 138.920 C 158.543 138.920,158.543 138.986,158.324 139.250 C 158.021 139.615,158.016 139.613,159.427 139.687 C 160.859 139.761,161.461 138.609,160.559 137.522 C 160.279 137.185,159.362 137.092,159.565 137.422 M101.874 146.144 C 101.874 146.251,101.056 146.320,100.055 146.299 C 98.902 146.275,98.733 146.293,99.594 146.348 C 100.377 146.399,100.996 146.549,101.055 146.702 C 101.129 146.893,100.854 146.946,100.077 146.891 C 98.474 146.777,98.249 146.913,98.675 147.736 C 98.995 148.354,99.105 148.401,100.235 148.401 C 101.007 148.401,101.760 148.559,102.297 148.833 C 102.762 149.070,103.201 149.206,103.273 149.134 C 103.345 149.062,103.645 148.977,103.940 148.945 C 105.396 148.785,106.039 148.084,105.551 147.189 C 105.326 146.776,105.301 146.791,105.162 147.409 C 105.031 147.991,105.010 147.951,104.988 147.074 L 104.961 146.077 103.418 146.014 C 102.569 145.979,101.874 146.037,101.874 146.144 M158.305 146.086 C 158.068 148.115,158.185 148.369,159.634 148.978 C 160.269 149.246,160.365 149.221,161.063 148.607 C 161.556 148.174,161.843 148.044,161.904 148.225 C 161.954 148.376,162.055 148.272,162.128 147.992 C 162.236 147.582,162.190 147.511,161.891 147.625 C 161.602 147.735,161.580 147.707,161.787 147.499 C 161.973 147.311,161.986 147.108,161.832 146.819 C 161.711 146.593,161.656 146.335,161.711 146.247 C 161.765 146.158,161.556 146.071,161.246 146.052 C 160.839 146.028,160.768 146.073,160.992 146.214 C 161.191 146.340,161.208 146.411,161.038 146.413 C 160.894 146.415,160.712 146.314,160.635 146.188 C 160.452 145.893,158.766 145.989,158.762 146.294 C 158.760 146.422,158.662 146.378,158.545 146.196 C 158.427 146.014,158.319 145.965,158.305 146.086 M162.073 146.362 C 162.072 146.453,163.983 146.502,166.317 146.471 C 174.415 146.363,175.160 146.290,168.633 146.243 C 165.025 146.217,162.073 146.271,162.073 146.362 M162.183 147.078 C 162.258 147.200,162.679 147.299,163.118 147.299 C 164.000 147.299,165.380 147.729,165.380 148.005 C 165.380 148.102,165.777 148.181,166.262 148.181 C 166.748 148.181,167.144 148.082,167.144 147.960 C 167.144 147.839,167.337 147.740,167.572 147.740 C 167.808 147.740,168.062 147.641,168.137 147.519 C 168.436 147.035,171.555 147.477,171.555 148.005 C 171.555 148.102,171.951 148.181,172.437 148.181 C 172.922 148.181,173.319 148.082,173.319 147.960 C 173.319 147.839,173.505 147.740,173.733 147.740 C 174.193 147.740,174.719 147.229,174.493 147.003 C 174.246 146.756,162.030 146.831,162.183 147.078 M49.296 147.593 C 48.948 147.848,48.942 147.887,49.254 147.887 C 49.452 147.887,49.614 147.798,49.614 147.690 C 49.614 147.582,49.729 147.564,49.869 147.651 C 50.026 147.748,50.063 147.711,49.966 147.553 C 49.771 147.238,49.783 147.237,49.296 147.593 M152.922 148.269 C 152.557 148.699,152.296 150.237,152.622 150.036 C 152.726 149.972,152.811 150.012,152.811 150.127 C 152.811 150.502,154.185 150.241,154.420 149.821 C 154.581 149.534,154.572 149.393,154.390 149.332 C 154.250 149.285,154.135 149.106,154.135 148.934 C 154.135 148.762,153.986 148.622,153.804 148.622 C 153.622 148.622,153.473 148.519,153.473 148.394 C 153.473 148.242,153.627 148.248,153.933 148.411 C 154.360 148.640,154.796 148.548,154.532 148.284 C 154.281 148.034,153.131 148.022,152.922 148.269 M24.037 148.730 C 23.887 148.910,23.677 149.004,23.569 148.937 C 23.230 148.727,23.357 149.063,23.796 149.534 C 24.477 150.266,25.570 149.650,25.218 148.732 C 25.055 148.307,24.389 148.306,24.037 148.730 M25.041 148.863 C 25.274 149.241,24.538 149.875,24.228 149.564 C 24.090 149.426,24.036 149.157,24.109 148.967 C 24.262 148.570,24.821 148.507,25.041 148.863 M153.626 149.174 C 153.481 149.331,153.329 149.370,153.289 149.260 C 153.248 149.150,153.125 149.115,153.016 149.183 C 152.906 149.251,152.871 149.163,152.938 148.988 C 153.009 148.805,153.236 148.716,153.475 148.779 C 153.802 148.864,153.834 148.948,153.626 149.174 M24.359 149.074 C 24.150 149.413,24.437 149.632,24.720 149.349 C 24.878 149.190,24.882 149.067,24.731 148.974 C 24.608 148.898,24.440 148.943,24.359 149.074 M66.439 151.987 C 66.421 153.860,66.490 153.972,67.715 154.070 C 68.695 154.149,69.803 152.498,69.232 151.810 C 68.765 151.248,67.792 150.819,67.545 151.066 C 67.254 151.357,66.638 151.098,66.536 150.643 C 66.491 150.441,66.447 151.046,66.439 151.987 M25.214 151.149 C 25.298 151.367,25.240 151.705,25.086 151.902 C 24.838 152.221,24.850 152.227,25.193 151.958 C 25.638 151.609,25.694 151.145,25.321 150.914 C 25.144 150.805,25.110 150.878,25.214 151.149 M201.825 155.689 C 201.847 155.978,201.932 156.033,202.119 155.878 C 202.298 155.730,202.424 155.751,202.511 155.944 C 202.581 156.101,202.615 156.040,202.587 155.809 C 202.519 155.252,201.784 155.135,201.825 155.689 M198.659 159.869 C 198.282 160.264,198.283 160.885,198.662 161.264 C 198.829 161.431,198.897 161.327,198.897 160.904 C 198.897 160.333,199.514 160.103,200.531 160.294 C 200.725 160.331,201.092 159.896,201.099 159.621 C 201.107 159.303,198.994 159.517,198.659 159.869 M126.857 163.567 C 125.929 164.427,126.863 166.709,127.991 166.336 C 128.241 166.254,128.680 166.203,128.967 166.224 C 129.388 166.254,129.467 166.176,129.374 165.821 C 129.310 165.579,129.340 165.331,129.438 165.270 C 129.872 165.002,129.605 163.177,129.127 163.141 C 127.659 163.031,127.378 163.084,126.857 163.567 M313.381 164.111 C 313.413 164.932,313.421 164.939,314.342 164.939 C 316.187 164.939,316.186 163.509,314.341 163.362 L 313.348 163.283 313.381 164.111 M196.151 166.027 C 196.000 166.270,196.348 166.534,196.551 166.330 C 196.761 166.120,196.722 165.821,196.485 165.821 C 196.371 165.821,196.220 165.914,196.151 166.027 M123.528 168.416 C 123.381 168.465,123.320 168.600,123.391 168.716 C 123.463 168.833,123.393 169.097,123.235 169.304 C 123.077 169.511,123.029 169.612,123.129 169.528 C 123.229 169.445,123.515 169.567,123.765 169.800 C 124.074 170.087,124.303 170.155,124.479 170.009 C 124.621 169.891,124.819 169.868,124.918 169.958 C 125.017 170.048,125.027 169.997,124.940 169.846 C 124.852 169.694,124.886 169.570,125.015 169.570 C 125.143 169.570,125.248 169.785,125.248 170.048 C 125.248 170.311,125.310 170.464,125.385 170.389 C 125.618 170.156,125.247 169.092,124.966 169.186 C 124.693 169.277,124.146 168.852,124.146 168.549 C 124.146 168.456,124.265 168.498,124.410 168.644 C 124.755 168.989,124.954 168.979,124.954 168.618 C 124.954 168.340,124.113 168.221,123.528 168.416 M338.327 168.964 C 337.761 169.589,337.514 170.470,337.951 170.302 C 338.118 170.238,338.194 170.086,338.119 169.964 C 338.036 169.830,338.153 169.798,338.420 169.882 C 338.977 170.059,339.381 169.587,339.215 168.952 C 339.055 168.341,338.889 168.343,338.327 168.964 M192.429 169.003 C 192.363 169.176,192.451 169.436,192.626 169.581 C 192.851 169.768,192.944 169.773,192.944 169.597 C 192.944 169.461,192.848 169.350,192.730 169.350 C 192.613 169.350,192.574 169.201,192.644 169.019 C 192.713 168.837,192.721 168.688,192.660 168.688 C 192.600 168.688,192.496 168.830,192.429 169.003 M191.621 169.725 C 191.621 169.839,191.249 170.031,190.794 170.151 L 189.967 170.369 191.069 170.327 C 192.508 170.273,192.503 170.274,192.503 169.974 C 192.503 169.833,192.437 169.782,192.358 169.862 C 192.278 169.942,192.079 169.897,191.917 169.762 C 191.754 169.627,191.621 169.610,191.621 169.725 M21.056 170.015 C 20.980 170.138,20.810 170.172,20.678 170.091 C 20.536 170.003,20.502 170.046,20.596 170.197 C 20.824 170.565,21.389 170.511,21.389 170.121 C 21.389 169.738,21.254 169.694,21.056 170.015 " stroke="none" fill="#1c319c" fill-rule="evenodd"></path><path id="path3" d="M225.859 62.757 C 225.945 62.844,225.893 63.066,225.742 63.251 C 225.513 63.534,225.531 63.565,225.854 63.444 C 226.331 63.265,226.369 63.694,225.906 64.033 C 225.637 64.230,225.724 64.279,226.347 64.285 C 226.773 64.288,227.124 64.189,227.126 64.064 C 227.128 63.939,227.225 63.986,227.343 64.168 C 227.526 64.450,227.557 64.442,227.560 64.112 C 227.562 63.900,227.420 63.727,227.245 63.727 C 227.046 63.727,226.959 63.562,227.012 63.286 C 227.059 63.043,227.002 62.845,226.885 62.845 C 226.768 62.845,226.717 63.091,226.772 63.392 C 226.827 63.693,226.771 64.002,226.648 64.078 C 226.524 64.155,226.444 64.034,226.468 63.806 C 226.544 63.094,226.471 62.896,226.082 62.746 C 225.873 62.666,225.773 62.671,225.859 62.757 M297.603 66.546 C 297.350 66.956,297.631 69.820,297.994 70.520 C 298.432 71.367,298.551 71.428,299.951 71.509 L 301.005 71.570 300.944 69.026 L 300.882 66.483 299.302 66.419 C 298.433 66.383,297.669 66.441,297.603 66.546 M329.331 67.144 C 329.372 67.630,329.413 68.150,329.422 68.302 C 329.450 68.787,330.887 68.650,330.887 68.162 C 330.887 67.914,330.772 67.790,330.605 67.854 C 330.449 67.914,330.377 68.051,330.444 68.160 C 330.511 68.268,330.362 68.357,330.112 68.357 C 329.863 68.357,329.658 68.252,329.658 68.124 C 329.658 67.995,329.749 67.946,329.859 68.014 C 330.141 68.188,330.031 67.706,329.611 66.924 L 329.256 66.262 329.331 67.144 M300.911 73.264 C 300.707 74.024,300.747 74.752,300.992 74.752 C 301.114 74.752,301.213 74.462,301.213 74.108 C 301.213 73.755,301.273 73.308,301.347 73.116 C 301.420 72.924,301.382 72.767,301.262 72.767 C 301.142 72.767,300.984 72.991,300.911 73.264 M56.266 73.548 C 55.882 74.390,56.242 74.718,57.005 74.219 C 57.546 73.864,57.429 72.986,56.885 73.322 C 56.788 73.382,56.671 73.321,56.626 73.185 C 56.580 73.049,56.418 73.212,56.266 73.548 M57.230 73.694 C 57.302 73.767,57.267 73.884,57.151 73.956 C 57.035 74.027,56.825 73.946,56.683 73.775 C 56.421 73.459,56.921 73.385,57.230 73.694 M60.585 79.426 C 60.383 79.954,61.198 80.765,61.529 80.365 C 61.761 80.086,61.739 80.058,61.387 80.191 C 61.027 80.326,61.009 80.299,61.257 79.995 C 61.449 79.758,61.467 79.596,61.312 79.499 C 61.185 79.421,61.079 79.437,61.077 79.535 C 61.075 79.633,60.990 79.581,60.887 79.419 C 60.733 79.175,60.681 79.177,60.585 79.426 M76.832 85.171 C 76.883 85.444,76.932 85.747,76.941 85.845 C 76.950 85.944,77.056 85.962,77.178 85.888 C 77.299 85.813,77.398 85.912,77.398 86.108 C 77.398 86.338,77.496 86.404,77.674 86.293 C 78.172 85.982,78.473 86.031,78.354 86.405 C 78.255 86.719,78.272 86.723,78.476 86.439 C 79.138 85.519,78.781 84.675,77.730 84.675 C 76.822 84.675,76.747 84.716,76.832 85.171 M384.672 124.587 C 384.672 145.628,384.698 154.236,384.730 143.716 C 384.762 133.195,384.762 115.979,384.730 105.458 C 384.698 94.937,384.672 103.545,384.672 124.587 M345.435 90.219 C 344.965 90.588,344.873 90.843,344.873 91.774 L 344.873 92.888 346.094 92.787 C 347.492 92.671,347.726 92.506,347.881 91.521 C 348.070 90.322,346.420 89.444,345.435 90.219 M308.159 90.512 C 307.326 90.787,307.608 90.996,308.638 90.869 C 308.781 90.852,308.960 90.938,309.036 91.061 C 309.113 91.187,309.040 91.234,308.868 91.168 C 308.692 91.100,308.563 91.190,308.563 91.381 C 308.563 91.563,308.635 91.667,308.724 91.612 C 308.961 91.466,309.159 92.116,309.002 92.525 C 308.902 92.785,308.977 92.857,309.284 92.799 C 310.018 92.659,309.915 90.114,309.179 90.204 C 309.103 90.214,308.644 90.352,308.159 90.512 M304.879 90.745 C 304.597 91.481,304.715 92.909,305.037 92.642 C 305.200 92.507,305.398 92.462,305.478 92.541 C 305.558 92.621,305.623 92.484,305.623 92.236 C 305.623 91.735,306.127 91.206,306.372 91.451 C 306.458 91.537,306.462 91.436,306.382 91.226 C 306.267 90.927,306.325 90.872,306.646 90.973 C 306.971 91.076,306.988 91.059,306.725 90.891 C 306.028 90.444,305.025 90.365,304.879 90.745 M348.569 90.619 C 348.184 90.767,348.182 92.041,348.567 92.426 C 348.775 92.634,348.842 92.637,348.842 92.437 C 348.842 92.291,348.727 92.172,348.585 92.172 C 348.444 92.172,348.395 92.105,348.477 92.023 C 348.559 91.941,348.828 92.089,349.074 92.353 C 349.891 93.231,350.669 92.861,350.520 91.666 C 350.365 90.416,349.836 90.132,348.569 90.619 M305.794 91.034 C 306.008 91.170,305.969 91.308,305.628 91.616 C 305.191 92.012,305.182 92.008,305.182 91.434 C 305.182 90.824,305.320 90.734,305.794 91.034 M307.607 91.400 C 307.758 91.582,307.816 91.731,307.736 91.731 C 307.656 91.731,307.793 91.949,308.041 92.215 C 308.397 92.597,308.549 92.642,308.763 92.428 C 308.976 92.214,308.934 92.132,308.561 92.034 C 308.302 91.966,308.040 91.721,307.979 91.490 C 307.919 91.259,307.749 91.069,307.601 91.069 C 307.393 91.069,307.395 91.144,307.607 91.400 M223.481 127.784 C 223.481 147.067,223.507 154.923,223.539 145.242 C 223.571 135.560,223.571 119.783,223.539 110.181 C 223.507 100.579,223.481 108.501,223.481 127.784 M298.183 97.801 C 297.304 98.417,297.246 99.283,297.245 111.867 C 297.243 125.925,297.115 125.331,300.110 125.170 C 301.502 125.096,301.343 124.146,299.939 124.146 C 298.011 124.146,298.126 124.904,298.126 112.144 C 298.126 99.177,298.079 99.520,299.854 99.405 L 300.882 99.338 300.950 98.401 L 301.018 97.464 299.841 97.464 C 299.142 97.464,298.469 97.601,298.183 97.801 M67.034 120.176 C 66.810 120.400,66.662 120.765,66.704 120.986 C 66.746 121.208,66.788 121.470,66.797 121.568 C 66.830 121.921,68.461 121.623,68.532 121.252 C 68.613 120.823,67.966 120.522,67.605 120.822 C 67.447 120.953,67.227 120.955,67.027 120.829 C 66.756 120.658,66.767 120.624,67.089 120.621 C 67.302 120.619,67.475 120.456,67.475 120.260 C 67.475 119.977,67.540 119.956,67.786 120.160 C 67.999 120.337,68.143 120.345,68.240 120.187 C 68.319 120.060,68.353 119.948,68.315 119.939 C 67.678 119.781,67.373 119.838,67.034 120.176 M299.559 134.693 C 298.067 134.860,298.126 134.443,298.126 144.900 C 298.126 155.555,297.961 154.655,299.945 154.848 L 300.992 154.950 300.992 144.743 C 300.992 133.402,301.151 134.514,299.559 134.693 M313.383 162.811 C 313.439 163.198,313.623 163.298,314.387 163.353 C 316.219 163.486,316.145 164.939,314.306 164.939 C 313.423 164.939,313.341 164.987,313.341 165.491 C 313.341 165.985,313.430 166.042,314.208 166.042 C 316.512 166.042,317.515 164.515,316.243 162.945 C 315.639 162.198,313.280 162.088,313.383 162.811 M337.743 168.394 C 337.663 168.475,337.604 168.847,337.614 169.221 C 337.623 169.595,337.682 169.776,337.743 169.624 C 337.804 169.471,337.970 169.413,338.111 169.494 C 338.253 169.575,338.295 169.560,338.205 169.460 C 337.981 169.213,338.472 168.658,338.758 168.835 C 338.885 168.913,338.922 168.871,338.842 168.741 C 338.762 168.611,338.821 168.455,338.973 168.393 C 339.126 168.332,338.944 168.274,338.570 168.264 C 338.196 168.255,337.824 168.313,337.743 168.394 M227.633 168.899 C 227.630 169.236,227.950 169.560,228.293 169.567 C 228.391 169.568,228.401 169.455,228.314 169.315 C 228.219 169.161,228.253 169.121,228.402 169.212 C 228.536 169.296,228.591 169.509,228.522 169.687 C 228.454 169.865,228.514 170.011,228.655 170.011 C 228.797 170.011,228.863 170.090,228.803 170.187 C 228.743 170.284,228.919 170.364,229.193 170.364 C 229.624 170.364,229.697 170.238,229.739 169.425 L 229.788 168.486 228.712 168.522 C 227.907 168.549,227.636 168.643,227.633 168.899 " stroke="none" fill="#0c98dc" fill-rule="evenodd"></path><path id="path4" d="M7.074 69.827 C 7.064 70.090,6.932 70.355,6.781 70.416 C 6.565 70.503,6.566 70.531,6.788 70.545 C 7.122 70.566,7.366 70.033,7.205 69.632 C 7.142 69.477,7.083 69.564,7.074 69.827 M37.808 107.166 C 37.808 112.806,37.837 115.113,37.872 112.293 C 37.907 109.474,37.907 104.859,37.872 102.040 C 37.837 99.220,37.808 101.527,37.808 107.166 M64.267 115.325 C 64.267 119.509,64.296 121.221,64.333 119.129 C 64.369 117.037,64.369 113.614,64.333 111.521 C 64.296 109.429,64.267 111.141,64.267 115.325 M165.380 109.670 C 165.684 109.831,166.024 109.911,166.138 109.849 C 166.363 109.726,165.689 109.410,165.160 109.390 C 164.978 109.384,165.077 109.509,165.380 109.670 M174.848 109.482 C 174.839 109.482,174.795 109.829,174.749 110.254 C 174.673 110.951,174.687 110.973,174.885 110.480 C 175.106 109.931,175.461 109.602,175.838 109.595 C 175.950 109.594,175.809 109.840,175.524 110.143 C 175.239 110.447,175.098 110.695,175.212 110.695 C 175.325 110.695,175.544 110.492,175.698 110.245 C 175.853 109.998,176.068 109.851,176.177 109.918 C 176.286 109.985,176.447 109.924,176.535 109.782 C 176.634 109.621,176.599 109.583,176.440 109.681 C 176.300 109.768,176.185 109.738,176.185 109.614 C 176.185 109.490,175.888 109.410,175.524 109.436 C 175.161 109.461,174.856 109.482,174.848 109.482 M166.067 110.432 C 166.052 110.602,165.929 110.653,165.766 110.555 C 165.546 110.423,165.546 110.458,165.764 110.728 C 165.915 110.914,165.990 111.132,165.932 111.213 C 165.873 111.294,165.933 111.270,166.064 111.161 C 166.196 111.051,166.256 110.778,166.198 110.553 C 166.140 110.328,166.082 110.273,166.067 110.432 M68.578 113.565 C 68.315 113.738,68.348 113.769,68.737 113.714 C 69.007 113.677,69.297 113.577,69.381 113.493 C 69.615 113.259,68.952 113.319,68.578 113.565 M36.055 117.747 C 35.979 117.870,35.997 117.973,36.095 117.975 C 36.193 117.977,36.125 118.076,35.943 118.195 C 35.595 118.424,35.953 118.847,36.494 118.847 C 36.615 118.847,36.572 118.756,36.398 118.646 C 36.144 118.486,36.135 118.381,36.353 118.118 C 36.523 117.914,36.544 117.740,36.410 117.657 C 36.291 117.583,36.131 117.624,36.055 117.747 M300.372 119.709 C 300.212 119.808,299.851 119.845,299.570 119.791 C 299.112 119.704,299.049 119.788,298.972 120.597 C 298.803 122.364,298.997 123.263,299.527 123.177 C 299.787 123.134,300.163 123.183,300.361 123.286 C 300.667 123.445,300.742 123.298,300.849 122.321 C 301.015 120.814,300.768 119.462,300.372 119.709 M25.211 122.105 C 25.231 122.499,25.322 122.822,25.413 122.822 C 25.624 122.823,25.601 122.397,25.361 121.830 C 25.211 121.477,25.181 121.531,25.211 122.105 M63.552 126.926 C 63.320 127.176,63.320 127.233,63.552 127.236 C 63.754 127.238,63.740 127.302,63.506 127.453 C 63.324 127.571,63.287 127.668,63.424 127.670 C 63.793 127.675,64.165 127.144,63.990 126.864 C 63.883 126.693,63.752 126.712,63.552 126.926 M25.138 148.401 C 25.138 148.644,24.947 149.033,24.714 149.266 C 24.373 149.607,24.351 149.714,24.601 149.810 C 24.772 149.875,24.901 149.858,24.889 149.772 C 24.829 149.375,24.940 149.198,25.095 149.442 C 25.194 149.597,25.280 149.343,25.300 148.835 C 25.319 148.354,25.291 147.960,25.236 147.960 C 25.182 147.960,25.138 148.159,25.138 148.401 M155.629 148.122 C 156.147 148.169,156.941 148.168,157.393 148.121 C 157.844 148.073,157.420 148.035,156.450 148.036 C 155.480 148.037,155.110 148.075,155.629 148.122 M70.408 161.411 C 70.408 162.078,70.449 162.351,70.500 162.018 C 70.550 161.684,70.550 161.138,70.500 160.805 C 70.449 160.471,70.408 160.744,70.408 161.411 M195.810 166.285 C 195.325 166.427,195.346 166.443,195.993 166.417 C 196.396 166.400,196.764 166.326,196.810 166.251 C 196.921 166.071,196.491 166.086,195.810 166.285 " stroke="none" fill="#241c8c" fill-rule="evenodd"></path></g></svg>