<svg fill="#A39B36" version="1.1" id="Layer_1" xmlns="http://www.w3.org/2000/svg" xmlns:xlink="http://www.w3.org/1999/xlink" viewBox="0 0 512 512" xml:space="preserve" width="64px" height="64px" stroke="#A39B36"><g id="SVGRepo_bgCarrier" stroke-width="0"></g><g id="SVGRepo_iconCarrier"> <g> <g> <rect x="155.826" y="122.435" width="44.522" height="33.391"></rect> </g> </g> <g> <g> <rect x="122.435" y="155.826" width="33.391" height="44.522"></rect> </g> </g> <g> <g> <rect x="200.348" y="155.826" width="33.391" height="44.522"></rect> </g> </g> <g> <g> <rect x="155.826" y="200.348" width="44.522" height="33.391"></rect> </g> </g> <g> <g> <rect x="311.652" y="278.261" width="44.522" height="33.391"></rect> </g> </g> <g> <g> <rect x="278.261" y="311.652" width="33.391" height="44.522"></rect> </g> </g> <g> <g> <rect x="356.174" y="311.652" width="33.391" height="44.522"></rect> </g> </g> <g> <g> <rect x="311.652" y="356.174" width="44.522" height="33.391"></rect> </g> </g> <g> <g> <rect x="356.174" y="122.435" width="33.391" height="33.391"></rect> </g> </g> <g> <g> <rect x="322.783" y="155.826" width="33.391" height="33.391"></rect> </g> </g> <g> <g> <rect x="289.391" y="189.217" width="33.391" height="33.391"></rect> </g> </g> <g> <g> <rect x="256" y="222.609" width="33.391" height="33.391"></rect> </g> </g> <g> <g> <rect x="222.609" y="256" width="33.391" height="33.391"></rect> </g> </g> <g> <g> <rect x="189.217" y="289.391" width="33.391" height="33.391"></rect> </g> </g> <g> <g> <rect x="155.826" y="322.783" width="33.391" height="33.391"></rect> </g> </g> <g> <g> <rect x="122.435" y="356.174" width="33.391" height="33.391"></rect> </g> </g> <g> <g> <rect x="66.783" y="66.783" width="33.391" height="33.391"></rect> </g> </g> <g> <g> <g> <rect x="100.174" y="33.391" width="66.783" height="33.391"></rect> <rect x="166.957" width="178.087" height="33.391"></rect> <rect x="411.826" y="66.783" width="33.391" height="33.391"></rect> <rect x="345.043" y="33.391" width="66.783" height="33.391"></rect> </g> </g> </g> <g> <g> <rect x="445.217" y="100.174" width="33.39" height="66.783"></rect> </g> </g> <g> <g> <rect x="478.609" y="166.957" width="33.391" height="178.087"></rect> </g> </g> <g> <g> <rect x="445.217" y="345.043" width="33.39" height="66.783"></rect> </g> </g> <g> <g> <g> <rect x="33.391" y="100.174" width="33.391" height="66.783"></rect> <rect y="166.957" width="33.391" height="178.087"></rect> <rect x="33.391" y="345.043" width="33.391" height="66.783"></rect> <rect x="66.783" y="411.826" width="33.391" height="33.391"></rect> </g> </g> </g> <g> <g> <g> <rect x="166.957" y="478.609" width="178.087" height="33.391"></rect> <rect x="100.174" y="445.217" width="66.783" height="33.391"></rect> <rect x="345.043" y="445.217" width="66.783" height="33.391"></rect> </g> </g> </g> <g> <g> <rect x="411.826" y="411.826" width="33.391" height="33.391"></rect> </g> </g> <g> </g> <g> </g> <g> </g> <g> </g> <g> </g> <g> </g> <g> </g> <g> </g> <g> </g> <g> </g> <g> </g> <g> </g> <g> </g> <g> </g> <g> </g> </g></svg>