<?xml version="1.0" encoding="utf-8"?>
<!-- Generator: Adobe Illustrator 25.0.1, SVG Export Plug-In . SVG Version: 6.00 Build 0)  -->
<svg version="1.1" id="Layer_1" xmlns="http://www.w3.org/2000/svg" xmlns:xlink="http://www.w3.org/1999/xlink" x="0px" y="0px"
	 viewBox="0 0 197.71 197.71" style="enable-background:new 0 0 197.71 197.71;" xml:space="preserve">
<style type="text/css">
	.st0{fill:#5F259F;}
	.st1{fill:#FFFFFF;}
</style>
<g>
	<path class="st0" d="M150.1,197.71H48.33c-26.39,0-47.97-21.59-47.97-47.97V47.97C0.36,21.59,21.95,0,48.33,0H150.1
		c26.39,0,47.97,21.59,47.97,47.97v101.77C198.07,176.13,176.48,197.71,150.1,197.71z"/>
	<path class="st1" d="M137.59,70.24h-13.16c-4.63-5.44-25.68-30.15-29.45-34.23c-4.23-4.59-8.47-3.53-10.59-2.82
		c-2.12,0.71-10.59,3.53-11.64,4.2c-1.06,0.67,0,2.15,0,2.15l31.73,30.7H57.06c-1.86,0-3.37,1.51-3.37,3.37v3.97
		c0,4.33,3.51,7.84,7.84,7.84h6.28c0,4.55,0,22.62,0,30.16c0,8.66,6,26.65,27.52,26.65c6.79,0,13.57-2.43,15.17-3.04v18.14
		c0,4.33,3.51,7.84,7.84,7.84h8.2c1.86,0,3.37-1.51,3.37-3.37V85.41h11.45c1.86,0,3.37-1.51,3.37-3.37v-4.66
		C144.73,73.44,141.53,70.24,137.59,70.24z M110.51,123.66c-3.23,2.03-8.15,2.33-10.94,2.33c-8.47,0-13.06-5.29-13.06-9.88
		c0-4.05,0-25.65,0-30.7h23.99V123.66z"/>
</g>
</svg>
