<svg xmlns="http://www.w3.org/2000/svg" width="7.12" height="7.133" viewBox="0 0 7.12 7.133">
  <path id="phone" d="M7.256,8.133c-.029,0-.059,0-.088,0H7.162A6.8,6.8,0,0,1,4.214,7.08a6.712,6.712,0,0,1-2.05-2.05A6.8,6.8,0,0,1,1.116,2.069V2.064A.976.976,0,0,1,2.087,1H3.07a.98.98,0,0,1,.966.839v0a3.857,3.857,0,0,0,.21.843.978.978,0,0,1-.22,1.029h0l-.233.233A4.883,4.883,0,0,0,5.283,5.44l.233-.233h0a.976.976,0,0,1,1.03-.22,3.855,3.855,0,0,0,.842.21h0a.976.976,0,0,1,.839.986v.972a.976.976,0,0,1-.976.978Zm-.027-.652a.325.325,0,0,0,.352-.325V6.178s0-.005,0-.008A.325.325,0,0,0,7.3,5.84,4.508,4.508,0,0,1,6.319,5.6a.325.325,0,0,0-.343.072l-.412.412a.325.325,0,0,1-.391.053A5.532,5.532,0,0,1,3.1,4.059a.325.325,0,0,1,.053-.391l.412-.412a.326.326,0,0,0,.073-.342,4.51,4.51,0,0,1-.245-.984A.327.327,0,0,0,3.07,1.65H2.087A.325.325,0,0,0,1.764,2a6.142,6.142,0,0,0,.948,2.675l0,0A6.057,6.057,0,0,0,4.565,6.532l0,0A6.142,6.142,0,0,0,7.229,7.481Z" transform="translate(-1.112 -1)" fill="#fff"/>
</svg>
