<svg xmlns="http://www.w3.org/2000/svg" width="12.685" height="16.708" viewBox="0 0 12.685 16.708">
  <path id="Path_302102" data-name="route_icon" d="M126.524,1038.343a2.819,2.819,0,1,1,2.819,2.819A2.819,2.819,0,0,1,126.524,1038.343Zm2.819-1.409a1.409,1.409,0,1,0,1.409,1.409A1.409,1.409,0,0,0,129.343,1036.933ZM123,1038.343a6.343,6.343,0,0,1,12.685,0,11.569,11.569,0,0,1-2.233,6.341,21.336,21.336,0,0,1-3.208,3.673,1.335,1.335,0,0,1-1.8,0,21.336,21.336,0,0,1-3.208-3.673A11.569,11.569,0,0,1,123,1038.343Zm6.343-4.933a4.933,4.933,0,0,0-4.933,4.933,10.178,10.178,0,0,0,1.989,5.549,19.963,19.963,0,0,0,2.944,3.381,19.963,19.963,0,0,0,2.944-3.381,10.178,10.178,0,0,0,1.989-5.549A4.933,4.933,0,0,0,129.343,1033.41Z" transform="translate(-123 -1032)" fill="#fff" fill-rule="evenodd"/>
</svg>
