<svg xmlns="http://www.w3.org/2000/svg" width="19.027" height="9.514" viewBox="0 0 19.027 9.514">
  <path id="Path_198868" data-name="Path 198868" d="M559.928,1134.793a.793.793,0,0,0,.793.793h9.514a.793.793,0,1,0,0-1.585h-9.514A.793.793,0,0,0,559.928,1134.793Zm0,3.964a.793.793,0,0,0,.793.793h6.342a.793.793,0,0,0,0-1.586h-6.342A.793.793,0,0,0,559.928,1138.757Zm0,3.964a.793.793,0,0,0,.793.793h6.342a.793.793,0,0,0,0-1.586h-6.342A.793.793,0,0,0,559.928,1142.721Zm-4.757.793a.793.793,0,0,0,.793-.793v-6.014l1.025,1.025a.793.793,0,0,0,1.121-1.121l-2.378-2.378a.792.792,0,0,0-1.121,0l-2.378,2.378a.793.793,0,0,0,1.121,1.121l1.025-1.025v6.014A.793.793,0,0,0,555.171,1143.514Z" transform="translate(-552 -1134)" fill="#9295a5"/>
</svg>
