<svg xmlns="http://www.w3.org/2000/svg" width="14" height="14" viewBox="0 0 22 22">
  <g id="Group_204965" data-name="Group 204965" transform="translate(-8988.915 -6725.272)">
    <path id="Path_302315" data-name="Path 302315" d="M77.431,0a7.431,7.431,0,1,0,7.431,7.431A7.438,7.438,0,0,0,77.431,0Zm0,13.934a6.5,6.5,0,1,1,6.5-6.5A6.51,6.51,0,0,1,77.431,13.934ZM80.07,5.452l-1.983,1.98,1.98,1.98a.464.464,0,1,1-.656.656l-1.98-1.98-1.98,1.98a.464.464,0,0,1-.656-.656l1.98-1.98L74.8,5.452a.464.464,0,0,1,.656-.656l1.98,1.98,1.98-1.98a.465.465,0,0,1,.659.656Z" transform="translate(8919.231 6725.588)" fill="#fff"/>
    <path id="Path_302315_-_Outline" data-name="Path 302315 - Outline" d="M77.5-.25A7.748,7.748,0,1,1,69.75,7.5,7.756,7.756,0,0,1,77.5-.25Zm0,14.863A7.115,7.115,0,1,0,70.383,7.5,7.123,7.123,0,0,0,77.5,14.613ZM77.5.679A6.819,6.819,0,1,1,70.679,7.5,6.827,6.827,0,0,1,77.5.679Zm0,13A6.186,6.186,0,1,0,71.312,7.5,6.193,6.193,0,0,0,77.5,13.684ZM75.19,4.411a.775.775,0,0,1,.552.228L77.5,6.394l1.756-1.756a.781.781,0,0,1,1.108,1.1L78.6,7.5l1.756,1.756a.78.78,0,1,1-1.1,1.1L77.5,8.6l-1.756,1.756a.78.78,0,0,1-1.1-1.1L76.394,7.5,74.638,5.742a.779.779,0,0,1,.552-1.331ZM77.5,7.289l-2.2-2.2a.148.148,0,0,0-.209.209l2.2,2.2-2.2,2.2a.15.15,0,0,0,0,.209.15.15,0,0,0,.209,0l2.2-2.2,2.2,2.2a.15.15,0,0,0,.209,0,.15.15,0,0,0,0-.209l-2.2-2.2,2.207-2.2a.149.149,0,0,0,.042-.1.144.144,0,0,0-.043-.1.149.149,0,0,0-.106-.044.147.147,0,0,0-.1.042Z" transform="translate(8919.165 6725.522)" fill="#fff"/>
  </g>
</svg>
