<svg xmlns="http://www.w3.org/2000/svg" width="14" height="14" viewBox="0 0 22 22">
  <g id="Group_204963" data-name="Group 204963" transform="translate(-8989.965 -6665.946)">
    <g id="Group_204955" data-name="Group 204955" transform="translate(8989.965 6665.946)">
      <path id="Path_302308" data-name="Path 302308" d="M98.771,16.438a.494.494,0,0,0-.826-.236l-.843.843A8.019,8.019,0,0,0,86.072,28.681c.1.1.2.186.287.287a.845.845,0,0,0,.573.219.871.871,0,0,0,.641-.287.857.857,0,0,0-.067-1.214l-.236-.219a6.309,6.309,0,0,1,8.618-9.208l-.928.928a.494.494,0,0,0,.236.826l3.946.961a.507.507,0,0,0,.607-.607Z" transform="translate(-83.719 -14.983)" fill="#fff"/>
      <path id="Path_302309" data-name="Path 302309" d="M325.135,137.422l-1.973-1.248V133.02a.86.86,0,0,0-1.72,0v3.609a.856.856,0,0,0,.4.725l2.361,1.5a.894.894,0,0,0,.455.135.839.839,0,0,0,.725-.4.816.816,0,0,0-.253-1.164Z" transform="translate(-314.283 -128.631)" fill="#fff"/>
      <path id="Path_302310" data-name="Path 302310" d="M249.174,478.6l-.32-.1a.853.853,0,1,0-.54,1.619,3.655,3.655,0,0,0,.4.118.987.987,0,0,0,.219.034.861.861,0,0,0,.826-.641.824.824,0,0,0-.59-1.029Z" transform="translate(-242.789 -464.493)" fill="#fff"/>
      <path id="Path_302311" data-name="Path 302311" d="M358.056,485.628l-.337.051a.859.859,0,0,0-.725.978.881.881,0,0,0,.843.742.422.422,0,0,0,.135-.017c.135-.017.287-.051.422-.067a.863.863,0,0,0,.675-1.012.885.885,0,0,0-1.012-.675Z" transform="translate(-348.755 -471.441)" fill="#fff"/>
      <path id="Path_302312" data-name="Path 302312" d="M459.652,439.873l-.27.2a.861.861,0,0,0-.2,1.2.862.862,0,0,0,1.2.219c.118-.084.236-.169.337-.253a.859.859,0,0,0,.135-1.214.84.84,0,0,0-1.2-.152Z" transform="translate(-447.72 -426.9)" fill="#fff"/>
    </g>
  </g>
</svg>
