<svg xmlns="http://www.w3.org/2000/svg" width="14" height="14" viewBox="0 0 22 22">
  <g id="Group_204964" data-name="Group 204964" transform="translate(-8989.083 -6695.243)">
    <path id="Path_302314" data-name="Path 302314" d="M135.7,62.424v2.653a.841.841,0,1,1-1.682,0V62.425a.841.841,0,1,1,1.682,0Zm-.841,4.019a.841.841,0,1,0,.595.246A.841.841,0,0,0,134.857,66.443Zm7.246-1.589a7.246,7.246,0,1,1-12.37-5.124,7.559,7.559,0,0,1,4.406-2.087,5.1,5.1,0,0,1,.718-.036,7.255,7.255,0,0,1,7.246,7.247Zm-.855,0a6.4,6.4,0,1,0-1.874,4.517,6.391,6.391,0,0,0,1.874-4.517Z" transform="translate(8861.763 6637.928)" fill="#fff"/>
    <path id="Path_302314_-_Outline" data-name="Path 302314 - Outline" d="M134.9,57.357h0a7.547,7.547,0,0,1,7.538,7.538V65.6l-.031-.031a7.539,7.539,0,1,1-12.839-6.006,7.909,7.909,0,0,1,4.567-2.169v0a1.679,1.679,0,0,1,.248-.026C134.483,57.366,134.681,57.357,134.9,57.357Zm-.669.612a.291.291,0,0,0-.028-.576l.024.58a7.251,7.251,0,0,0-4.244,2A6.954,6.954,0,1,0,141.854,64.9v-.035a6.963,6.963,0,0,0-6.955-6.919C134.589,57.941,134.281,57.962,134.23,57.97Zm.669.243a6.683,6.683,0,0,1,6.683,6.683v.111a6.691,6.691,0,0,1-6.682,6.572h0a6.683,6.683,0,0,1,0-13.367ZM141,64.87a6.146,6.146,0,1,0,0,.025Zm-6.1-3.536a1.133,1.133,0,0,1,1.133,1.132h0v2.653a1.133,1.133,0,0,1-.874,1.1,1.132,1.132,0,1,1-.518,0,1.133,1.133,0,0,1-.874-1.1V62.467a1.133,1.133,0,0,1,1.133-1.133Zm.549,1.133a.551.551,0,0,0-.275-.476.558.558,0,0,0-.549,0,.551.551,0,0,0-.275.476v2.652a.551.551,0,0,0,.275.476.558.558,0,0,0,.549,0,.551.551,0,0,0,.274-.475Zm-.549,5.407a.549.549,0,1,0-.388-.161A.545.545,0,0,0,134.9,67.874Z" transform="translate(8861.722 6637.886)" fill="#fff"/>
  </g>
</svg>
