<svg xmlns="http://www.w3.org/2000/svg" width="14.817" height="12.348" viewBox="0 0 14.817 12.348">
  <path id="Path_927" data-name="Path 927" d="M169.852,1853.087a.618.618,0,0,0-.617.617v4.939a.618.618,0,0,0,.617.617h6.536l-.8-.8a.617.617,0,1,1,.873-.873l1.852,1.852a.617.617,0,0,1,0,.873l-1.852,1.852a.617.617,0,1,1-.873-.873l.8-.8h-6.536a1.852,1.852,0,0,1-1.852-1.852V1853.7a1.852,1.852,0,0,1,1.852-1.852h.617a.617.617,0,0,1,0,1.235Zm5.376-2.906a.617.617,0,0,1,0,.873l-.8.8h6.536a1.852,1.852,0,0,1,1.852,1.852v4.939a1.852,1.852,0,0,1-1.852,1.852h-.617a.617.617,0,0,1,0-1.235h.617a.618.618,0,0,0,.617-.617V1853.7a.618.618,0,0,0-.617-.617H174.43l.8.8a.617.617,0,0,1-.873.873l-1.852-1.852a.617.617,0,0,1,0-.873l1.852-1.852A.617.617,0,0,1,175.228,1850.181Z" transform="translate(-168 -1850)" fill="#fff"/>
</svg>
