<svg xmlns="http://www.w3.org/2000/svg" width="20.269" height="23.829" viewBox="0 0 20.269 23.829">
  <g id="Group_204967" data-name="Group 204967" transform="translate(0.706 1.186)">
    <path id="Path_302319" data-name="Path 302319" d="M307.771,338.967l3.406-19.5,8.515,10.772Z" transform="translate(-301.201 -318.442)" fill="#0e0e12" stroke="#fff" stroke-width="1.5"/>
    <path id="Path_302319_-_Outline" data-name="Path 302319 - Outline" d="M306.359,338.6l3.756-21.506,9.391,11.88Zm4.275-19.458-3.056,17.495,10.7-7.831Z" transform="translate(-300.398 -317.094)" fill="#fff"/>
    <path id="Path_302318" data-name="Path 302318" d="M283.941,338.967l3.406-19.5,8.515,10.772Z" transform="translate(-283.332 -318.442)" fill="#090a0c"/>
    <path id="Path_302318_-_Outline" data-name="Path 302318 - Outline" d="M282.529,338.6l3.756-21.506,9.391,11.88Zm4.275-19.458-3.056,17.495,10.7-7.831Z" transform="translate(-282.529 -317.094)" fill="#fff"/>
    <path id="Path_302318_-_Outline_-_Outline" data-name="Path 302318 - Outline - Outline" d="M281.823,339.736l4.162-23.829L296.39,329.07Zm5.282-19.408-2.65,15.172,9.276-6.791Z" transform="translate(-282.529 -317.094)" fill="#fff"/>
  </g>
</svg>
