<svg xmlns="http://www.w3.org/2000/svg" width="17.484" height="19.427" viewBox="0 0 17.484 19.427">
  <g id="user" transform="translate(0)">
    <path id="Path_302398" data-name="Path 302398" d="M19.513,21.771a.971.971,0,0,1-.971-.971V18.857a2.917,2.917,0,0,0-2.914-2.914H7.857a2.917,2.917,0,0,0-2.914,2.914V20.8A.971.971,0,0,1,3,20.8V18.857A4.862,4.862,0,0,1,7.857,14h7.771a4.862,4.862,0,0,1,4.857,4.857V20.8A.971.971,0,0,1,19.513,21.771Z" transform="translate(-3 -2.344)" fill="#fff"/>
    <path id="Ellipse_4363" data-name="Ellipse 4363" d="M3.857-1A4.857,4.857,0,1,1-1,3.857,4.862,4.862,0,0,1,3.857-1Zm0,7.771A2.914,2.914,0,1,0,.943,3.857,2.917,2.917,0,0,0,3.857,6.771Z" transform="translate(4.885 1)" fill="#fff"/>
  </g>
</svg>
