<svg xmlns="http://www.w3.org/2000/svg" width="31.587" height="25.788" viewBox="0 0 31.587 25.788">
  <g id="Group_204645" data-name="Group 204645" transform="translate(0.001)">
    <rect id="Rectangle_26815" data-name="Rectangle 26815" width="9.778" height="17.601" transform="translate(11.327 5.867)"/>
    <g id="_28_Warning" data-name="28 Warning" transform="translate(-0.001 0)">
      <path id="Path_11" data-name="Path 11" d="M1434.1,3371.49l-12.469-19.151a3.325,3.325,0,0,0-5.564,0l-12.47,19.151a3.322,3.322,0,0,0,2.782,5.133h24.939A3.322,3.322,0,0,0,1434.1,3371.49Zm-15.252.485a1.328,1.328,0,1,1,1.328-1.328A1.332,1.332,0,0,1,1418.849,3371.975Zm1.328-5.977a1.328,1.328,0,1,1-2.656,0v-7.3a1.328,1.328,0,0,1,2.656,0Z" transform="translate(-1403.055 -3350.836)" fill="#9295a5"/>
    </g>
  </g>
</svg>
