<svg xmlns="http://www.w3.org/2000/svg" width="13.04" height="13.102" viewBox="0 0 13.04 13.102">
  <g id="WhatsApp_Logo_3" transform="translate(-430.79 -325.419)">
    <g id="WhatsApp_Logo" data-name="WhatsApp Logo" transform="translate(430.79 325.419)">
      <g id="WA_Logo" data-name="WA Logo" transform="translate(0)">
        <path id="Path_210725" data-name="Path 210725" d="M441.93,327.323a6.494,6.494,0,0,0-10.219,7.834l-.921,3.364,3.442-.9a6.488,6.488,0,0,0,3.1.79h0a6.5,6.5,0,0,0,4.593-11.086Zm-4.593,9.989h0a5.39,5.39,0,0,1-2.747-.753l-.2-.117-2.043.536.545-1.992-.129-.2a5.4,5.4,0,1,1,4.573,2.53Zm2.96-4.042c-.162-.081-.96-.474-1.109-.529s-.257-.081-.365.081-.419.529-.514.636-.189.122-.352.041a4.43,4.43,0,0,1-1.3-.805,4.9,4.9,0,0,1-.9-1.124c-.095-.163-.01-.249.071-.331s.162-.19.243-.284a1.106,1.106,0,0,0,.162-.271.3.3,0,0,0-.013-.284c-.04-.081-.365-.88-.5-1.2s-.265-.273-.365-.278-.2-.006-.311-.006a.6.6,0,0,0-.433.2,1.82,1.82,0,0,0-.568,1.353,3.158,3.158,0,0,0,.662,1.678,7.232,7.232,0,0,0,2.771,2.449,9.318,9.318,0,0,0,.925.342,2.21,2.21,0,0,0,1.022.064,1.671,1.671,0,0,0,1.1-.771,1.343,1.343,0,0,0,.093-.772C440.564,333.392,440.46,333.352,440.3,333.271Z" transform="translate(-430.79 -325.419)" fill="#fff" fill-rule="evenodd"/>
      </g>
    </g>
  </g>
</svg>
